<svg width="31" height="51" viewBox="0 0 31 51" fill="none" xmlns="http://www.w3.org/2000/svg">
<path d="M18.6695 21.4269H11.7741C11.3355 21.4269 10.9785 21.7838 10.9785 22.2225V29.1179C10.9785 29.5566 11.3355 29.9135 11.7741 29.9135H12.5698V32.5656C12.5698 33.1507 13.0455 33.6264 13.6306 33.6264C14.2156 33.6264 14.6914 33.1507 14.6914 32.5656V29.9135H15.7523V32.5656C15.7523 33.1507 16.228 33.6264 16.8131 33.6264C17.3981 33.6264 17.8739 33.1507 17.8739 32.5656V29.9135H18.6695C19.1082 29.9135 19.4652 29.5566 19.4652 29.1179V22.2225C19.4652 21.7838 19.1082 21.4269 18.6695 21.4269ZM14.161 32.5656C14.161 32.8579 13.9234 33.096 13.6306 33.096C13.3378 33.096 13.1002 32.8579 13.1002 32.5656V29.9135H14.161V32.5656ZM17.3435 32.5656C17.3435 32.8579 17.1059 33.096 16.8131 33.096C16.5203 33.096 16.2827 32.8579 16.2827 32.5656V29.9135H17.3435V32.5656ZM18.9348 29.1179C18.9348 29.2643 18.8154 29.3831 18.6695 29.3831H17.8739H15.7523H14.6914H12.5698H11.7741C11.6283 29.3831 11.5089 29.2643 11.5089 29.1179V22.2225C11.5089 22.0761 11.6283 21.9573 11.7741 21.9573H18.6695C18.8154 21.9573 18.9348 22.0761 18.9348 22.2225V29.1179Z" fill="#808184"/>
<path d="M15.2218 16.6531C12.8822 16.6531 10.9785 18.5568 10.9785 20.8965H11.5089C11.5089 18.849 13.175 17.1835 15.2218 17.1835C17.2687 17.1835 18.9348 18.849 18.9348 20.8965H19.4652C19.4652 18.5568 17.5615 16.6531 15.2218 16.6531Z" fill="#808184"/>
<path d="M9.38749 21.4269C8.80244 21.4269 8.32666 21.9026 8.32666 22.4877V26.2006C8.32666 26.7857 8.80244 27.2614 9.38749 27.2614C9.97254 27.2614 10.4483 26.7857 10.4483 26.2006V22.4877C10.4483 21.9026 9.97254 21.4269 9.38749 21.4269ZM9.91791 26.2006C9.91791 26.4929 9.68028 26.731 9.38749 26.731C9.0947 26.731 8.85708 26.4929 8.85708 26.2006V22.4877C8.85708 22.1954 9.0947 21.9573 9.38749 21.9573C9.68028 21.9573 9.91791 22.1954 9.91791 22.4877V26.2006Z" fill="#808184"/>
<path d="M21.0564 21.4269C20.4714 21.4269 19.9956 21.9026 19.9956 22.4877V26.2006C19.9956 26.7857 20.4714 27.2614 21.0564 27.2614C21.6415 27.2614 22.1173 26.7857 22.1173 26.2006V22.4877C22.1173 21.9026 21.6415 21.4269 21.0564 21.4269ZM21.5869 26.2006C21.5869 26.4929 21.3492 26.731 21.0564 26.731C20.7636 26.731 20.526 26.4929 20.526 26.2006V22.4877C20.526 22.1954 20.7636 21.9573 21.0564 21.9573C21.3492 21.9573 21.5869 22.1954 21.5869 22.4877V26.2006Z" fill="#808184"/>
<path d="M14.8504 19.5704C14.8504 19.0442 14.4218 18.6157 13.8957 18.6157C13.3695 18.6157 12.9409 19.0442 12.9409 19.5704C12.9409 20.0966 13.3695 20.5252 13.8957 20.5252C14.4218 20.5252 14.8504 20.0966 14.8504 19.5704ZM13.4713 19.5704C13.4713 19.3365 13.6612 19.1461 13.8957 19.1461C14.1301 19.1461 14.32 19.3365 14.32 19.5704C14.32 19.8043 14.1296 19.9947 13.8957 19.9947C13.6618 19.9947 13.4713 19.8043 13.4713 19.5704Z" fill="#808184"/>
<path d="M17.5028 19.5704C17.5028 19.0442 17.0742 18.6157 16.548 18.6157C16.0218 18.6157 15.5933 19.0442 15.5933 19.5704C15.5933 20.0966 16.0218 20.5252 16.548 20.5252C17.0742 20.5252 17.5028 20.0966 17.5028 19.5704ZM16.1237 19.5704C16.1237 19.3365 16.3136 19.1461 16.548 19.1461C16.7825 19.1461 16.9723 19.3365 16.9723 19.5704C16.9723 19.8043 16.7819 19.9947 16.548 19.9947C16.3141 19.9947 16.1237 19.8043 16.1237 19.5704Z" fill="#808184"/>
<path d="M25.4405 6.10352e-05H4.74315C2.12493 0.00351866 0.00344956 2.12996 0 4.7543V46.2458C0.00344956 48.8702 2.12493 50.9966 4.74315 51.0001H25.4405C28.0587 50.9966 30.1802 48.8702 30.1837 46.2458V4.7543C30.1802 2.12996 28.0587 0.00351866 25.4405 6.10352e-05ZM27.5965 46.2458C27.5948 47.4387 26.6306 48.4051 25.4405 48.4068H4.74315C3.55305 48.4051 2.5889 47.4387 2.58717 46.2458V4.7543C2.5889 3.56142 3.55305 2.59501 4.74315 2.59328H25.4405C26.6306 2.59501 27.5948 3.56142 27.5965 4.7543V46.2458ZM18.5414 42.356H11.6423C10.9282 42.356 10.3487 42.9369 10.3487 43.6526C10.3487 44.3683 10.9282 44.9492 11.6423 44.9492H18.5414C19.2555 44.9492 19.835 44.3683 19.835 43.6526C19.835 42.9369 19.2555 42.356 18.5414 42.356Z" fill="#838C95"/>
</svg>
