<svg width="16" height="16" viewBox="0 0 16 16" fill="none" xmlns="http://www.w3.org/2000/svg">
<path d="M16 8.47672C16 7.17779 15.6661 5.95985 15.0837 4.90471C15.6488 3.84375 16.2234 2.18237 15.2703 0.866664C14.2549 -0.535275 11.5072 -0.101466 8.92193 1.20652C8.91546 1.20652 8.90874 1.20601 8.90231 1.20601C5.80099 1.20601 3.16568 3.2447 2.19955 6.08411C3.09737 5.33135 4.13796 4.54171 5.07687 4.03466C2.52949 6.64952 1.2063 8.86754 0.212269 12.0779C-0.625857 14.7857 0.980457 17.557 5.70015 14.965C6.66221 15.4643 7.74984 15.7472 8.90228 15.7472C12.0323 15.7472 14.6873 13.671 15.6308 10.79H11.7608C11.2462 11.8557 10.1741 12.5875 8.93534 12.5875C7.1954 12.5875 5.78456 11.1429 5.78456 9.36031H15.9457C15.9801 9.07055 16 8.77579 16 8.47672ZM1.87852 14.4491C1.37786 13.6944 1.99496 12.304 2.51496 11.5642C3.02262 12.8403 3.75883 13.6894 4.77118 14.3719C3.79565 15.0914 2.43027 15.2803 1.87852 14.4491ZM5.7964 7.28768C5.93112 5.63209 7.28468 4.33207 8.93534 4.33207C10.5857 4.33207 11.939 5.63209 12.074 7.28768H5.7964ZM14.3899 3.8699C13.8258 3.16593 13.1364 2.57264 12.3553 2.12561C13.0111 1.73175 14.0882 1.31392 14.6822 1.64609C14.7556 1.69568 14.8266 1.75102 14.8922 1.82074C15.3227 2.34428 14.7621 3.3295 14.3899 3.8699Z" fill="#4493F8"/>
</svg>
