<svg width="22" height="22" viewBox="0 0 22 22" fill="none" xmlns="http://www.w3.org/2000/svg">
<path fill-rule="evenodd" clip-rule="evenodd" d="M2.65628 3.83226C7.76985 -2.11911 17.2513 -0.944341 20.7959 6.00747C18.3008 6.00838 14.3936 6.00672 12.2774 6.00747C10.7426 6.008 9.75162 5.97312 8.67847 6.53806C7.41684 7.20217 6.46491 8.4332 6.13261 9.87912L2.65628 3.83226Z" fill="#EA4335"/>
<path fill-rule="evenodd" clip-rule="evenodd" d="M7.34043 10.9996C7.34043 13.0166 8.98045 14.6575 10.9963 14.6575C13.0122 14.6575 14.6522 13.0166 14.6522 10.9996C14.6522 8.98265 13.0122 7.34167 10.9963 7.34167C8.98045 7.34167 7.34043 8.98265 7.34043 10.9996Z" fill="#4285F4"/>
<path fill-rule="evenodd" clip-rule="evenodd" d="M12.4152 15.7876C10.3632 16.3974 7.96187 15.7211 6.64651 13.4507C5.64246 11.7176 2.98964 7.09606 1.78386 4.99464C-2.43919 11.4673 1.20049 20.2878 8.86712 21.7932L12.4152 15.7876Z" fill="#34A853"/>
<path fill-rule="evenodd" clip-rule="evenodd" d="M14.3924 7.34167C16.1015 8.93125 16.4738 11.5052 15.3161 13.501C14.4439 15.0047 11.6602 19.703 10.311 21.9782C18.21 22.4651 23.9683 14.7234 21.3674 7.34167H14.3924Z" fill="#FBBC05"/>
</svg>
