<svg width="28" height="24" viewBox="0 0 28 24" fill="none" xmlns="http://www.w3.org/2000/svg">
<path fill-rule="evenodd" clip-rule="evenodd" d="M1.26818 8.87726C1.96858 8.87726 2.53636 9.44504 2.53636 10.1454V20.2909C2.53636 20.4031 2.58095 20.5106 2.66009 20.5897C2.7395 20.6691 2.8471 20.7136 2.95909 20.7136H24.9409C25.0529 20.7136 25.1606 20.6691 25.2398 20.5898C25.3191 20.5105 25.3636 20.4029 25.3636 20.2909V10.1454C25.3636 9.44504 25.9314 8.87726 26.6318 8.87726C27.3322 8.87726 27.9 9.44504 27.9 10.1454V20.2909C27.9 21.0757 27.5881 21.8284 27.0333 22.3833C26.4785 22.9381 25.7257 23.25 24.9409 23.25H2.95909C2.17415 23.25 1.42159 22.9381 0.866786 22.3834L1.76344 21.4865L0.866783 22.3834C0.311713 21.8284 0 21.0756 0 20.2909V10.1454C0 9.44504 0.567784 8.87726 1.26818 8.87726Z" fill="#4493F8"/>
<path fill-rule="evenodd" clip-rule="evenodd" d="M13.1049 0C13.8053 0 14.3731 0.567784 14.3731 1.26818V14.1393C14.3731 14.8397 13.8053 15.4074 13.1049 15.4074C12.4045 15.4074 11.8368 14.8397 11.8368 14.1393V1.26818C11.8368 0.567784 12.4045 0 13.1049 0Z" fill="#4493F8"/>
<path fill-rule="evenodd" clip-rule="evenodd" d="M6.62535 10.6139C7.06707 10.0703 7.86578 9.98778 8.40933 10.4295L13.1053 14.2457L17.8006 10.4295C18.3441 9.9878 19.1428 10.0703 19.5846 10.6138C20.0263 11.1573 19.9438 11.9561 19.4003 12.3978L13.9052 16.864C13.4392 17.2427 12.7715 17.2427 12.3055 16.864L6.80974 12.3979C6.26619 11.9561 6.18364 11.1574 6.62535 10.6139Z" fill="#4493F8"/>
</svg>
