<svg width="22" height="22" viewBox="0 0 22 22" fill="none" xmlns="http://www.w3.org/2000/svg">
<path d="M17.1252 2.03811C16.5949 2.65949 16.3464 4.05137 16.8849 5.46811C17.4234 6.88485 18.2519 6.5783 18.7656 8.01989C19.445 9.92545 19.1301 12.4855 19.1301 12.4855C19.1301 12.4855 19.9504 14.855 20.522 12.3364C21.7896 7.60564 17.1252 3.2063 17.1252 2.03811Z" fill="url(#paint0_radial_432_42)"/>
<path d="M10.6302 21.6819C16.09 21.6819 20.5059 17.2411 20.5059 11.7564C20.5059 6.27175 16.0817 1.83927 10.6302 1.83927C5.17862 1.83927 0.762707 6.28004 0.762707 11.7564C0.754422 17.2411 5.17862 21.6819 10.6302 21.6819Z" fill="url(#paint1_radial_432_42)"/>
<path d="M18.0282 17.8791C17.8128 18.0282 17.5891 18.1607 17.3571 18.285C17.6636 17.8293 17.9536 17.3654 18.2104 16.8849C18.4176 16.6529 18.6164 16.4292 18.7738 16.1806C18.8484 16.0564 18.9395 15.9155 19.0307 15.7415C19.5858 14.739 20.1988 13.1235 20.2154 11.4665V11.3422C20.2154 10.9279 20.174 10.5054 20.0911 10.0994C20.0994 10.1326 20.0994 10.1657 20.1077 10.1989C20.0994 10.174 20.0994 10.1491 20.0911 10.1243C20.0994 10.1657 20.1077 10.2154 20.116 10.2568C20.232 11.2179 20.1491 12.1541 19.7432 12.8501C19.7349 12.8583 19.7266 12.8666 19.7266 12.8832C19.9337 11.831 20.0083 10.6711 19.7763 9.5112C19.7763 9.5112 19.6852 8.94781 18.9892 7.23282C18.5916 6.2469 17.879 5.43497 17.2577 4.84673C16.7109 4.16736 16.2055 3.71169 15.9321 3.42171C15.3604 2.8169 15.1201 2.36123 15.0207 2.07125C14.9379 2.02983 13.836 0.961061 13.7531 0.919636C13.2726 1.66529 11.773 3.98509 12.4855 6.14748C12.8086 7.1334 13.6288 8.15245 14.4905 8.72412C14.5319 8.76554 15.0041 9.27921 15.2278 10.4391C15.4598 11.6404 15.3355 12.5684 14.8633 13.952C14.2999 15.1616 12.8583 16.3629 11.5079 16.4872C8.62468 16.7523 7.5642 15.0373 7.5642 15.0373C8.59154 15.4515 9.73488 15.3604 10.4308 14.9379C11.1268 14.5071 11.5493 14.1839 11.8973 14.3082C12.2369 14.4325 12.5021 14.068 12.2618 13.6868C11.8807 13.0986 11.1848 12.8003 10.4971 12.9163C9.80116 13.0323 9.15492 13.5874 8.24357 13.0489C8.18558 13.0158 8.12758 12.9743 8.06959 12.9329C8.01159 12.8915 8.26843 12.9909 8.20215 12.9495C8.02816 12.8501 7.70505 12.6429 7.63048 12.5684C7.61391 12.5518 7.77133 12.6181 7.75476 12.6015C6.9014 11.8973 7.00911 11.4167 7.03396 11.1185C7.05882 10.8782 7.20795 10.5717 7.47307 10.4474C7.59734 10.5137 7.68019 10.5717 7.68019 10.5717C7.68019 10.5717 7.6222 10.464 7.59734 10.406C7.60563 10.3977 7.61391 10.406 7.63048 10.3977C7.73819 10.4474 7.96188 10.58 8.08616 10.6545C8.24357 10.7622 8.29328 10.8617 8.29328 10.8617C8.29328 10.8617 8.33471 10.8368 8.30157 10.7457C8.29328 10.7042 8.24357 10.58 8.08616 10.4557H8.09444C8.18558 10.5054 8.27671 10.5717 8.35956 10.638C8.40099 10.4805 8.48384 10.3148 8.46727 10.0166C8.45898 9.80946 8.45898 9.75146 8.42584 9.66861C8.3927 9.60233 8.44241 9.56919 8.50041 9.64375C8.49212 9.58576 8.47555 9.52777 8.4507 9.47806V9.46977C8.52526 9.22122 9.96686 8.5667 10.0746 8.49214C10.2485 8.36786 10.3894 8.21045 10.4971 8.02818C10.5799 7.9039 10.6379 7.72163 10.6545 7.44823C10.6628 7.24939 10.5717 7.11683 9.10522 6.9677C8.70753 6.92627 8.46727 6.6363 8.33471 6.37117C8.30985 6.31318 8.285 6.26347 8.26014 6.20547C8.23529 6.14748 8.21872 6.0812 8.20215 6.01492C8.44241 5.32726 8.84009 4.74731 9.43661 4.30821C9.46976 4.27507 9.30406 4.31649 9.3372 4.28335C9.37862 4.25021 9.61889 4.15079 9.6686 4.12594C9.72659 4.10108 9.42833 3.96852 9.16321 4.00166C8.89809 4.0348 8.84009 4.06794 8.69096 4.12594C8.74896 4.06794 8.93951 3.98509 8.89809 3.99338C8.60811 4.0348 8.25186 4.20879 7.94531 4.39934C7.94531 4.3662 7.9536 4.33306 7.96188 4.29992C7.82104 4.35792 7.46478 4.60647 7.36536 4.81359C7.37365 4.77217 7.37365 4.73074 7.37365 4.68932C7.26594 4.78045 7.16652 4.87987 7.08367 4.99586L7.03396 5.01243C6.20546 4.68103 5.46809 4.65618 4.855 4.80531C4.72244 4.67275 4.65616 4.77217 4.34133 4.0928C4.31648 4.05137 4.3579 4.13422 4.34133 4.0928C4.29162 3.96024 4.37447 4.26678 4.34133 4.0928C3.82766 4.50705 3.14829 4.97101 2.81689 5.29412C2.81689 5.31069 3.198 5.18642 2.81689 5.29412C2.68433 5.33555 2.69262 5.41011 2.67605 6.13091C2.66776 6.1889 2.67605 6.2469 2.66776 6.29661C2.40264 6.62801 2.22865 6.9097 2.16237 7.05883C1.82269 7.63878 1.44986 8.55013 1.09361 9.98344C1.25102 9.59404 1.44158 9.22122 1.66527 8.86496C1.36701 9.62718 1.07704 10.8285 1.01904 12.6678C1.09361 12.2867 1.18474 11.9138 1.30073 11.541C1.22617 13.0738 1.49129 14.5982 2.07124 16.0149C2.27836 16.5203 2.61805 17.2908 3.20629 18.1359C5.04556 20.0663 7.63048 21.2676 10.4971 21.2676C13.488 21.2676 16.1806 19.9586 18.0282 17.8791Z" fill="url(#paint2_linear_432_42)"/>
<path d="M15.808 19.2792C19.4286 18.8567 21.0359 15.1284 18.9729 15.0539C17.1171 14.9959 14.093 19.4781 15.808 19.2792Z" fill="url(#paint3_radial_432_42)"/>
<path d="M19.238 14.2916C21.7317 12.8418 21.0772 9.71004 21.0772 9.71004C21.0772 9.71004 20.1162 10.8285 19.4617 12.6098C18.8237 14.3745 17.7384 15.1699 19.238 14.2916Z" fill="url(#paint4_radial_432_42)"/>
<path d="M11.3259 21.1351C14.8056 22.2453 17.7882 19.5029 15.9489 18.5916C14.2753 17.7713 9.67716 20.6131 11.3259 21.1351Z" fill="url(#paint5_radial_432_42)"/>
<path d="M19.5029 15.6255C19.5858 15.5095 19.7018 15.1284 19.8012 14.9544C20.4143 13.9602 20.4226 13.1732 20.4226 13.1566C20.7954 11.309 20.7622 10.5468 20.5303 9.15494C20.348 8.02818 19.5443 6.4126 18.8484 5.64209C18.1359 4.83845 18.633 5.10357 17.9453 4.51533C17.3405 3.84425 16.744 3.17316 16.4292 2.90804C14.1094 0.969347 14.1591 0.555097 14.2088 0.488817C14.2005 0.497102 14.1922 0.505387 14.1757 0.521957C14.1508 0.414251 14.1259 0.323116 14.1259 0.323116C14.1259 0.323116 12.8501 1.58244 12.5849 3.69512C12.4109 5.07043 12.9246 6.51202 13.6786 7.43166C14.0679 7.91219 14.5071 8.34301 14.9876 8.72412C15.551 9.53605 15.8658 10.5385 15.8658 11.6156C15.8658 14.3165 13.6786 16.4955 10.9776 16.4955C10.6131 16.4955 10.2403 16.454 9.88402 16.3712C8.60813 16.1309 7.87905 15.4847 7.50622 15.0456C7.2991 14.797 7.20796 14.6148 7.20796 14.6148C8.35129 15.0207 9.61061 14.9379 10.3811 14.5153C11.1516 14.0845 11.6239 13.7697 12.005 13.894C12.3778 14.0182 12.6761 13.6537 12.4109 13.2809C12.1458 12.9081 11.4665 12.3695 10.4557 12.5187C9.68518 12.6346 8.97267 13.1815 7.9619 12.6512C7.89562 12.6181 7.82934 12.5766 7.77134 12.5435C7.70506 12.5021 7.98675 12.6015 7.92047 12.5601C7.72163 12.4607 7.37366 12.2535 7.28253 12.179C7.26596 12.1624 7.43166 12.2287 7.42337 12.2121C6.47888 11.5162 6.59487 11.0439 6.61972 10.7457C6.64458 10.5054 6.81857 10.2071 7.10854 10.0829C7.24939 10.1491 7.33224 10.2071 7.33224 10.2071C7.33224 10.2071 7.27424 10.0994 7.2411 10.0414C7.24939 10.0331 7.26596 10.0414 7.27424 10.0332C7.39023 10.0829 7.64707 10.2071 7.77963 10.29C7.95361 10.3977 8.01161 10.4971 8.01161 10.4971C8.01161 10.4971 8.06132 10.4723 8.01989 10.3811C8.00332 10.3397 7.95361 10.2154 7.77963 10.0911H7.78791C7.88733 10.1409 7.98675 10.2071 8.07789 10.2734C8.1276 10.116 8.21045 9.9503 8.19388 9.65204C8.18559 9.44491 8.18559 9.38692 8.14417 9.31235C8.11103 9.24607 8.16074 9.21293 8.22702 9.2875C8.21873 9.2295 8.19388 9.17979 8.16902 9.1218V9.11351C8.25187 8.86496 9.85088 8.21873 9.96687 8.14417C10.1574 8.02818 10.3148 7.87076 10.4391 7.68849C10.5303 7.56422 10.5965 7.38195 10.6131 7.10854C10.6214 6.98427 10.58 6.89313 10.1574 6.79371C9.90059 6.73572 9.51119 6.68601 8.8981 6.62801C8.459 6.58659 8.19388 6.30489 8.04475 6.03977C8.01989 5.98178 7.98675 5.93207 7.9619 5.88236C7.93704 5.82436 7.91219 5.75808 7.89562 5.70009C8.16074 5.00415 8.64127 4.41591 9.26264 4.00995C9.29578 3.97681 9.1218 4.01823 9.15494 3.98509C9.19636 3.95195 9.46977 3.85253 9.51948 3.82768C9.58576 3.80282 9.25436 3.67855 8.9561 3.7034C8.65784 3.73654 8.59984 3.7614 8.43414 3.82768C8.50042 3.76968 8.70755 3.69512 8.65784 3.69512C8.35958 3.72826 7.9619 3.89396 7.62221 4.08451C7.62221 4.05137 7.6305 4.01823 7.63878 3.98509C7.48137 4.04309 7.09197 4.29164 6.97598 4.49876C6.98427 4.45734 6.98427 4.41591 6.98427 4.38277C6.86828 4.47391 6.75229 4.57333 6.66115 4.68932L6.65286 4.6976C5.73323 4.3662 4.9213 4.34135 4.24193 4.49048C4.0928 4.35792 3.85253 4.15079 3.51285 3.47971C3.48799 3.43828 3.47971 3.56256 3.46314 3.52113C3.33058 3.21459 3.24772 2.7092 3.26429 2.36123C3.26429 2.36123 2.99089 2.4855 2.76719 3.00746C2.72577 3.0986 2.70091 3.15659 2.66777 3.2063C2.6512 3.22287 2.69263 3.03232 2.69263 3.04889C2.6512 3.11517 2.55178 3.2063 2.51036 3.33058C2.47722 3.42171 2.43579 3.47142 2.41094 3.57913L2.40265 3.58741C2.40265 3.55427 2.41094 3.45485 2.40265 3.47142C2.29495 3.68683 2.20381 3.91053 2.12925 4.13422C2.00497 4.5319 1.86413 5.07871 1.83927 5.79122C1.83099 5.84093 1.83927 5.90721 1.83099 5.95692C1.54101 6.28832 1.34217 6.57002 1.26761 6.71086C0.894781 7.29081 0.480531 8.18559 0.0828501 9.61061C0.256835 9.22122 0.472246 8.84839 0.720796 8.50042C0.389396 9.25436 0.0662801 10.4474 0 12.2701C0.0828501 11.889 0.18227 11.5162 0.306545 11.1516C0.24855 12.3695 0.389396 13.8857 1.1599 15.5924C1.61558 16.5949 2.66777 18.633 5.24441 20.2237C5.24441 20.2237 6.12262 20.8782 7.62221 21.367C7.72992 21.4085 7.84591 21.4499 7.9619 21.483C7.92876 21.4665 7.88733 21.4499 7.85419 21.4416C8.85668 21.7399 9.8923 21.8973 10.9445 21.8973C14.8385 21.8973 15.9901 20.3314 15.9901 20.3314L15.9818 20.3397C16.0398 20.29 16.0895 20.232 16.1392 20.1823C15.5261 20.7622 14.1177 20.8037 13.5957 20.7622C14.4905 20.4971 15.0787 20.2734 16.2221 19.8426C16.3546 19.7929 16.4955 19.7349 16.6363 19.6686L16.6777 19.6438C16.7026 19.6272 16.7357 19.6189 16.7606 19.6023C17.3157 19.3372 17.8459 19.0141 18.3264 18.6247C19.4781 17.7051 19.7266 16.8103 19.8592 16.2221C19.8426 16.2801 19.7846 16.4126 19.7432 16.4955C19.4449 17.1251 18.7904 17.5228 18.0779 17.8542C18.4176 17.4068 18.7324 16.9429 19.0224 16.4623C19.2544 16.2303 19.3206 15.8658 19.5029 15.6255Z" fill="url(#paint6_radial_432_42)"/>
<path d="M18.1027 17.8211C18.575 17.3074 18.9892 16.7109 19.3123 16.0398C20.1325 14.3165 21.4002 11.4416 20.406 8.45071C19.6189 6.0812 18.5335 4.78874 17.1582 3.52113C14.9213 1.46645 14.2999 0.546811 14.2999 0C14.2999 0 11.715 2.8749 12.8335 5.88236C13.9519 8.88982 16.2469 8.77383 17.763 11.9056C19.5526 15.5924 16.3214 19.6189 13.6454 20.7457C13.8111 20.7125 19.5857 19.4035 19.8923 16.0978C19.8757 16.1558 19.7432 17.0754 18.1027 17.8211Z" fill="url(#paint7_radial_432_42)"/>
<path d="M10.6128 7.10854C10.6211 6.9097 10.5217 6.78542 8.90607 6.62801C8.24327 6.57001 7.98644 5.95692 7.91187 5.6918C7.67989 6.30489 7.58047 6.95113 7.63018 7.72992C7.66332 8.24359 8.01129 8.7904 8.16871 9.10523C8.16871 9.10523 8.20185 9.05552 8.21842 9.03895C8.52496 8.71583 9.81742 8.22702 9.9417 8.16074C10.0825 8.07789 10.5962 7.70506 10.6128 7.10854Z" fill="url(#paint8_linear_432_42)"/>
<path d="M3.51293 3.47971C3.48807 3.43828 3.47979 3.56256 3.46322 3.52113C3.33065 3.21459 3.2478 2.71748 3.27266 2.36123C3.27266 2.36123 2.99925 2.4855 2.77556 3.00746C2.73413 3.09859 2.70928 3.15659 2.67614 3.2063C2.65957 3.22287 2.70099 3.03231 2.70099 3.04888C2.65957 3.11516 2.56015 3.2063 2.51872 3.32229C2.48558 3.41343 2.44416 3.47142 2.4193 3.58741C2.41102 3.62055 2.42759 3.44657 2.4193 3.47142C1.88906 4.49048 1.78964 6.03149 1.84764 5.96521C2.9744 4.76388 4.25858 4.48219 4.25858 4.48219C4.10116 4.38277 3.8029 4.08451 3.51293 3.47971Z" fill="url(#paint9_linear_432_42)"/>
<path d="M7.77102 16.0232C6.22172 15.3604 4.45702 14.4242 4.5233 12.3032C4.61443 9.5112 7.13307 10.058 7.13307 10.058C7.04194 10.0829 6.7851 10.2651 6.69397 10.4557C6.60283 10.696 6.42885 11.2428 6.9508 11.8144C7.77931 12.7092 5.25238 13.9354 9.14633 16.2552C9.24575 16.3049 8.23498 16.2221 7.77102 16.0232Z" fill="url(#paint10_linear_432_42)"/>
<path d="M7.2239 14.6313C8.32581 15.0125 9.6017 14.9462 10.3722 14.5236C10.8859 14.2337 11.5487 13.778 11.9464 13.894C11.5984 13.7531 11.3333 13.6869 11.0102 13.6786C10.9522 13.6786 10.8942 13.6786 10.8362 13.6703C10.7202 13.6703 10.6042 13.6786 10.4882 13.6869C10.2894 13.7034 10.0739 13.8277 9.8751 13.8111C9.86682 13.8111 10.0657 13.7283 10.0491 13.7283C9.94138 13.7531 9.82539 13.7531 9.7094 13.7697C9.63484 13.778 9.56856 13.7863 9.48571 13.7946C7.19076 13.9851 5.26035 12.5518 5.26035 12.5518C5.09465 13.0986 5.99772 14.2005 7.2239 14.6313Z" fill="url(#paint11_linear_432_42)"/>
<path d="M18.0942 17.8376C20.414 15.5593 21.5822 12.8003 21.0851 9.69346C21.0851 9.69346 21.2839 11.2842 20.53 12.908C20.8945 11.3173 20.9359 9.34549 19.9749 7.29909C18.699 4.57332 16.5946 3.13173 15.7909 2.53521C14.573 1.62386 14.0677 0.704223 14.0594 0.513668C13.6948 1.25932 12.5929 3.8111 13.9434 6.00663C15.2027 8.0696 17.1911 8.67441 18.5747 10.5634C21.1431 14.0514 18.0942 17.8376 18.0942 17.8376Z" fill="url(#paint12_linear_432_42)"/>
<path d="M17.7631 11.9139C16.9511 10.2403 15.9404 9.5112 14.9876 8.72412C15.0953 8.88154 15.1284 8.93125 15.1864 9.03895C16.0315 9.93373 17.266 12.121 16.3712 14.8716C14.6728 20.0414 7.89562 17.6057 7.18311 16.9263C7.47308 19.9172 12.4772 21.3505 15.7415 19.4118C17.5891 17.6388 19.0887 14.6562 17.7631 11.9139Z" fill="url(#paint13_linear_432_42)"/>
<defs>
<radialGradient id="paint0_radial_432_42" cx="0" cy="0" r="1" gradientUnits="userSpaceOnUse" gradientTransform="translate(20.8067 6.76144) rotate(2.26042) scale(7.62962 11.2456)">
<stop offset="0.1" stop-color="#FFEA00"/>
<stop offset="0.17" stop-color="#FFDE00"/>
<stop offset="0.28" stop-color="#FFBF00"/>
<stop offset="0.43" stop-color="#FF8E00"/>
<stop offset="0.77" stop-color="#FF272D"/>
<stop offset="0.87" stop-color="#E0255A"/>
<stop offset="0.95" stop-color="#CC2477"/>
<stop offset="1" stop-color="#C42482"/>
</radialGradient>
<radialGradient id="paint1_radial_432_42" cx="0" cy="0" r="1" gradientUnits="userSpaceOnUse" gradientTransform="translate(13.8786 3.38658) scale(21.6519 21.6519)">
<stop stop-color="#00CCDA"/>
<stop offset="0.22" stop-color="#0083FF"/>
<stop offset="0.26" stop-color="#007AF9"/>
<stop offset="0.33" stop-color="#005FE7"/>
<stop offset="0.44" stop-color="#2639AD"/>
<stop offset="0.52" stop-color="#401E84"/>
<stop offset="0.57" stop-color="#4A1475"/>
</radialGradient>
<linearGradient id="paint2_linear_432_42" x1="12.0251" y1="16.2209" x2="7.76607" y2="2.28905" gradientUnits="userSpaceOnUse">
<stop stop-color="#000F43" stop-opacity="0.4"/>
<stop offset="0.48" stop-color="#001962" stop-opacity="0.17"/>
<stop offset="1" stop-color="#002079" stop-opacity="0"/>
</linearGradient>
<radialGradient id="paint3_radial_432_42" cx="0" cy="0" r="1" gradientUnits="userSpaceOnUse" gradientTransform="translate(21.4755 14.5664) rotate(5.61742) scale(7.27857)">
<stop stop-color="#FFEA00"/>
<stop offset="0.5" stop-color="#FF272D"/>
<stop offset="1" stop-color="#C42482"/>
</radialGradient>
<radialGradient id="paint4_radial_432_42" cx="0" cy="0" r="1" gradientUnits="userSpaceOnUse" gradientTransform="translate(21.5031 7.55634) rotate(5.61742) scale(12.1545 12.1545)">
<stop stop-color="#FFE900"/>
<stop offset="0.16" stop-color="#FFAF0E"/>
<stop offset="0.32" stop-color="#FF7A1B"/>
<stop offset="0.47" stop-color="#FF4E26"/>
<stop offset="0.62" stop-color="#FF2C2E"/>
<stop offset="0.76" stop-color="#FF1434"/>
<stop offset="0.89" stop-color="#FF0538"/>
<stop offset="1" stop-color="#FF0039"/>
</radialGradient>
<radialGradient id="paint5_radial_432_42" cx="0" cy="0" r="1" gradientUnits="userSpaceOnUse" gradientTransform="translate(22.1113 18.9376) rotate(5.61743) scale(11.1531 11.1531)">
<stop stop-color="#FF272D"/>
<stop offset="0.5" stop-color="#C42482"/>
<stop offset="0.99" stop-color="#620700"/>
</radialGradient>
<radialGradient id="paint6_radial_432_42" cx="0" cy="0" r="1" gradientUnits="userSpaceOnUse" gradientTransform="translate(15.9029 8.76612) scale(17.4015)">
<stop offset="0.16" stop-color="#FFEA00"/>
<stop offset="0.23" stop-color="#FFDE00"/>
<stop offset="0.37" stop-color="#FFBF00"/>
<stop offset="0.54" stop-color="#FF8E00"/>
<stop offset="0.76" stop-color="#FF272D"/>
<stop offset="0.8" stop-color="#F92433"/>
<stop offset="0.84" stop-color="#E91C45"/>
<stop offset="0.89" stop-color="#CF0E62"/>
<stop offset="0.94" stop-color="#B5007F"/>
</radialGradient>
<radialGradient id="paint7_radial_432_42" cx="0" cy="0" r="1" gradientUnits="userSpaceOnUse" gradientTransform="translate(14.9051 0.695833) scale(19.8325 19.8325)">
<stop offset="0.28" stop-color="#FFEA00"/>
<stop offset="0.4" stop-color="#FFDD00"/>
<stop offset="0.63" stop-color="#FFBA00"/>
<stop offset="0.86" stop-color="#FF9100"/>
<stop offset="0.93" stop-color="#FF6711"/>
<stop offset="0.99" stop-color="#FF4A1D"/>
</radialGradient>
<linearGradient id="paint8_linear_432_42" x1="3.29674" y1="8.12292" x2="11.839" y2="6.81848" gradientUnits="userSpaceOnUse">
<stop stop-color="#C42482" stop-opacity="0.5"/>
<stop offset="0.47" stop-color="#FF272D" stop-opacity="0.5"/>
<stop offset="0.49" stop-color="#FF2C2C" stop-opacity="0.51"/>
<stop offset="0.68" stop-color="#FF7A1A" stop-opacity="0.72"/>
<stop offset="0.83" stop-color="#FFB20D" stop-opacity="0.87"/>
<stop offset="0.94" stop-color="#FFD605" stop-opacity="0.96"/>
<stop offset="1" stop-color="#FFE302"/>
</linearGradient>
<linearGradient id="paint9_linear_432_42" x1="3.23284" y1="5.88286" x2="2.34208" y2="2.68131" gradientUnits="userSpaceOnUse">
<stop stop-color="#891551" stop-opacity="0.6"/>
<stop offset="1" stop-color="#C42482" stop-opacity="0"/>
</linearGradient>
<linearGradient id="paint10_linear_432_42" x1="4.85849" y1="10.3817" x2="6.69345" y2="12.9451" gradientUnits="userSpaceOnUse">
<stop offset="0.01" stop-color="#891551" stop-opacity="0.5"/>
<stop offset="0.48" stop-color="#FF272D" stop-opacity="0.5"/>
<stop offset="1" stop-color="#FF272D" stop-opacity="0"/>
</linearGradient>
<linearGradient id="paint11_linear_432_42" x1="8.43395" y1="14.8444" x2="8.60186" y2="13.1975" gradientUnits="userSpaceOnUse">
<stop stop-color="#C42482"/>
<stop offset="0.08" stop-color="#C42482" stop-opacity="0.81"/>
<stop offset="0.21" stop-color="#C42482" stop-opacity="0.57"/>
<stop offset="0.33" stop-color="#C42482" stop-opacity="0.36"/>
<stop offset="0.45" stop-color="#C42482" stop-opacity="0.2"/>
<stop offset="0.56" stop-color="#C42482" stop-opacity="0.09"/>
<stop offset="0.67" stop-color="#C42482" stop-opacity="0.02"/>
<stop offset="0.77" stop-color="#C42482" stop-opacity="0"/>
</linearGradient>
<linearGradient id="paint12_linear_432_42" x1="13.7935" y1="0.804779" x2="20.5936" y2="16.0105" gradientUnits="userSpaceOnUse">
<stop stop-color="#FFF14F"/>
<stop offset="0.27" stop-color="#FFEE4C"/>
<stop offset="0.45" stop-color="#FFE643"/>
<stop offset="0.61" stop-color="#FFD834"/>
<stop offset="0.76" stop-color="#FFC41E"/>
<stop offset="0.89" stop-color="#FFAB02"/>
<stop offset="0.9" stop-color="#FFA900"/>
<stop offset="0.95" stop-color="#FFA000"/>
<stop offset="1" stop-color="#FF9100"/>
</linearGradient>
<linearGradient id="paint13_linear_432_42" x1="15.144" y1="9.55043" x2="11.9231" y2="18.199" gradientUnits="userSpaceOnUse">
<stop stop-color="#FF8E00"/>
<stop offset="0.04" stop-color="#FF8E00" stop-opacity="0.86"/>
<stop offset="0.08" stop-color="#FF8E00" stop-opacity="0.73"/>
<stop offset="0.13" stop-color="#FF8E00" stop-opacity="0.63"/>
<stop offset="0.18" stop-color="#FF8E00" stop-opacity="0.56"/>
<stop offset="0.23" stop-color="#FF8E00" stop-opacity="0.51"/>
<stop offset="0.28" stop-color="#FF8E00" stop-opacity="0.5"/>
<stop offset="0.39" stop-color="#FF8E00" stop-opacity="0.48"/>
<stop offset="0.52" stop-color="#FF8E00" stop-opacity="0.42"/>
<stop offset="0.68" stop-color="#FF8E00" stop-opacity="0.31"/>
<stop offset="0.84" stop-color="#FF8E00" stop-opacity="0.17"/>
<stop offset="1" stop-color="#FF8E00" stop-opacity="0"/>
</linearGradient>
</defs>
</svg>
