<svg width="24" height="23" viewBox="0 0 24 23" fill="none" xmlns="http://www.w3.org/2000/svg">
<path d="M21.8837 8.5424H23.2056V0.611237H15.2744V1.9331H20.949L14.3114 8.57077L15.246 9.50541L21.8837 2.86778V8.5424Z" fill="#4493F8"/>
<path fill-rule="evenodd" clip-rule="evenodd" d="M21.2722 9.15358V4.34327L15.2457 10.3697L13.4467 8.5708L19.4732 2.54428H14.6629V9.15527e-05H23.8164V9.15358H21.2722ZM20.9487 1.93312L14.3111 8.57079L15.2457 9.50543L21.8834 2.8678V8.54242H23.2052V0.611257H15.2741V1.93312H20.9487Z" fill="#4493F8"/>
<path d="M9.35889 1.93303L9.35889 0.611175L1.42773 0.611176L1.42774 8.54233L2.74959 8.54233L2.74959 2.86771L9.38727 9.50535L10.3219 8.57071L3.68427 1.93304L9.35889 1.93303Z" fill="#4493F8"/>
<path fill-rule="evenodd" clip-rule="evenodd" d="M9.9699 2.54419L5.15959 2.54419L11.1861 8.5707L9.38711 10.3697L3.3606 4.34318L3.3606 9.15349L0.816407 9.15349L0.816406 0L9.9699 -7.71582e-07L9.9699 2.54419ZM2.74943 2.8677L9.38711 9.50534L10.3217 8.5707L3.68411 1.93303L9.35873 1.93302L9.35873 0.611165L1.42757 0.611166L1.42757 8.54232L2.74943 8.54232L2.74943 2.8677Z" fill="#4493F8"/>
<path d="M9.35906 21.0669H3.68444L10.4873 14.264L9.55267 13.3293L2.74976 20.1322V14.4576H1.4279V22.3887H9.35906V21.0669Z" fill="#4493F8"/>
<path fill-rule="evenodd" clip-rule="evenodd" d="M9.96967 20.4557V22.9999H0.816185V13.8464H3.36038V18.6567L9.55212 12.465L11.3511 14.2639L5.15937 20.4557H9.96967ZM3.68389 21.0668L10.4868 14.2639L9.55212 13.3293L2.74921 20.1322V14.4575H1.42735V22.3887H9.35851V21.0668H3.68389Z" fill="#4493F8"/>
<path d="M21.8835 14.4577L21.8835 20.1323L15.0806 13.3294L14.146 14.264L20.9489 21.067L15.2742 21.067L15.2742 22.3888L23.2054 22.3888L23.2054 14.4577L21.8835 14.4577Z" fill="#4493F8"/>
<path fill-rule="evenodd" clip-rule="evenodd" d="M21.2724 13.8465L23.8166 13.8465L23.8166 23L14.6631 23L14.6631 20.4558L19.4734 20.4558L13.2817 14.2641L15.0807 12.4651L21.2724 18.6568L21.2724 13.8465ZM21.8836 20.1323L15.0807 13.3294L14.1461 14.2641L20.9489 21.067L15.2743 21.067L15.2743 22.3888L23.2055 22.3888L23.2055 14.4577L21.8836 14.4577L21.8836 20.1323Z" fill="#4493F8"/>
</svg>
