<svg width="28" height="51" viewBox="0 0 28 51" fill="none" xmlns="http://www.w3.org/2000/svg">
<path d="M24.5674 50.0001H3.35778C2.05778 50.0001 1 48.9423 1 47.6428V3.35759C1 2.05759 2.05778 1.00034 3.35778 1.00034H24.5674C25.8674 1.00034 26.9251 2.05759 26.9251 3.35759V47.6428C26.9251 48.9418 25.8674 50.0001 24.5674 50.0001ZM1.52031 47.136V47.6428C1.52031 48.6559 2.3447 49.4803 3.3583 49.4803H24.5679C25.5815 49.4803 26.4059 48.6559 26.4059 47.6428L26.4131 46.6162H1.52915L1.52031 47.136ZM1.52915 46.0964H26.4121V5.35775H1.52915V46.0964ZM1.52915 4.83796H26.4121L26.4048 3.35759C26.4048 2.34452 25.5804 1.52013 24.5668 1.52013H3.35778C2.34418 1.52013 1.51979 2.34452 1.51979 3.35759L1.52915 4.83796Z" fill="#838C95" stroke="#838C95" stroke-width="1.5"/>
<path fill-rule="evenodd" clip-rule="evenodd" d="M17.2583 18.8185L17.2965 19.1619C17.3923 20.0178 17.08 20.9724 16.4625 21.7158C16.4531 21.7261 16.4422 21.7335 16.4336 21.7438C16.5364 21.7401 16.6392 21.7327 16.7459 21.7423C17.2116 21.7607 18.4358 21.9283 19.2364 23.0557L19.4537 23.3623L19.1282 23.5668C18.8478 23.7344 17.9873 24.3382 17.999 25.4706C18.0122 26.9046 19.2364 27.4304 19.3758 27.4856L19.7099 27.6179L19.5978 27.9444C19.5051 28.2268 19.238 28.9497 18.7162 29.6851C18.2186 30.3851 17.6002 31.2573 16.5543 31.2757C16.0606 31.2874 15.7452 31.147 15.4563 31.0271C15.1814 30.9124 14.9454 30.8139 14.5545 30.8139C14.141 30.8139 13.891 30.9161 13.6013 31.0352C13.3295 31.147 13.0211 31.2735 12.5936 31.2904C12.5741 31.2911 12.5546 31.2911 12.5367 31.2911C11.5235 31.2911 10.8195 30.3109 10.3507 29.6586L10.315 29.6083C9.14268 27.9394 8.48716 25.2222 9.56885 23.4123C10.1646 22.4144 11.2486 21.7842 12.3981 21.768C12.8459 21.7621 13.2578 21.8945 13.613 22.0269C13.6737 21.2481 14.0662 20.5216 14.4735 20.0524C15.0654 19.367 16.0598 18.8655 16.8931 18.8332L17.2583 18.8185ZM16.6891 22.4755C16.1821 22.4247 15.6962 22.6137 15.2639 22.7784C14.9376 22.9027 14.6565 23.0093 14.3956 23.0093C14.1729 23.0093 13.9393 22.938 13.6963 22.8483L13.6589 22.8454L13.6573 22.8343C13.606 22.8145 13.5546 22.7953 13.5016 22.7755C13.1605 22.6446 12.7859 22.4733 12.4113 22.5034C11.5368 22.5159 10.7074 23.0027 10.2471 23.7741C9.25033 25.4412 10.0844 27.9775 10.9955 29.2453C11.4799 29.9196 11.9939 30.5859 12.5624 30.5557C12.8443 30.5447 13.0406 30.4638 13.2906 30.3616C13.613 30.2285 13.979 30.0785 14.5545 30.0785C15.1097 30.0785 15.461 30.2248 15.7709 30.3542C16.0271 30.4616 16.2397 30.5521 16.5396 30.5403C17.1337 30.53 17.5488 30.0094 18.069 29.2755C18.4101 28.7953 18.6282 28.3224 18.752 28.0069C18.2248 27.7084 17.2342 26.9517 17.2202 25.4773C17.2085 24.3073 17.8891 23.5631 18.3595 23.1895C17.7723 22.588 17.0154 22.4887 16.6891 22.4755ZM16.5302 19.6281C16.0038 19.7612 15.4384 20.0987 15.077 20.5172L15.0763 20.5179C14.7562 20.8871 14.4159 21.4974 14.3808 22.1254C14.9633 22.0431 15.5178 21.6592 15.8503 21.2614C16.2522 20.7782 16.4928 20.1907 16.5302 19.6281Z" fill="#838C95"/>
</svg>
