<svg width="15" height="16" viewBox="0 0 15 16" fill="none" xmlns="http://www.w3.org/2000/svg">
<path d="M11.356 6.44451V4.88895C11.356 2.74118 9.63591 1.00006 7.51413 1.00006C5.39234 1.00006 3.67229 2.74118 3.67229 4.88895V6.44451M7.51413 9.94451V11.5001M5.05535 15.0001H9.9729C11.2639 15.0001 11.9094 15.0001 12.4025 14.7457C12.8362 14.522 13.1888 14.1651 13.4098 13.726C13.6611 13.2269 13.6611 12.5735 13.6611 11.2667V10.1778C13.6611 8.87105 13.6611 8.21765 13.4098 7.71853C13.1888 7.27948 12.8362 6.92253 12.4025 6.69882C11.9094 6.44451 11.2639 6.44451 9.9729 6.44451H5.05535C3.76437 6.44451 3.11888 6.44451 2.6258 6.69882C2.19206 6.92253 1.83943 7.27948 1.61843 7.71853C1.36719 8.21765 1.36719 8.87105 1.36719 10.1778V11.2667C1.36719 12.5735 1.36719 13.2269 1.61843 13.726C1.83943 14.1651 2.19206 14.522 2.6258 14.7457C3.11888 15.0001 3.76437 15.0001 5.05535 15.0001Z" stroke="#838C95" stroke-width="1.5" stroke-linecap="round" stroke-linejoin="round"/>
</svg>
