<svg width="49" height="50" viewBox="0 0 49 50" fill="none" xmlns="http://www.w3.org/2000/svg">
<path d="M27.4429 18.8151C27.4429 17.1671 28.526 15.72 30.0709 15.2362C29.6255 14.6866 29.0839 14.3558 28.4929 14.273C28.367 14.2373 28.271 14.2244 28.1699 14.2244C27.7515 14.2244 27.1582 14.2896 26.6497 14.4881C26.138 14.6891 25.7226 15.0186 25.3099 15.0186H25.2027L25.1261 14.9399C24.4873 14.3027 23.5618 14.1688 22.8965 14.1688C22.3499 14.1688 21.952 14.2594 21.9005 14.2739L21.8648 14.2925C21.0048 14.4099 20.2596 15.0454 19.7686 16.078C19.2576 17.1488 19.0841 18.507 19.2767 19.9027C19.6631 22.6982 21.4685 24.8538 23.2901 24.5995C23.9315 24.5115 24.5123 24.1344 24.9756 23.5079L25.1844 23.2266L25.3943 23.5051C25.8556 24.1215 26.432 24.4926 27.0646 24.5814C28.2361 24.737 29.4444 23.9059 30.2511 22.4449C28.6025 22.0208 27.4429 20.5457 27.4429 18.8151Z" fill="#838C95"/>
<path d="M28.7573 10.7139C28.265 10.8002 27.3077 11.0519 26.6243 11.7342C25.9377 12.4212 25.6887 13.3756 25.604 13.8682C26.0963 13.7801 27.0512 13.5307 27.7372 12.8479C28.4216 12.1635 28.6706 11.2058 28.7573 10.7139Z" fill="#838C95"/>
<path d="M45.9801 0.949371H3.72329C2.05865 0.949371 0.705078 2.30295 0.705078 3.96759V35.7975C0.705078 37.4605 2.05865 38.8157 3.72329 38.8157H15.6584C16.5439 39.9633 18.3348 42.7216 17.707 44.0308C17.4536 44.5588 16.7642 44.8265 15.6533 44.8265C9.64716 44.8265 9.47443 46.9546 9.47443 47.1987V50H40.2293V46.3374L40.061 46.209C39.9862 46.1521 38.1974 44.8282 33.778 44.8282C32.8122 44.8282 32.62 44.4499 32.558 44.3276C32.0045 43.2478 33.4991 40.4548 34.6469 38.8166H45.9801C47.6458 38.8166 49.0001 37.4622 49.0001 35.7991V3.96759C48.9992 2.30295 47.6456 0.949371 45.9801 0.949371ZM31.7884 44.7178C32.1175 45.3632 32.7866 45.6887 33.778 45.6887C37.1328 45.6887 38.8538 46.4964 39.3689 46.7889V49.139H10.3366L10.3357 47.2175C10.3807 46.7942 11.4231 45.6888 15.6541 45.6888C17.1254 45.6888 18.0781 45.257 18.4862 44.4025C19.2738 42.7557 17.6436 40.098 16.7326 38.8149H33.607C32.7102 40.188 30.9893 43.1585 31.7884 44.7178ZM23.4288 35.6496C23.4288 34.8657 24.0661 34.228 24.8521 34.228C25.6365 34.228 26.274 34.8649 26.274 35.6496C26.274 36.4351 25.6363 37.0728 24.8521 37.0728C24.0661 37.0711 23.4288 36.4351 23.4288 35.6496ZM46.412 32.4272H3.29315V4.08369H46.4121V32.4272H46.412Z" fill="#838C95"/>
</svg>
