<svg width="22" height="22" viewBox="0 0 22 22" fill="none" xmlns="http://www.w3.org/2000/svg">
<path d="M7.38197 4.80393C6.16168 6.23904 5.37965 8.36173 5.32809 10.7422V11.2578C5.37965 13.6383 6.17027 15.7609 7.38197 17.1961C8.96321 19.2414 11.2835 20.1609 13.9046 20.1609C15.5202 20.1609 17.0413 20.0492 18.3303 19.1898C16.3967 20.9344 13.8444 21.9914 11.0429 22H10.9999C4.92419 22 0 17.0758 0 11C0 5.10471 4.64059 0.283566 10.4757 0.008564C10.6476 0 10.828 0 10.9999 0C13.8187 0 16.3882 1.05702 18.3303 2.80154C17.0413 1.94221 15.6061 1.90779 13.9905 1.90779C11.3781 1.89923 8.95464 2.75 7.38197 4.80393Z" fill="url(#paint0_linear_432_85)"/>
<path d="M7.38213 17.1959C8.3876 18.3905 9.69384 19.1038 11.1204 19.1038C14.3258 19.1038 16.9211 15.4772 16.9211 10.9913C16.9211 6.50532 14.3258 2.87878 11.1204 2.87878C9.69384 2.87878 8.39616 3.60061 7.38213 4.78657C8.96337 2.74128 11.3094 1.43503 13.9219 1.43503C15.529 1.43503 17.0415 1.92484 18.3305 2.78426C20.582 4.81234 22 7.74282 22 10.9998C22 14.2569 20.582 17.1873 18.3305 19.1983C17.0415 20.0577 15.5375 20.5475 13.9219 20.5475C11.3008 20.5475 8.9548 19.2498 7.38213 17.1959Z" fill="url(#paint1_linear_432_85)"/>
<defs>
<linearGradient id="paint0_linear_432_85" x1="11.0006" y1="21.6414" x2="11.0006" y2="0.320099" gradientUnits="userSpaceOnUse">
<stop offset="0.3" stop-color="#FF1B2D"/>
<stop offset="0.4381" stop-color="#FA1A2C"/>
<stop offset="0.5939" stop-color="#ED1528"/>
<stop offset="0.7581" stop-color="#D60E21"/>
<stop offset="0.9272" stop-color="#B70519"/>
<stop offset="1" stop-color="#A70014"/>
</linearGradient>
<linearGradient id="paint1_linear_432_85" x1="14.6896" y1="20.3845" x2="14.6896" y2="1.52696" gradientUnits="userSpaceOnUse">
<stop stop-color="#9C0000"/>
<stop offset="0.7" stop-color="#FF4B4B"/>
</linearGradient>
</defs>
</svg>
