<svg width="58" height="49" viewBox="0 0 58 49" fill="none" xmlns="http://www.w3.org/2000/svg">
<path d="M58 0V39.9259H36.25V45.3704H41.6875C42.6885 45.3704 43.5 46.1829 43.5 47.1852C43.5 48.1875 42.6885 49 41.6875 49H16.3125C15.3115 49 14.5 48.1875 14.5 47.1852C14.5 46.1829 15.3115 45.3704 16.3125 45.3704H21.75V39.9259H0V0H58ZM32.625 45.3704V39.9259H25.375V45.3704H32.625ZM54.375 3.62963H3.625V36.2963H54.375V3.62963Z" fill="#838C95"/>
<path fill-rule="evenodd" clip-rule="evenodd" d="M56 13L2 13L2 11L56 11V13Z" fill="#838C95"/>
<path d="M41 7C41 8.10457 40.1046 9 39 9C37.8954 9 37 8.10457 37 7C37 5.89543 37.8954 5 39 5C40.1046 5 41 5.89543 41 7Z" fill="#838C95"/>
<path d="M47 7C47 8.10457 46.1046 9 45 9C43.8954 9 43 8.10457 43 7C43 5.89543 43.8954 5 45 5C46.1046 5 47 5.89543 47 7Z" fill="#838C95"/>
<path d="M53 7C53 8.10457 52.1046 9 51 9C49.8954 9 49 8.10457 49 7C49 5.89543 49.8954 5 51 5C52.1046 5 53 5.89543 53 7Z" fill="#838C95"/>
</svg>
