<svg width="800" height="700" viewBox="0 0 800 700" fill="none" xmlns="http://www.w3.org/2000/svg">
<path d="M725 0H75C33.5813 0 0 33.5813 0 75V625C0 666.419 33.5813 700 75 700H725C766.419 700 800 666.419 800 625V75C800 33.5813 766.419 0 725 0ZM694.788 54.6875C711.181 54.6875 724.475 67.9813 724.475 84.375C724.475 100.769 711.181 114.062 694.788 114.062C678.394 114.062 665.1 100.769 665.1 84.375C665.1 67.9813 678.394 54.6875 694.788 54.6875ZM584.631 54.6875C601.025 54.6875 614.319 67.9813 614.319 84.375C614.319 100.769 601.025 114.062 584.631 114.062C568.238 114.062 554.944 100.769 554.944 84.375C554.944 67.9813 568.238 54.6875 584.631 54.6875ZM474.475 54.6875C490.869 54.6875 504.163 67.9813 504.163 84.375C504.163 100.769 490.869 114.062 474.475 114.062C458.081 114.062 444.788 100.769 444.788 84.375C444.788 67.9813 458.081 54.6875 474.475 54.6875ZM737.5 625C737.5 631.884 731.897 637.5 725 637.5H75C68.1031 637.5 62.5 631.884 62.5 625V162.5H737.5V625Z" fill="#838C95"/>
<path d="M152.308 460.4H177.356C178.883 460.4 179.895 459.411 180.372 457.959L201.894 389.209H202.419L223.403 457.959C223.916 459.412 224.941 460.4 226.442 460.4H251.736C253.273 460.4 254.287 459.411 254.764 457.959L294.009 344.434C294.498 342.981 293.717 341.994 291.97 341.994H260.856C259.061 341.994 258.059 342.75 257.572 344.434L238.333 414.894H237.845L216.336 344.434C215.811 342.75 214.809 341.994 213.039 341.994H191.786C190.005 341.994 188.733 342.75 188.258 344.434L167.236 414.894H166.723L146.495 344.434C145.983 342.75 145.006 341.994 142.955 341.994H111.853C110.303 341.994 109.581 342.983 110.045 344.434L149.292 457.959C149.792 459.411 150.806 460.4 152.308 460.4Z" fill="#838C95"/>
<path d="M350.122 460.4H375.206C376.708 460.4 377.734 459.411 378.222 457.959L399.731 389.209H400.244L421.228 457.959C421.753 459.412 422.766 460.4 424.28 460.4H449.561C451.098 460.4 452.1 459.411 452.612 457.959L491.834 344.434C492.323 342.981 491.566 341.994 489.808 341.994H458.703C456.897 341.994 455.883 342.75 455.395 344.434L436.156 414.894H435.656L414.159 344.434C413.634 342.75 412.634 341.994 410.875 341.994H389.611C387.841 341.994 386.57 342.75 386.083 344.434L365.075 414.894H364.573L344.322 344.434C343.833 342.75 342.808 341.994 340.794 341.994H309.678C308.128 341.994 307.383 342.983 307.908 344.434L347.117 457.959C347.62 459.411 348.633 460.4 350.122 460.4Z" fill="#838C95"/>
<path d="M548.242 460.4H573.316C574.805 460.4 575.817 459.411 576.319 457.959L597.828 389.209H598.353L619.336 457.959C619.848 459.412 620.85 460.4 622.364 460.4H647.669C649.195 460.4 650.208 459.411 650.709 457.959L689.955 344.434C690.419 342.981 689.662 341.994 687.93 341.994H656.777C655.006 341.994 653.992 342.75 653.505 344.434L634.28 414.894H633.78L612.27 344.434C611.745 342.75 610.744 341.994 608.986 341.994H587.708C585.937 341.994 584.68 342.75 584.192 344.434L563.158 414.894H562.683L542.442 344.434C541.917 342.75 540.941 341.994 538.901 341.994H507.773C506.259 341.994 505.502 342.983 505.991 344.434L545.237 457.959C545.716 459.411 546.728 460.4 548.242 460.4Z" fill="#838C95"/>
</svg>
