<svg width="229" height="229" viewBox="0 0 229 229" fill="none" xmlns="http://www.w3.org/2000/svg">
<path d="M114.5 229C177.737 229 229 177.737 229 114.5C229 51.2634 177.737 0 114.5 0C51.2634 0 0 51.2634 0 114.5C0 177.737 51.2634 229 114.5 229Z" fill="url(#paint0_linear_470_41)"/>
<path d="M114.5 220.412C172.994 220.412 220.412 172.994 220.412 114.5C220.412 56.0061 172.994 8.5875 114.5 8.5875C56.0061 8.5875 8.5875 56.0061 8.5875 114.5C8.5875 172.994 56.0061 220.412 114.5 220.412Z" fill="url(#paint1_radial_470_41)"/>
<path d="M114.681 34.35C113.965 34.35 113.339 33.8133 113.339 33.0977V14.402C113.339 13.6863 113.965 13.1496 114.681 13.1496C115.396 13.1496 116.022 13.6863 116.022 14.402V33.0977C115.933 33.8133 115.396 34.35 114.681 34.35Z" fill="#F3F3F3"/>
<path d="M114.682 34.4395C113.876 34.4395 113.25 33.8133 113.25 33.0977V14.402C113.25 13.6863 113.876 13.0602 114.682 13.0602C115.487 13.0602 116.113 13.6863 116.113 14.402V33.0977C116.113 33.8133 115.397 34.4395 114.682 34.4395ZM114.682 13.2391C114.055 13.2391 113.429 13.7758 113.429 14.402V33.0977C113.429 33.7238 113.966 34.2605 114.682 34.2605C115.308 34.2605 115.934 33.7238 115.934 33.0977V14.402C115.844 13.7758 115.308 13.2391 114.682 13.2391Z" fill="white"/>
<path d="M123.625 24.3312C122.909 24.2418 122.373 23.7051 122.373 22.9894L122.999 14.6703C123.088 13.9547 123.714 13.418 124.43 13.5074C125.146 13.5969 125.682 14.1336 125.682 14.8492L125.056 23.1683C124.967 23.884 124.341 24.4207 123.625 24.3312Z" fill="#F3F3F3"/>
<path d="M123.626 24.4207C122.821 24.3313 122.284 23.7051 122.284 22.9895L122.91 14.6703C123 13.9547 123.626 13.3285 124.431 13.418C125.236 13.5074 125.773 14.1336 125.773 14.8492L125.147 23.1684C125.057 23.9734 124.431 24.5102 123.626 24.4207ZM124.431 13.5969C123.805 13.5969 123.179 14.0441 123.179 14.6703L122.552 22.9895C122.552 23.6156 123 24.1524 123.715 24.2418C124.342 24.2418 124.968 23.7945 124.968 23.1684L125.594 14.8492C125.594 14.2231 125.057 13.6863 124.431 13.5969Z" fill="white"/>
<path d="M130.337 35.9602C129.621 35.7813 129.174 35.1551 129.263 34.4395L132.931 16.1016C133.11 15.386 133.736 14.9387 134.451 15.1176C135.167 15.2965 135.614 15.9227 135.525 16.6383L131.857 34.9762C131.768 35.6024 131.052 36.0496 130.337 35.9602Z" fill="#F3F3F3"/>
<path d="M130.334 36.0496C129.529 35.8707 129.081 35.1551 129.171 34.4394L132.838 16.1016C133.017 15.3859 133.733 14.8492 134.538 15.0281C135.343 15.207 135.79 15.9226 135.701 16.6383L132.033 34.9762C131.854 35.6918 131.139 36.1391 130.334 36.0496ZM134.538 15.207C133.912 15.1176 133.286 15.4754 133.107 16.1016L129.439 34.4394C129.35 35.0656 129.707 35.6918 130.423 35.8707C131.049 35.9601 131.678 35.6024 131.857 34.9762L135.525 16.6383C135.614 15.9227 135.164 15.3859 134.538 15.207Z" fill="white"/>
<path d="M141.067 27.9094C140.352 27.7305 139.904 27.0148 140.083 26.2992L142.32 18.2484C142.499 17.5328 143.214 17.175 143.93 17.3539C144.645 17.5328 145.093 18.2484 144.914 18.9641L142.677 27.0148C142.499 27.7305 141.783 28.0883 141.067 27.9094Z" fill="#F3F3F3"/>
<path d="M141.067 27.9988C140.352 27.8199 139.815 27.0148 140.083 26.2992L142.32 18.2484C142.499 17.5328 143.304 17.0856 144.019 17.2645C144.735 17.4434 145.272 18.2485 145.003 18.9641L142.767 27.0149C142.588 27.7305 141.873 28.1777 141.067 27.9988ZM144.019 17.5328C143.393 17.3539 142.678 17.7117 142.499 18.3379L140.262 26.3887C140.083 27.0149 140.441 27.641 141.157 27.8199C141.783 27.9988 142.499 27.641 142.677 27.0148L144.914 18.9641C145.003 18.3379 144.646 17.7117 144.019 17.5328Z" fill="white"/>
<path d="M145.452 40.5223C144.736 40.2539 144.468 39.4488 144.736 38.8227L151.892 21.5582C152.161 20.932 152.966 20.5742 153.592 20.932C154.307 21.2004 154.576 22.0055 154.307 22.6316L147.151 39.8961C146.883 40.5223 146.078 40.8801 145.452 40.5223Z" fill="#F3F3F3"/>
<path d="M145.451 40.6117C144.736 40.3434 144.378 39.5383 144.646 38.8227L151.802 21.5582C152.071 20.8426 152.876 20.5742 153.681 20.8426C154.396 21.1109 154.754 21.916 154.486 22.6316L147.33 39.8961C146.972 40.6117 146.167 40.9695 145.451 40.6117ZM153.591 21.0215C152.965 20.7531 152.25 21.0215 151.981 21.6477L144.825 38.9121C144.557 39.5383 144.914 40.1645 145.541 40.4328C146.167 40.7012 146.882 40.4328 147.151 39.8066L154.307 22.5422C154.486 22.0055 154.218 21.2898 153.591 21.0215Z" fill="white"/>
<path d="M157.529 34.7973C156.903 34.4394 156.635 33.7238 156.903 33.0977L160.66 25.673C161.018 25.0469 161.734 24.7785 162.449 25.1363C163.075 25.4941 163.344 26.2098 163.075 26.8359L159.318 34.2605C158.961 34.8867 158.245 35.1551 157.529 34.7973Z" fill="#F3F3F3"/>
<path d="M157.53 34.8867C156.814 34.5289 156.546 33.7238 156.903 33.0082L160.661 25.5836C161.018 24.868 161.823 24.5996 162.539 24.9574C163.255 25.3152 163.523 26.1203 163.165 26.8359L159.408 34.2605C159.05 34.9762 158.245 35.2445 157.53 34.8867ZM162.449 25.1363C161.823 24.868 161.108 25.0469 160.839 25.673L157.082 33.0977C156.814 33.6344 157.082 34.35 157.619 34.7078C158.245 34.9762 158.961 34.7973 159.229 34.1711L162.986 26.7465C163.255 26.2098 162.986 25.4941 162.449 25.1363Z" fill="white"/>
<path d="M159.318 48.0363C158.692 47.589 158.513 46.784 158.96 46.2472L169.337 30.7719C169.695 30.1457 170.5 30.0562 171.126 30.414C171.752 30.8613 171.931 31.6664 171.484 32.2031L161.107 47.6785C160.749 48.3047 159.944 48.4836 159.318 48.0363Z" fill="#F3F3F3"/>
<path d="M159.318 48.1258C158.692 47.6785 158.513 46.784 158.871 46.1578L169.248 30.6824C169.695 30.0562 170.5 29.8773 171.216 30.3246C171.842 30.7719 172.021 31.6664 171.663 32.2926L161.286 47.768C160.839 48.3941 159.944 48.573 159.318 48.1258ZM171.126 30.5035C170.589 30.1457 169.784 30.2351 169.426 30.7719L159.05 46.2473C158.692 46.784 158.871 47.4996 159.408 47.8574C159.944 48.2152 160.75 48.1258 161.107 47.5891L171.484 32.2031C171.841 31.6664 171.663 30.8613 171.126 30.5035Z" fill="white"/>
<path d="M172.376 44.7266C171.84 44.2793 171.661 43.4742 172.108 42.9375L177.296 36.4074C177.744 35.8707 178.549 35.7813 179.085 36.2285C179.622 36.6758 179.801 37.4809 179.354 38.0176L174.166 44.5477C173.718 45.0844 172.913 45.1738 172.376 44.7266Z" fill="#F3F3F3"/>
<path d="M172.287 44.816C171.661 44.3687 171.571 43.4742 172.019 42.848L177.207 36.318C177.654 35.6918 178.549 35.6023 179.175 36.1391C179.801 36.5863 179.891 37.4808 179.443 38.107L174.255 44.6371C173.808 45.2633 172.913 45.3527 172.287 44.816ZM178.996 36.318C178.459 35.8707 177.744 35.9601 177.296 36.4969L172.108 43.0269C171.75 43.5637 171.84 44.2793 172.376 44.7266C172.913 45.1738 173.629 45.0844 174.076 44.5476L179.264 38.0176C179.622 37.4808 179.533 36.6758 178.996 36.318Z" fill="white"/>
<path d="M171.484 58.1445C170.947 57.6078 170.947 56.8027 171.484 56.3555L184.723 43.2059C185.26 42.6691 186.065 42.7586 186.512 43.2059C186.959 43.6531 187.049 44.5477 186.512 44.9949L173.362 58.1445C172.826 58.6813 172.021 58.6813 171.484 58.1445Z" fill="#F3F3F3"/>
<path d="M171.395 58.234C170.859 57.6973 170.859 56.8027 171.395 56.266L184.634 43.1164C185.171 42.5797 186.066 42.5797 186.602 43.1164C187.139 43.6531 187.139 44.5477 186.602 45.0844L173.363 58.234C172.827 58.7707 171.932 58.7707 171.395 58.234ZM186.512 43.2059C186.065 42.7586 185.261 42.7586 184.813 43.2059L171.574 56.3555C171.127 56.8027 171.127 57.6078 171.574 58.0551C172.021 58.5023 172.827 58.5023 173.274 58.0551L186.513 44.9055C186.96 44.4582 186.959 43.7426 186.512 43.2059Z" fill="white"/>
<path d="M184.903 57.4289C184.456 56.8922 184.456 56.0871 184.993 55.6399L191.344 50.2727C191.88 49.8254 192.686 49.9149 193.133 50.4516C193.58 50.9883 193.58 51.7934 193.043 52.2406L186.692 57.6078C186.155 58.0551 185.35 57.9656 184.903 57.4289Z" fill="#F3F3F3"/>
<path d="M184.812 57.5184C184.275 56.8922 184.364 55.9976 184.901 55.5504L191.252 50.1832C191.789 49.6465 192.684 49.7359 193.22 50.3621C193.757 50.9883 193.668 51.8828 193.131 52.3301L186.78 57.6973C186.243 58.234 185.348 58.1445 184.812 57.5184ZM193.041 50.4516C192.594 49.9148 191.88 49.9149 191.344 50.2727L184.993 55.6399C184.545 56.0871 184.454 56.8027 184.901 57.3394C185.348 57.8762 186.064 57.8762 186.601 57.5184L192.952 52.1512C193.489 51.7039 193.489 50.9883 193.041 50.4516Z" fill="white"/>
<path d="M181.322 70.3102C180.874 69.684 181.053 68.8789 181.679 68.5211L197.244 58.1445C197.87 57.7867 198.675 57.9656 199.033 58.5023C199.48 59.1285 199.302 59.9336 198.675 60.2914L183.111 70.668C182.574 71.0258 181.769 70.8469 181.322 70.3102Z" fill="#F3F3F3"/>
<path d="M181.233 70.3102C180.786 69.684 180.965 68.7895 181.591 68.3422L197.156 57.9656C197.782 57.5184 198.676 57.6973 199.124 58.4129C199.571 59.0391 199.392 59.9336 198.766 60.3809L183.201 70.7574C182.575 71.2047 181.68 71.0258 181.233 70.3102ZM198.945 58.5918C198.587 58.0551 197.871 57.8762 197.335 58.234L181.77 68.6106C181.233 68.9684 181.054 69.684 181.501 70.3102C181.859 70.8469 182.574 71.0258 183.111 70.668L198.675 60.2914C199.212 59.8441 199.303 59.1285 198.945 58.5918Z" fill="white"/>
<path d="M194.652 72.1887C194.294 71.5625 194.473 70.7574 195.099 70.3996L202.345 66.2848C202.971 65.927 203.776 66.1953 204.134 66.8215C204.492 67.4477 204.313 68.2527 203.687 68.6105L196.441 72.7254C195.815 73.0832 195.01 72.8148 194.652 72.1887Z" fill="#F3F3F3"/>
<path d="M194.564 72.2781C194.206 71.5625 194.385 70.7574 195.011 70.3996L202.257 66.2848C202.883 65.927 203.776 66.1953 204.134 66.8215C204.492 67.5371 204.314 68.3422 203.688 68.7L196.442 72.8148C195.816 73.1726 194.922 72.9043 194.564 72.2781ZM204.046 66.9109C203.688 66.2848 202.972 66.1059 202.436 66.4637L195.19 70.5785C194.653 70.9363 194.474 71.6519 194.743 72.1887C195.1 72.8148 195.816 72.9937 196.353 72.6359L203.599 68.5211C204.135 68.2527 204.314 67.5371 204.046 66.9109Z" fill="white"/>
<path d="M188.658 84.0859C188.39 83.3703 188.658 82.6547 189.374 82.3863L206.639 75.2301C207.265 74.9617 208.07 75.3195 208.338 75.9457C208.606 76.6613 208.338 77.377 207.622 77.6453L190.358 84.8016C189.732 85.0699 188.927 84.8016 188.658 84.0859Z" fill="#F3F3F3"/>
<path d="M188.57 84.1754C188.302 83.4598 188.57 82.6547 189.286 82.2969L206.55 75.1406C207.266 74.8723 208.07 75.2301 208.338 75.9457C208.606 76.6613 208.339 77.4664 207.623 77.8242L190.359 84.9805C189.643 85.2488 188.838 84.891 188.57 84.1754ZM208.16 76.0352C207.892 75.409 207.176 75.1406 206.639 75.3195L189.375 82.4758C188.749 82.7441 188.48 83.4598 188.749 84.0859C189.017 84.7121 189.733 84.9805 190.27 84.8016L207.534 77.6453C208.16 77.377 208.429 76.6613 208.16 76.0352Z" fill="white"/>
<path d="M201.273 88.5586C201.004 87.843 201.362 87.1274 202.078 86.859L209.95 84.2648C210.576 83.9965 211.381 84.4438 211.56 85.0699C211.828 85.7856 211.47 86.5012 210.755 86.7695L202.883 89.3637C202.257 89.632 201.541 89.2742 201.273 88.5586Z" fill="#F3F3F3"/>
<path d="M201.183 88.648C200.915 87.9324 201.273 87.1274 202.078 86.859L209.95 84.2648C210.665 83.9965 211.47 84.4437 211.739 85.1594C212.007 85.875 211.649 86.6801 210.844 86.9484L202.972 89.5426C202.257 89.7215 201.452 89.3637 201.183 88.648ZM211.56 85.2488C211.381 84.6227 210.665 84.2648 210.039 84.4437L202.167 87.0379C201.541 87.2168 201.273 87.9324 201.452 88.5586C201.631 89.1848 202.346 89.5426 202.972 89.3637L210.844 86.7695C211.47 86.5012 211.739 85.875 211.56 85.2488Z" fill="white"/>
<path d="M193.22 99.2035C193.042 98.4879 193.489 97.7722 194.204 97.6828L212.542 94.1047C213.258 93.9258 213.884 94.4625 214.063 95.1781C214.242 95.8937 213.795 96.6094 213.079 96.6988L194.741 100.277C194.026 100.366 193.31 99.9191 193.22 99.2035Z" fill="#F3F3F3"/>
<path d="M193.043 99.2035C192.864 98.3984 193.4 97.6828 194.116 97.5039L212.454 93.9258C213.169 93.7469 213.885 94.2836 214.064 95.0887C214.243 95.8937 213.706 96.6094 212.991 96.7883L194.653 100.366C193.937 100.545 193.221 100.009 193.043 99.2035ZM213.885 95.1781C213.796 94.552 213.169 94.1047 212.543 94.1941L194.205 97.7723C193.579 97.8617 193.132 98.5773 193.311 99.2035C193.4 99.8297 194.027 100.277 194.653 100.187L212.991 96.6094C213.617 96.4305 214.064 95.8043 213.885 95.1781Z" fill="white"/>
<path d="M204.669 106.091C204.58 105.376 205.027 104.75 205.743 104.66L213.972 103.676C214.688 103.587 215.314 104.123 215.404 104.839C215.493 105.555 215.046 106.181 214.33 106.27L206.101 107.254C205.474 107.344 204.759 106.807 204.669 106.091Z" fill="#F3F3F3"/>
<path d="M204.579 106.091C204.49 105.286 205.026 104.571 205.742 104.481L213.972 103.497C214.687 103.408 215.403 103.945 215.492 104.75C215.582 105.555 215.045 106.27 214.33 106.36L206.1 107.344C205.384 107.433 204.669 106.896 204.579 106.091ZM215.404 104.839C215.314 104.213 214.687 103.676 214.061 103.766L205.832 104.75C205.205 104.839 204.758 105.465 204.848 106.091C204.937 106.718 205.563 107.254 206.189 107.165L214.419 106.181C215.045 106.091 215.493 105.465 215.404 104.839Z" fill="white"/>
<path d="M194.651 114.768C194.651 114.053 195.187 113.427 195.903 113.427H214.599C215.314 113.427 215.851 114.053 215.851 114.768C215.851 115.484 215.314 116.11 214.599 116.11H195.903C195.187 116.11 194.651 115.484 194.651 114.768Z" fill="#F3F3F3"/>
<path d="M194.562 114.768C194.562 113.963 195.188 113.337 195.904 113.337H214.6C215.315 113.337 215.942 113.963 215.942 114.768C215.942 115.573 215.315 116.2 214.6 116.2H195.904C195.188 116.2 194.562 115.573 194.562 114.768ZM215.763 114.858C215.763 114.232 215.226 113.605 214.6 113.605H195.904C195.278 113.605 194.741 114.142 194.741 114.858C194.741 115.484 195.277 116.11 195.903 116.11H214.599C215.225 116.021 215.763 115.484 215.763 114.858Z" fill="white"/>
<path d="M204.581 123.803C204.67 123.087 205.207 122.551 205.923 122.551L214.242 123.177C214.958 123.266 215.494 123.893 215.405 124.608C215.315 125.324 214.779 125.861 214.063 125.861L205.744 125.234C205.118 125.145 204.581 124.519 204.581 123.803Z" fill="#F3F3F3"/>
<path d="M204.492 123.803C204.582 122.998 205.208 122.461 205.924 122.461L214.243 123.088C214.958 123.177 215.585 123.803 215.495 124.608C215.406 125.413 214.78 125.95 214.064 125.95L205.745 125.324C205.029 125.234 204.492 124.519 204.492 123.803ZM215.405 124.608C215.494 123.982 214.959 123.356 214.332 123.356L206.013 122.73C205.387 122.73 204.85 123.177 204.761 123.893C204.671 124.519 205.208 125.145 205.834 125.145L214.153 125.771C214.78 125.771 215.315 125.234 215.405 124.608Z" fill="white"/>
<path d="M193.042 130.333C193.221 129.618 193.847 129.17 194.563 129.26L212.901 132.927C213.617 133.106 214.064 133.732 213.885 134.448C213.706 135.164 213.08 135.611 212.364 135.521L194.026 131.854C193.4 131.764 192.953 131.049 193.042 130.333Z" fill="#F3F3F3"/>
<path d="M192.954 130.333C193.133 129.528 193.848 129.081 194.564 129.17L212.902 132.838C213.617 133.017 214.154 133.732 213.975 134.537C213.796 135.343 213.081 135.79 212.365 135.7L194.027 132.033C193.312 131.854 192.864 131.138 192.954 130.333ZM213.796 134.537C213.886 133.911 213.528 133.285 212.902 133.106L194.564 129.439C193.938 129.349 193.312 129.707 193.133 130.423C193.043 131.049 193.4 131.675 194.026 131.854L212.364 135.521C213.08 135.611 213.617 135.164 213.796 134.537Z" fill="white"/>
<path d="M201.091 141.068C201.27 140.352 201.985 139.905 202.701 140.084L210.752 142.32C211.467 142.499 211.825 143.214 211.646 143.93C211.467 144.646 210.752 145.093 210.036 144.914L201.985 142.678C201.27 142.499 200.912 141.783 201.091 141.068Z" fill="#F3F3F3"/>
<path d="M201.004 141.068C201.183 140.352 201.985 139.815 202.701 140.084L210.752 142.32C211.467 142.499 211.917 143.304 211.738 144.02C211.559 144.735 210.754 145.272 210.039 145.003L201.988 142.767C201.272 142.588 200.825 141.873 201.004 141.068ZM211.47 144.02C211.649 143.393 211.291 142.678 210.665 142.499L202.614 140.262C201.988 140.084 201.362 140.441 201.183 141.157C201.004 141.783 201.359 142.499 201.985 142.678L210.036 144.914C210.662 145.004 211.291 144.646 211.47 144.02Z" fill="white"/>
<path d="M188.478 145.361C188.746 144.646 189.551 144.377 190.177 144.646L207.442 151.802C208.068 152.07 208.426 152.875 208.157 153.502C207.889 154.217 207.084 154.486 206.458 154.217L189.193 147.061C188.478 146.793 188.209 145.987 188.478 145.361Z" fill="#F3F3F3"/>
<path d="M188.389 145.272C188.657 144.556 189.463 144.198 190.178 144.467L207.443 151.623C208.158 151.891 208.426 152.696 208.157 153.502C207.889 154.217 207.085 154.575 206.369 154.307L189.105 147.15C188.389 146.793 188.121 145.988 188.389 145.272ZM207.979 153.412C208.248 152.786 207.979 152.07 207.353 151.802L190.089 144.646C189.463 144.377 188.836 144.735 188.568 145.361C188.3 145.988 188.568 146.703 189.194 146.971L206.459 154.128C207.085 154.307 207.8 154.038 207.979 153.412Z" fill="white"/>
<path d="M194.295 157.437C194.653 156.811 195.369 156.543 195.995 156.811L203.42 160.568C204.046 160.837 204.314 161.642 203.956 162.357C203.599 162.984 202.883 163.252 202.257 162.984L194.832 159.227C194.206 158.869 193.938 158.064 194.295 157.437Z" fill="#F3F3F3"/>
<path d="M194.204 157.348C194.562 156.632 195.367 156.364 196.083 156.722L203.508 160.479C204.223 160.837 204.492 161.642 204.134 162.357C203.776 163.073 202.972 163.341 202.257 162.984L194.832 159.227C194.117 158.958 193.847 158.064 194.204 157.348ZM203.865 162.268C204.134 161.642 203.955 160.926 203.329 160.658L195.904 156.901C195.367 156.632 194.653 156.901 194.295 157.437C194.027 158.064 194.204 158.779 194.831 159.048L202.255 162.805C202.881 163.073 203.597 162.894 203.865 162.268Z" fill="white"/>
<path d="M181.145 159.137C181.592 158.511 182.307 158.332 182.934 158.779L198.498 169.156C199.125 169.514 199.214 170.319 198.856 170.945C198.409 171.571 197.693 171.75 197.067 171.303L181.502 160.926C180.876 160.479 180.697 159.674 181.145 159.137Z" fill="#F3F3F3"/>
<path d="M181.054 159.048C181.501 158.421 182.396 158.243 183.022 158.6L198.587 168.977C199.213 169.424 199.392 170.229 198.945 170.945C198.497 171.571 197.603 171.75 196.977 171.392L181.412 161.016C180.696 160.568 180.607 159.674 181.054 159.048ZM198.676 170.855C199.034 170.319 198.945 169.514 198.408 169.156L182.843 158.779C182.306 158.421 181.591 158.6 181.233 159.137C180.875 159.674 180.965 160.479 181.501 160.837L197.066 171.213C197.603 171.571 198.318 171.392 198.676 170.855Z" fill="white"/>
<path d="M184.453 172.108C184.9 171.571 185.705 171.392 186.242 171.839L192.772 176.938C193.309 177.386 193.398 178.191 192.951 178.727C192.504 179.264 191.698 179.443 191.162 178.996L184.632 173.897C184.095 173.45 184.006 172.645 184.453 172.108Z" fill="#F3F3F3"/>
<path d="M184.365 172.018C184.812 171.392 185.707 171.303 186.333 171.75L192.863 176.849C193.489 177.296 193.579 178.191 193.132 178.817C192.684 179.443 191.79 179.532 191.164 179.085L184.634 173.986C184.007 173.539 183.918 172.645 184.365 172.018ZM192.951 178.727C193.398 178.191 193.31 177.475 192.774 177.028L186.244 171.929C185.707 171.571 184.991 171.661 184.544 172.197C184.097 172.734 184.186 173.45 184.723 173.897L191.253 178.996C191.79 179.354 192.504 179.264 192.951 178.727Z" fill="white"/>
<path d="M171.124 171.213C171.661 170.677 172.466 170.677 172.913 171.213L186.152 184.363C186.689 184.9 186.6 185.705 186.152 186.152C185.616 186.689 184.811 186.689 184.363 186.152L171.124 173.002C170.677 172.555 170.677 171.661 171.124 171.213Z" fill="#F3F3F3"/>
<path d="M171.124 171.124C171.661 170.587 172.555 170.587 173.092 171.124L186.331 184.273C186.868 184.81 186.868 185.705 186.331 186.241C185.794 186.778 184.9 186.778 184.363 186.241L171.124 173.092C170.498 172.555 170.498 171.661 171.124 171.124ZM186.152 186.062C186.599 185.615 186.6 184.81 186.152 184.363L172.913 171.213C172.466 170.766 171.661 170.766 171.213 171.213C170.766 171.661 170.766 172.466 171.213 172.913L184.452 186.062C184.9 186.599 185.615 186.599 186.152 186.062Z" fill="white"/>
<path d="M171.931 184.542C172.468 184.095 173.273 184.095 173.72 184.631L179.177 190.893C179.624 191.43 179.535 192.235 178.998 192.682C178.461 193.129 177.656 193.129 177.209 192.593L171.752 186.331C171.305 185.884 171.395 185.079 171.931 184.542Z" fill="#F3F3F3"/>
<path d="M171.842 184.542C172.468 184.005 173.273 184.095 173.809 184.631L179.266 190.893C179.803 191.43 179.713 192.324 179.087 192.861C178.461 193.398 177.656 193.308 177.119 192.772L171.663 186.51C171.215 185.884 171.215 184.989 171.842 184.542ZM178.998 192.682C179.535 192.235 179.534 191.519 179.177 190.982L173.72 184.721C173.273 184.273 172.557 184.184 172.02 184.631C171.484 185.079 171.484 185.794 171.842 186.331L177.298 192.593C177.745 193.129 178.461 193.129 178.998 192.682Z" fill="white"/>
<path d="M159.048 181.143C159.674 180.695 160.479 180.874 160.837 181.5L171.214 196.976C171.571 197.602 171.392 198.407 170.856 198.765C170.23 199.212 169.424 199.033 169.067 198.407L158.69 182.932C158.332 182.305 158.511 181.5 159.048 181.143Z" fill="#F3F3F3"/>
<path d="M159.049 181.053C159.675 180.606 160.57 180.785 161.017 181.411L171.393 196.886C171.841 197.513 171.662 198.407 170.946 198.854C170.32 199.302 169.425 199.123 168.978 198.496L158.602 183.021C158.154 182.305 158.333 181.5 159.049 181.053ZM170.857 198.675C171.393 198.318 171.572 197.602 171.214 197.065L160.838 181.59C160.48 181.053 159.764 180.964 159.138 181.321C158.602 181.679 158.423 182.395 158.781 182.932L169.157 198.407C169.515 198.854 170.32 199.033 170.857 198.675Z" fill="white"/>
<path d="M157.172 194.382C157.798 194.024 158.604 194.203 158.961 194.829L163.076 202.075C163.434 202.701 163.166 203.506 162.539 203.864C161.913 204.221 161.108 204.043 160.75 203.416L156.636 196.171C156.367 195.545 156.546 194.739 157.172 194.382Z" fill="#F3F3F3"/>
<path d="M157.169 194.292C157.885 193.934 158.69 194.113 159.047 194.739L163.162 201.985C163.52 202.611 163.341 203.506 162.626 203.864C161.91 204.222 161.108 204.043 160.75 203.416L156.636 196.171C156.278 195.545 156.453 194.739 157.169 194.292ZM162.536 203.774C163.073 203.416 163.341 202.701 162.983 202.164L158.868 194.918C158.511 194.382 157.795 194.203 157.258 194.471C156.722 194.829 156.453 195.545 156.811 196.081L160.926 203.327C161.194 203.864 161.999 204.132 162.536 203.774Z" fill="white"/>
<path d="M145.274 188.478C145.99 188.209 146.705 188.478 146.974 189.104L154.22 206.368C154.488 206.995 154.13 207.8 153.504 208.068C152.878 208.336 152.073 208.068 151.804 207.442L144.559 190.177C144.29 189.551 144.648 188.746 145.274 188.478Z" fill="#F3F3F3"/>
<path d="M145.274 188.388C145.99 188.12 146.795 188.388 147.153 189.104L154.398 206.368C154.667 207.084 154.309 207.889 153.593 208.157C152.878 208.426 152.073 208.157 151.715 207.442L144.469 190.177C144.201 189.551 144.559 188.746 145.274 188.388ZM153.414 207.979C154.041 207.71 154.309 206.995 154.041 206.458L146.795 189.193C146.527 188.567 145.811 188.299 145.185 188.567C144.559 188.836 144.29 189.551 144.559 190.088L151.804 207.352C152.162 207.978 152.788 208.247 153.414 207.979Z" fill="white"/>
<path d="M140.892 201.18C141.608 200.912 142.323 201.27 142.592 201.985L145.186 209.857C145.454 210.483 145.007 211.288 144.381 211.467C143.665 211.736 142.949 211.378 142.681 210.662L140.087 202.79C139.818 202.164 140.176 201.448 140.892 201.18Z" fill="#F3F3F3"/>
<path d="M140.799 201.091C141.515 200.822 142.32 201.18 142.588 201.896L145.183 209.768C145.451 210.483 145.004 211.288 144.288 211.557C143.572 211.825 142.767 211.467 142.499 210.752L139.905 202.88C139.726 202.164 140.084 201.359 140.799 201.091ZM144.288 211.378C144.914 211.199 145.272 210.483 145.093 209.857L142.499 201.985C142.32 201.359 141.604 201.091 140.978 201.27C140.352 201.448 139.994 202.164 140.173 202.79L142.767 210.662C142.946 211.288 143.662 211.646 144.288 211.378Z" fill="white"/>
<path d="M130.337 193.04C131.052 192.861 131.768 193.308 131.857 194.024L135.614 212.362C135.793 213.077 135.257 213.704 134.541 213.882C133.825 214.061 133.11 213.614 133.02 212.898L129.263 194.561C129.174 193.934 129.621 193.219 130.337 193.04Z" fill="#F3F3F3"/>
<path d="M130.334 192.95C131.139 192.772 131.854 193.308 132.033 194.024L135.79 212.362C135.969 213.077 135.432 213.882 134.717 213.972C133.912 214.151 133.199 213.614 133.02 212.898L129.263 194.561C129.084 193.845 129.529 193.129 130.334 192.95ZM134.538 213.793C135.164 213.704 135.611 213.077 135.522 212.362L131.765 194.024C131.675 193.398 130.96 192.95 130.334 193.129C129.707 193.219 129.26 193.845 129.35 194.561L133.107 212.898C133.286 213.525 133.912 213.882 134.538 213.793Z" fill="white"/>
<path d="M123.538 204.669C124.253 204.579 124.879 205.027 125.058 205.742L126.132 213.972C126.221 214.687 125.684 215.314 124.969 215.403C124.253 215.493 123.627 215.045 123.448 214.33L122.375 206.1C122.285 205.384 122.822 204.758 123.538 204.669Z" fill="#F3F3F3"/>
<path d="M123.535 204.579C124.34 204.49 125.055 205.027 125.145 205.742L126.218 213.972C126.308 214.688 125.771 215.403 124.966 215.493C124.161 215.582 123.445 215.045 123.356 214.33L122.282 206.1C122.193 205.384 122.73 204.669 123.535 204.579ZM124.876 215.314C125.503 215.224 126.039 214.598 125.95 213.972L124.876 205.742C124.787 205.116 124.161 204.669 123.535 204.758C122.908 204.848 122.372 205.474 122.461 206.1L123.535 214.33C123.624 214.956 124.25 215.403 124.876 215.314Z" fill="white"/>
<path d="M114.323 194.65C115.038 194.65 115.665 195.187 115.665 195.902V214.598C115.665 215.314 115.038 215.85 114.323 215.85C113.607 215.85 112.981 215.314 112.981 214.598V195.902C113.07 195.187 113.607 194.65 114.323 194.65Z" fill="#F3F3F3"/>
<path d="M114.324 194.561C115.129 194.561 115.755 195.187 115.755 195.902V214.598C115.755 215.314 115.129 215.94 114.324 215.94C113.519 215.94 112.892 215.314 112.892 214.598V195.902C112.892 195.187 113.608 194.561 114.324 194.561ZM114.324 215.761C114.95 215.761 115.576 215.224 115.576 214.598V195.902C115.576 195.276 115.039 194.739 114.324 194.739C113.698 194.739 113.071 195.276 113.071 195.902V214.598C113.161 215.224 113.698 215.761 114.324 215.761Z" fill="white"/>
<path d="M105.377 204.669C106.093 204.758 106.63 205.295 106.63 206.011L106.004 214.33C105.914 215.045 105.288 215.582 104.572 215.493C103.857 215.403 103.32 214.866 103.32 214.151L103.946 205.832C104.036 205.116 104.662 204.579 105.377 204.669Z" fill="#F3F3F3"/>
<path d="M105.378 204.579C106.183 204.669 106.72 205.295 106.72 206.011L106.094 214.33C106.005 215.045 105.378 215.671 104.573 215.582C103.768 215.493 103.232 214.866 103.232 214.151L103.858 205.832C103.947 205.027 104.573 204.49 105.378 204.579ZM104.573 215.403C105.2 215.403 105.826 214.956 105.826 214.33L106.452 206.011C106.452 205.384 106.005 204.848 105.289 204.758C104.663 204.758 104.037 205.205 104.037 205.832L103.41 214.151C103.41 214.777 103.947 215.314 104.573 215.403Z" fill="white"/>
<path d="M98.6702 193.04C99.3858 193.219 99.8331 193.845 99.7436 194.561L96.076 212.898C95.8971 213.614 95.271 214.061 94.5553 213.882C93.8397 213.703 93.3924 213.077 93.4819 212.362L97.1495 194.024C97.2389 193.398 97.9546 192.95 98.6702 193.04Z" fill="#F3F3F3"/>
<path d="M98.6682 192.95C99.4733 193.129 99.9206 193.845 99.8311 194.561L96.1635 212.898C95.9846 213.614 95.269 214.151 94.4639 213.972C93.6588 213.793 93.2116 213.077 93.301 212.362L96.9686 194.024C97.1475 193.308 97.8631 192.861 98.6682 192.95ZM94.4639 213.793C95.0901 213.882 95.7163 213.525 95.8952 212.898L99.5627 194.561C99.6522 193.934 99.2944 193.308 98.5788 193.129C97.9526 193.04 97.3284 193.398 97.1495 194.024L93.4819 212.362C93.3924 213.077 93.8377 213.614 94.4639 213.793Z" fill="white"/>
<path d="M87.9341 201.091C88.6497 201.27 89.097 201.985 88.9181 202.701L86.6818 210.752C86.5029 211.467 85.7872 211.825 85.0716 211.646C84.356 211.467 83.9087 210.752 84.0876 210.036L86.3239 201.985C86.5029 201.27 87.2185 200.912 87.9341 201.091Z" fill="#F3F3F3"/>
<path d="M87.9351 201.001C88.6508 201.18 89.1864 201.985 88.9181 202.701L86.6818 210.752C86.5029 211.467 85.6988 211.914 84.9832 211.736C84.2676 211.557 83.7309 210.752 83.9992 210.036L86.2355 201.985C86.4144 201.27 87.1301 200.822 87.9351 201.001ZM84.9832 211.467C85.6094 211.646 86.325 211.288 86.5039 210.662L88.7402 202.611C88.9191 201.985 88.5613 201.359 87.8457 201.18C87.2195 201.001 86.5029 201.359 86.3239 201.985L84.0876 210.036C83.9982 210.662 84.357 211.288 84.9832 211.467Z" fill="white"/>
<path d="M83.5525 188.478C84.2682 188.746 84.5365 189.551 84.2682 190.177L77.1119 207.442C76.8436 208.068 76.0385 208.426 75.4123 208.068C74.7861 207.71 74.4283 206.995 74.6967 206.368L81.8529 189.104C82.1213 188.478 82.9264 188.12 83.5525 188.478Z" fill="#F3F3F3"/>
<path d="M83.5496 188.388C84.2652 188.657 84.623 189.462 84.3546 190.177L77.1984 207.442C76.93 208.157 76.125 208.426 75.3199 208.157C74.6043 207.889 74.2464 207.084 74.5148 206.368L81.6711 189.104C82.0289 188.388 82.8339 188.03 83.5496 188.388ZM75.4093 207.979C76.0355 208.247 76.7511 207.979 77.0195 207.352L84.1757 190.088C84.4441 189.462 84.0863 188.836 83.4601 188.567C82.8339 188.299 82.1183 188.567 81.85 189.193L74.6937 206.458C74.5148 206.995 74.7832 207.71 75.4093 207.979Z" fill="white"/>
<path d="M71.4764 194.203C72.1026 194.561 72.3709 195.276 72.1026 195.902L68.3455 203.327C67.9877 203.953 67.2721 204.221 66.5565 203.864C65.9303 203.506 65.6619 202.79 65.9303 202.164L69.6873 194.739C70.0451 194.113 70.7608 193.845 71.4764 194.203Z" fill="#F3F3F3"/>
<path d="M71.4738 194.113C72.1894 194.471 72.4578 195.276 72.1 195.992L68.3429 203.416C67.9851 204.132 67.1801 204.4 66.4644 204.043C65.7488 203.685 65.4805 202.88 65.8383 202.164L69.5953 194.739C69.9531 194.024 70.7582 193.755 71.4738 194.113ZM66.5565 203.864C67.1826 204.132 67.8957 203.953 68.164 203.327L71.9211 195.902C72.1894 195.366 71.9211 194.65 71.3844 194.292C70.7582 194.024 70.0426 194.203 69.7742 194.829L66.0172 202.254C65.7488 202.79 66.0197 203.506 66.5565 203.864Z" fill="white"/>
<path d="M69.684 180.964C70.3102 181.411 70.4891 182.216 70.0418 182.753L59.6653 198.228C59.3075 198.854 58.5024 198.944 57.8762 198.586C57.25 198.139 57.0711 197.334 57.5184 196.797L67.895 181.321C68.2528 180.695 69.0578 180.516 69.684 180.964Z" fill="#F3F3F3"/>
<path d="M69.6853 180.874C70.3114 181.321 70.4903 182.216 70.1325 182.842L59.756 198.318C59.3087 198.944 58.5036 199.123 57.788 198.675C57.1618 198.228 56.9829 197.334 57.3407 196.707L67.7173 181.232C68.1646 180.606 69.0591 180.427 69.6853 180.874ZM57.8775 198.496C58.4142 198.854 59.2192 198.765 59.5771 198.228L69.9536 182.753C70.3114 182.216 70.1325 181.5 69.5958 181.143C69.0591 180.785 68.254 180.874 67.8962 181.411L57.5184 196.797C57.1606 197.334 57.3407 198.139 57.8775 198.496Z" fill="white"/>
<path d="M56.6251 184.273C57.1618 184.721 57.3407 185.526 56.8934 186.062L51.7051 192.593C51.2579 193.129 50.4528 193.219 49.9161 192.771C49.3794 192.324 49.2005 191.519 49.6477 190.982L54.836 184.452C55.2833 183.916 56.0883 183.826 56.6251 184.273Z" fill="#F3F3F3"/>
<path d="M56.7146 184.184C57.3408 184.631 57.4302 185.526 56.983 186.152L51.7947 192.682C51.3474 193.308 50.4529 193.398 49.8267 192.861C49.2005 192.414 49.1111 191.519 49.5583 190.893L54.7466 184.363C55.1939 183.737 56.0884 183.647 56.7146 184.184ZM50.0056 192.682C50.5423 193.129 51.258 193.04 51.7052 192.503L56.8935 185.973C57.2513 185.436 57.1618 184.721 56.6251 184.273C56.0883 183.826 55.3728 183.916 54.9255 184.452L49.7372 190.982C49.3794 191.519 49.4689 192.324 50.0056 192.682Z" fill="white"/>
<path d="M57.5204 170.855C58.0571 171.392 58.0571 172.197 57.5204 172.645L44.2814 185.794C43.7446 186.331 42.9396 186.241 42.4923 185.794C42.045 185.347 41.9556 184.452 42.4923 184.005L55.6419 170.855C56.1786 170.319 56.9837 170.319 57.5204 170.855Z" fill="#F3F3F3"/>
<path d="M57.609 170.766C58.1457 171.303 58.1457 172.197 57.609 172.734L44.3699 185.884C43.8332 186.42 42.9387 186.42 42.402 185.884C41.8653 185.347 41.8653 184.452 42.402 183.916L55.641 170.766C56.1778 170.229 57.0723 170.229 57.609 170.766ZM42.4923 185.794C42.9396 186.241 43.7438 186.241 44.191 185.794L57.4301 172.645C57.8774 172.197 57.8774 171.392 57.4301 170.945C56.9828 170.498 56.1778 170.498 55.7305 170.945L42.4914 184.095C42.0442 184.542 42.045 185.257 42.4923 185.794Z" fill="white"/>
<path d="M44.102 171.571C44.5493 172.108 44.5492 172.913 44.0125 173.36L37.6614 178.727C37.1246 179.175 36.3196 179.085 35.8723 178.548C35.425 178.012 35.425 177.207 35.9617 176.759L42.3129 171.392C42.8496 170.945 43.6547 171.034 44.102 171.571Z" fill="#F3F3F3"/>
<path d="M44.1933 171.482C44.7301 172.108 44.6406 173.002 44.1039 173.45L37.7527 178.817C37.216 179.354 36.3215 179.264 35.7847 178.638C35.248 178.012 35.3375 177.117 35.8742 176.67L42.2254 171.303C42.7621 170.766 43.6566 170.855 44.1933 171.482ZM35.9636 178.548C36.4109 179.085 37.1246 179.085 37.6614 178.727L44.0125 173.36C44.4598 172.913 44.5511 172.197 44.1039 171.661C43.6566 171.124 42.941 171.124 42.4043 171.482L36.0531 176.849C35.5164 177.296 35.5164 178.012 35.9636 178.548Z" fill="white"/>
<path d="M47.6786 158.69C48.1258 159.316 47.9469 160.121 47.3207 160.479L31.7559 170.856C31.1297 171.213 30.3246 171.034 29.9668 170.498C29.5196 169.872 29.6985 169.066 30.3246 168.709L45.8895 158.332C46.4262 157.974 47.2313 158.153 47.6786 158.69Z" fill="#F3F3F3"/>
<path d="M47.769 158.69C48.2162 159.316 48.0373 160.211 47.4112 160.658L31.8463 171.034C31.2201 171.482 30.3256 171.303 29.8783 170.587C29.4311 169.961 29.61 169.066 30.2362 168.619L45.801 158.243C46.4272 157.795 47.3217 157.974 47.769 158.69ZM30.0572 170.408C30.4151 170.945 31.1307 171.124 31.6674 170.766L47.2323 160.389C47.769 160.032 47.9479 159.316 47.5006 158.69C47.1428 158.153 46.4262 157.974 45.8895 158.332L30.3246 168.709C29.7879 169.156 29.6994 169.872 30.0572 170.408Z" fill="white"/>
<path d="M34.3503 156.811C34.7081 157.437 34.5292 158.243 33.9031 158.6L26.6574 162.715C26.0312 163.073 25.2261 162.805 24.8683 162.179C24.5105 161.552 24.6894 160.747 25.3156 160.389L32.5613 156.275C33.1874 155.917 33.9925 156.185 34.3503 156.811Z" fill="#F3F3F3"/>
<path d="M34.4398 156.722C34.7976 157.437 34.6187 158.243 33.9925 158.6L26.7468 162.715C26.1206 163.073 25.2261 162.805 24.8683 162.179C24.5105 161.463 24.6894 160.658 25.3156 160.3L32.5613 156.185C33.1874 155.827 34.082 156.096 34.4398 156.722ZM24.9577 162.089C25.3156 162.715 26.0312 162.894 26.5679 162.536L33.8136 158.421C34.3503 158.064 34.5292 157.348 34.2609 156.811C33.9031 156.185 33.1874 156.006 32.6507 156.364L25.405 160.479C24.8683 160.747 24.6894 161.463 24.9577 162.089Z" fill="white"/>
<path d="M40.3432 144.914C40.6116 145.63 40.3432 146.345 39.6276 146.614L22.3631 153.77C21.737 154.038 20.9319 153.68 20.6635 153.054C20.3952 152.339 20.6635 151.623 21.3792 151.355L38.6436 144.198C39.2698 143.93 40.0749 144.198 40.3432 144.914Z" fill="#F3F3F3"/>
<path d="M40.4327 144.825C40.701 145.54 40.4327 146.345 39.7171 146.703L22.4526 153.859C21.737 154.128 20.9319 153.77 20.6635 153.054C20.3952 152.339 20.6635 151.534 21.3792 151.176L38.6436 144.02C39.3592 143.751 40.1643 144.109 40.4327 144.825ZM20.8424 152.965C21.1108 153.591 21.8264 153.859 22.3631 153.68L39.6276 146.524C40.2538 146.256 40.5221 145.54 40.2538 144.914C39.9854 144.288 39.2698 144.02 38.7331 144.198L21.4686 151.355C20.8424 151.623 20.5741 152.339 20.8424 152.965Z" fill="white"/>
<path d="M27.7327 140.441C28.0011 141.157 27.6433 141.873 26.9277 142.141L19.0558 144.735C18.4296 145.004 17.6245 144.556 17.4456 143.93C17.1773 143.214 17.5351 142.499 18.2507 142.23L26.1226 139.636C26.7488 139.368 27.4644 139.726 27.7327 140.441Z" fill="#F3F3F3"/>
<path d="M27.8231 140.352C28.0915 141.068 27.7327 141.873 26.9277 142.141L19.0558 144.735C18.3402 145.004 17.536 144.556 17.2677 143.841C16.9993 143.125 17.3571 142.32 18.1622 142.052L26.0341 139.457C26.7497 139.279 27.5548 139.636 27.8231 140.352ZM17.4466 143.751C17.6255 144.377 18.3411 144.735 18.9673 144.556L26.8391 141.962C27.4653 141.783 27.7337 141.068 27.5548 140.441C27.3759 139.815 26.6602 139.457 26.0341 139.636L18.1622 142.23C17.536 142.499 17.2677 143.125 17.4466 143.751Z" fill="white"/>
<path d="M35.7839 129.796C35.9628 130.512 35.5155 131.228 34.7999 131.317L16.462 134.895C15.7464 135.074 15.1202 134.537 14.9413 133.822C14.7624 133.106 15.2097 132.391 15.9253 132.301L34.2632 128.723C34.9788 128.634 35.6944 129.081 35.7839 129.796Z" fill="#F3F3F3"/>
<path d="M35.9619 129.796C36.1408 130.602 35.6041 131.317 34.8884 131.496L16.5505 135.074C15.8349 135.253 15.1193 134.716 14.9404 133.911C14.7615 133.106 15.2982 132.391 16.0138 132.212L34.3517 128.634C35.0673 128.455 35.783 128.991 35.9619 129.796ZM15.1193 133.822C15.2087 134.448 15.8349 134.895 16.4611 134.806L34.799 131.228C35.4252 131.138 35.8724 130.423 35.6935 129.796C35.6041 129.17 34.9779 128.723 34.3517 128.812L16.0138 132.391C15.3877 132.57 14.9404 133.196 15.1193 133.822Z" fill="white"/>
<path d="M24.3318 122.909C24.4212 123.624 23.9739 124.25 23.2583 124.34L15.0286 125.324C14.313 125.413 13.6868 124.877 13.5974 124.161C13.5079 123.445 13.9552 122.819 14.6708 122.73L22.9005 121.746C23.5267 121.656 24.2423 122.193 24.3318 122.909Z" fill="#F3F3F3"/>
<path d="M24.4206 122.909C24.51 123.714 23.9733 124.429 23.2577 124.519L15.028 125.503C14.3124 125.592 13.5968 125.055 13.5073 124.25C13.4179 123.445 13.9546 122.73 14.6702 122.64L22.8999 121.656C23.6155 121.567 24.3311 122.103 24.4206 122.909ZM13.5974 124.161C13.6868 124.787 14.3124 125.324 14.9386 125.234L23.1682 124.25C23.7944 124.161 24.2417 123.535 24.1522 122.909C24.0628 122.282 23.4366 121.746 22.8104 121.835L14.5807 122.819C13.9546 122.909 13.5079 123.535 13.5974 124.161Z" fill="white"/>
<path d="M34.3517 114.232C34.3517 114.947 33.815 115.573 33.0993 115.573H14.4036C13.688 115.573 13.1513 114.947 13.1513 114.232C13.1513 113.516 13.688 112.89 14.4036 112.89H33.0993C33.815 112.89 34.3517 113.516 34.3517 114.232Z" fill="#F3F3F3"/>
<path d="M34.4421 114.232C34.4421 115.037 33.8159 115.663 33.1003 115.663H14.4046C13.689 115.663 13.0628 115.037 13.0628 114.232C13.0628 113.427 13.689 112.8 14.4046 112.8H33.1003C33.8159 112.8 34.4421 113.427 34.4421 114.232ZM13.2417 114.142C13.2417 114.768 13.7784 115.395 14.4046 115.395H33.1003C33.7265 115.395 34.2632 114.858 34.2632 114.142C34.2632 113.516 33.7255 112.89 33.0993 112.89H14.4036C13.7775 112.979 13.2417 113.516 13.2417 114.142Z" fill="white"/>
<path d="M24.4235 105.197C24.334 105.913 23.7973 106.449 23.0817 106.449L14.7625 105.823C14.0469 105.734 13.5102 105.107 13.5996 104.392C13.6891 103.676 14.2258 103.139 14.9414 103.139L23.2606 103.766C23.8868 103.855 24.4235 104.481 24.4235 105.197Z" fill="#E2E2E2"/>
<path d="M24.5127 105.197C24.4232 106.002 23.7971 106.539 23.0814 106.539L14.7623 105.912C14.0467 105.823 13.4205 105.197 13.5099 104.392C13.5994 103.587 14.2256 103.05 14.9412 103.05L23.2603 103.676C23.976 103.766 24.5127 104.481 24.5127 105.197ZM13.5996 104.392C13.5102 105.018 14.0467 105.644 14.6728 105.644L22.992 106.27C23.6181 106.27 24.1549 105.823 24.2443 105.107C24.3338 104.481 23.7971 103.855 23.1709 103.855L14.8517 103.229C14.2256 103.229 13.6891 103.766 13.5996 104.392Z" fill="white"/>
<path d="M35.9609 98.6668C35.782 99.3824 35.1558 99.8297 34.4402 99.7402L16.1023 95.9832C15.3867 95.8043 14.9394 95.1781 15.1183 94.4625C15.2972 93.7469 15.9234 93.2996 16.639 93.389L34.9769 97.0566C35.6031 97.2355 36.0503 97.9511 35.9609 98.6668Z" fill="#F3F3F3"/>
<path d="M36.0504 98.6668C35.8715 99.4719 35.1558 99.9192 34.4402 99.8297L16.1023 96.1621C15.3867 95.9832 14.85 95.2676 15.0289 94.4625C15.2078 93.6574 15.9234 93.2102 16.639 93.2996L34.9769 96.9672C35.6926 97.1461 36.1398 97.8617 36.0504 98.6668ZM15.2078 94.4625C15.1183 95.0887 15.4761 95.7149 16.1023 95.8938L34.4402 99.5613C35.0664 99.6508 35.6926 99.293 35.8715 98.5774C35.9609 97.9512 35.6031 97.325 34.9769 97.1461L16.639 93.4785C15.9234 93.3891 15.3867 93.8363 15.2078 94.4625Z" fill="white"/>
<path d="M27.9114 87.9324C27.7325 88.6481 27.0169 89.0953 26.3013 88.9164L18.2505 86.6801C17.5349 86.5012 17.1771 85.7856 17.356 85.0699C17.5349 84.3543 18.2505 83.907 18.9661 84.0859L27.0169 86.3223C27.7325 86.5012 28.0903 87.2168 27.9114 87.9324Z" fill="#F3F3F3"/>
<path d="M27.9996 87.9324C27.8206 88.648 27.0169 89.1848 26.3013 88.9164L18.2505 86.6801C17.5349 86.5012 17.0863 85.6961 17.2652 84.9804C17.4441 84.2648 18.2492 83.7281 18.9648 83.9965L27.0156 86.2328C27.7312 86.4117 28.1785 87.1273 27.9996 87.9324ZM17.5335 84.9804C17.3546 85.6066 17.7124 86.3222 18.3386 86.5011L26.3894 88.7375C27.0156 88.9164 27.6417 88.5586 27.8206 87.8429C27.9996 87.2168 27.6431 86.5012 27.0169 86.3223L18.9661 84.0859C18.3399 83.9965 17.7124 84.3543 17.5335 84.9804Z" fill="white"/>
<path d="M40.5237 83.6387C40.2553 84.3543 39.4502 84.6227 38.8241 84.3543L21.5596 77.198C20.9334 76.9297 20.5756 76.1246 20.844 75.4984C21.1123 74.7828 21.9174 74.5145 22.5436 74.7828L39.808 81.9391C40.5237 82.2074 40.792 83.0125 40.5237 83.6387Z" fill="#F3F3F3"/>
<path d="M40.6135 83.7281C40.3452 84.4438 39.5401 84.8016 38.8244 84.5332L21.56 77.377C20.8444 77.1086 20.5756 76.3035 20.844 75.4984C21.1123 74.7828 21.9178 74.425 22.6334 74.6934L39.8979 81.8496C40.6135 82.2074 40.8819 83.0125 40.6135 83.7281ZM21.0233 75.5879C20.7549 76.2141 21.0233 76.9297 21.6494 77.1981L38.9139 84.3543C39.5401 84.6227 40.1662 84.2649 40.4346 83.6387C40.703 83.0125 40.4346 82.2969 39.8084 82.0285L22.544 74.8723C21.9178 74.6934 21.2022 74.9617 21.0233 75.5879Z" fill="white"/>
<path d="M34.711 71.5625C34.3532 72.1887 33.6376 72.457 33.0114 72.1887L25.5868 68.4317C24.9606 68.1633 24.6923 67.3582 25.0501 66.6426C25.4079 66.0164 26.1235 65.7481 26.7497 66.0164L34.1743 69.7734C34.8005 70.1313 35.0689 70.9363 34.711 71.5625Z" fill="#F3F3F3"/>
<path d="M34.8 71.652C34.4421 72.3676 33.6371 72.6359 32.9214 72.2781L25.4968 68.5211C24.7812 68.1633 24.5128 67.3582 24.8707 66.6426C25.2285 65.9269 26.0341 65.6586 26.7497 66.0164L34.1743 69.7734C34.8899 70.0418 35.1578 70.9363 34.8 71.652ZM25.139 66.732C24.8707 67.3582 25.0496 68.0738 25.6757 68.3422L33.1003 72.0992C33.6371 72.3676 34.3532 72.0992 34.711 71.5625C34.9794 70.9363 34.8 70.2207 34.1738 69.9523L26.6597 66.1953C26.123 65.9269 25.4074 66.1059 25.139 66.732Z" fill="white"/>
<path d="M47.8577 69.8629C47.4105 70.4891 46.6948 70.668 46.0687 70.2207L30.5933 59.9336C29.9671 59.5758 29.8776 58.7707 30.2355 58.1445C30.5933 57.5183 31.3983 57.3394 32.0245 57.7867L47.5894 68.1633C48.1261 68.5211 48.305 69.3262 47.8577 69.8629Z" fill="#F3F3F3"/>
<path d="M47.9488 69.9523C47.5016 70.5785 46.607 70.7574 45.9809 70.3996L30.5055 60.023C29.8793 59.5758 29.7004 58.7707 30.1477 58.0551C30.5949 57.4289 31.4895 57.25 32.1156 57.6078L47.591 67.9844C48.3067 68.4316 48.3961 69.3262 47.9488 69.9523ZM30.3266 58.1445C29.9688 58.6813 30.0582 59.4863 30.5949 59.8441L46.1598 70.2207C46.6965 70.5785 47.4121 70.3996 47.7699 69.8629C48.1277 69.3262 48.0383 68.5211 47.5016 68.1633L31.9367 57.7867C31.4 57.4289 30.6844 57.6078 30.3266 58.1445Z" fill="white"/>
<path d="M44.551 56.8922C44.1037 57.4289 43.2986 57.6078 42.7619 57.1605L36.2318 52.0617C35.6951 51.6144 35.6057 50.8094 36.0529 50.2726C36.5002 49.7359 37.3053 49.557 37.842 50.0043L44.3721 55.1031C44.9088 55.5504 44.9983 56.3555 44.551 56.8922Z" fill="#F3F3F3"/>
<path d="M44.6394 56.9816C44.1921 57.6078 43.2976 57.6973 42.6714 57.25L36.1413 52.1512C35.5152 51.7039 35.4257 50.8094 35.873 50.1832C36.3202 49.557 37.2148 49.4676 37.8409 49.9148L44.371 55.0137C44.9972 55.4609 45.0866 56.3555 44.6394 56.9816ZM36.0529 50.2726C35.6057 50.8094 35.6941 51.525 36.2308 51.9723L42.7609 57.0711C43.2976 57.4289 44.0132 57.3395 44.4605 56.8027C44.9077 56.266 44.8183 55.5504 44.2816 55.1031L37.7515 50.0043C37.2148 49.6465 36.5002 49.7359 36.0529 50.2726Z" fill="white"/>
<path d="M57.8792 57.7867C57.3425 58.3234 56.5374 58.3234 56.0901 57.7867L42.7616 44.6371C42.2249 44.1004 42.3144 43.2953 42.7616 42.848C43.2983 42.3113 44.1034 42.3113 44.5507 42.848L57.7897 55.9977C58.3265 56.4449 58.3265 57.3395 57.8792 57.7867Z" fill="#F3F3F3"/>
<path d="M57.8783 57.8762C57.3416 58.4129 56.4471 58.4129 55.9104 57.8762L42.6713 44.7266C42.1346 44.1898 42.1346 43.2953 42.6713 42.7586C43.208 42.2219 44.1025 42.2219 44.6393 42.7586L57.8783 55.9082C58.5045 56.4449 58.5045 57.3395 57.8783 57.8762ZM42.8502 42.9375C42.4029 43.3848 42.4029 44.1898 42.8502 44.6371L56.0901 57.7867C56.5374 58.234 57.3416 58.234 57.7889 57.7867C58.2361 57.3395 58.2361 56.5344 57.7889 56.0871L44.5507 42.848C44.1034 42.4008 43.3869 42.4008 42.8502 42.9375Z" fill="white"/>
<path d="M57.0725 44.4582C56.5358 44.9055 55.7307 44.9055 55.2834 44.3688L49.8268 38.107C49.3795 37.5703 49.469 36.7652 50.0057 36.318C50.5424 35.8707 51.3475 35.8707 51.7948 36.4074L57.2514 42.6691C57.6987 43.1164 57.6092 43.9215 57.0725 44.4582Z" fill="#F3F3F3"/>
<path d="M57.1636 44.4582C56.5374 44.9949 55.7323 44.9055 55.1956 44.3687L49.7389 38.107C49.2022 37.5703 49.2917 36.6758 49.9179 36.139C50.544 35.6023 51.3491 35.6918 51.8858 36.2285L57.3425 42.4902C57.7897 43.1164 57.7897 44.0109 57.1636 44.4582ZM50.0057 36.318C49.469 36.7652 49.4706 37.4808 49.8284 38.0176L55.285 44.2793C55.7323 44.7265 56.4479 44.816 56.9846 44.3687C57.5214 43.9215 57.5214 43.2058 57.1636 42.6691L51.7069 36.4074C51.2597 35.8707 50.5424 35.8707 50.0057 36.318Z" fill="white"/>
<path d="M69.9536 47.8574C69.3274 48.3047 68.5223 48.1258 68.1645 47.4996L57.6985 32.0242C57.3407 31.398 57.5196 30.593 58.0563 30.2351C58.6825 29.7879 59.4875 29.9668 59.8454 30.593L70.2219 46.0683C70.6692 46.6945 70.4903 47.4996 69.9536 47.8574Z" fill="#F3F3F3"/>
<path d="M69.9545 47.9469C69.3283 48.3941 68.4338 48.2152 67.9865 47.5891L57.61 32.1137C57.1627 31.4875 57.3416 30.593 58.0572 30.1457C58.6834 29.6984 59.5779 29.8773 60.0252 30.5035L70.4018 45.9789C70.849 46.6945 70.6701 47.4996 69.9545 47.9469ZM58.1467 30.3246C57.61 30.6824 57.4311 31.398 57.7889 31.9348L68.1654 47.4101C68.5233 47.9469 69.2389 48.0363 69.8651 47.6785C70.4018 47.3207 70.5797 46.6051 70.2219 46.0683L59.8463 30.6824C59.4885 30.1457 58.6834 29.9668 58.1467 30.3246Z" fill="white"/>
<path d="M71.8331 34.6184C71.207 34.9762 70.4019 34.7973 70.0441 34.1711L65.9292 26.9254C65.5714 26.2992 65.8398 25.4941 66.4659 25.1363C67.0921 24.7785 67.8972 24.9574 68.255 25.5836L72.3698 32.8293C72.6382 33.4555 72.4593 34.2606 71.8331 34.6184Z" fill="#F3F3F3"/>
<path d="M71.8335 34.7078C71.1179 35.0656 70.3128 34.8867 69.955 34.2606L65.8401 27.0148C65.4823 26.3887 65.6612 25.4941 66.3769 25.1363C67.0925 24.7785 67.8972 24.9574 68.255 25.5836L72.3698 32.8293C72.7277 33.4555 72.5491 34.2606 71.8335 34.7078ZM66.4663 25.2258C65.9296 25.5836 65.6612 26.2992 66.019 26.8359L70.1339 34.0816C70.4917 34.6184 71.2073 34.7973 71.744 34.5289C72.2808 34.1711 72.5491 33.4555 72.1913 32.9188L68.0765 25.6731C67.8081 25.1363 67.003 24.868 66.4663 25.2258Z" fill="white"/>
<path d="M83.7305 40.5223C83.0149 40.7906 82.2992 40.5223 82.0309 39.8961L74.7852 22.6317C74.5168 22.0055 74.8746 21.2004 75.5008 20.932C76.2164 20.6637 76.932 20.932 77.2004 21.5582L84.4461 38.8227C84.7145 39.4488 84.3567 40.2539 83.7305 40.5223Z" fill="#F3F3F3"/>
<path d="M83.7314 40.6117C83.0157 40.8801 82.2107 40.6117 81.8529 39.8961L74.6071 22.6316C74.3388 21.916 74.6966 21.1109 75.4122 20.8426C76.1279 20.5742 76.9329 20.8426 77.2907 21.5582L84.5364 38.8227C84.8048 39.4488 84.447 40.2539 83.7314 40.6117ZM75.5911 21.0215C74.965 21.2898 74.6966 22.0055 74.965 22.5422L82.2107 39.8066C82.479 40.4328 83.1946 40.7012 83.8208 40.4328C84.447 40.1645 84.7154 39.4488 84.447 38.9121L77.2013 21.6477C76.8435 21.0215 76.2173 20.7531 75.5911 21.0215Z" fill="white"/>
<path d="M88.1136 27.8199C87.3979 28.0883 86.6823 27.7305 86.414 27.0148L83.8198 19.143C83.5515 18.5168 83.9987 17.7117 84.6249 17.5328C85.2511 17.3539 86.0562 17.6223 86.3245 18.3379L88.9187 26.2098C89.187 26.8359 88.8292 27.5515 88.1136 27.8199Z" fill="#F3F3F3"/>
<path d="M88.2023 27.9094C87.4867 28.1777 86.6816 27.8199 86.4132 27.1043L83.8191 19.2324C83.5507 18.5168 83.998 17.7117 84.7136 17.4434C85.4293 17.175 86.2343 17.5328 86.5027 18.2484L89.0968 26.1203C89.2757 26.8359 88.9179 27.641 88.2023 27.9094ZM84.7136 17.6223C84.0875 17.8012 83.7296 18.5168 83.9086 19.143L86.5027 27.0149C86.6816 27.641 87.3972 27.9094 88.0234 27.7305C88.6496 27.5516 89.0074 26.8359 88.8285 26.2098L86.2343 18.3379C86.0554 17.7117 85.3398 17.3539 84.7136 17.6223Z" fill="white"/>
<path d="M98.6676 35.9602C97.9519 36.1391 97.2363 35.6918 97.1469 34.9762L93.3898 16.6383C93.2109 15.9227 93.7476 15.2965 94.4633 15.1176C95.1789 14.9387 95.8945 15.386 95.984 16.1016L99.741 34.4395C99.8304 35.0656 99.3832 35.7813 98.6676 35.9602Z" fill="#F3F3F3"/>
<path d="M98.6695 36.0496C97.8644 36.2285 97.1488 35.6918 96.9699 34.9762L93.2128 16.6383C93.0339 15.9226 93.5706 15.1176 94.2863 15.0281C95.0914 14.8492 95.8051 15.386 95.984 16.1016L99.741 34.4395C99.9199 35.1551 99.4746 35.8707 98.6695 36.0496ZM94.4652 15.207C93.839 15.2965 93.3917 15.9226 93.4812 16.6383L97.2382 34.9762C97.3277 35.6023 98.0433 36.0496 98.6695 35.8707C99.2957 35.7812 99.7429 35.1551 99.6535 34.4394L95.8964 16.1016C95.7175 15.4754 95.0914 15.1176 94.4652 15.207Z" fill="white"/>
<path d="M105.466 24.3313C104.75 24.4207 104.124 23.9734 103.945 23.2578L102.872 15.0281C102.782 14.3125 103.319 13.6863 104.035 13.5969C104.75 13.5074 105.377 13.9547 105.556 14.6703L106.629 22.9C106.718 23.6156 106.182 24.2418 105.466 24.3313Z" fill="#F3F3F3"/>
<path d="M105.467 24.4207C104.662 24.5101 103.946 23.9734 103.857 23.2578L102.783 15.0281C102.694 14.3125 103.231 13.5969 104.036 13.5074C104.841 13.418 105.556 13.9547 105.646 14.6703L106.719 22.9C106.809 23.6156 106.272 24.3312 105.467 24.4207ZM104.125 13.6863C103.499 13.7758 102.962 14.4019 103.052 15.0281L104.125 23.2578C104.215 23.884 104.841 24.3312 105.467 24.2418C106.093 24.1523 106.63 23.5262 106.54 22.9L105.467 14.6703C105.378 14.0441 104.751 13.5969 104.125 13.6863Z" fill="white"/>
<path d="M115.127 220.323C173.621 220.323 221.04 172.904 221.04 114.411C221.04 55.9167 173.621 8.49805 115.127 8.49805C56.6333 8.49805 9.21463 55.9167 9.21463 114.411C9.21463 172.904 56.6333 220.323 115.127 220.323Z" fill="url(#paint2_linear_470_41)" fill-opacity="0.2"/>
<path d="M188.476 47.2313L103.048 101.977H102.959V102.066L102.869 102.155L49.5551 190.088L127.916 127.023L128.006 126.934V126.845L188.476 47.2313Z" fill="black" fill-opacity="0.05"/>
<path d="M186.867 42.1324L102.423 102.155L127.47 127.023L186.867 42.1324Z" fill="#CD151E"/>
<path d="M102.511 101.977L115.124 114.411L186.867 42.1324L102.511 101.977Z" fill="#FA5153"/>
<path d="M102.511 101.977L127.558 126.845L43.1145 186.868L102.511 101.977Z" fill="#ACACAC"/>
<path d="M43.1145 186.868L115.124 114.411L102.511 101.977L43.1145 186.868Z" fill="#EEEEEE"/>
<defs>
<linearGradient id="paint0_linear_470_41" x1="11450" y1="22900" x2="11450" y2="0" gradientUnits="userSpaceOnUse">
<stop offset="0.25" stop-color="#DBDBDA"/>
<stop offset="1" stop-color="white"/>
</linearGradient>
<radialGradient id="paint1_radial_470_41" cx="0" cy="0" r="1" gradientUnits="userSpaceOnUse" gradientTransform="translate(13058.8 8934.83) scale(13976.2)">
<stop stop-color="#2ABCE1"/>
<stop offset="0.113629" stop-color="#2ABBE1"/>
<stop offset="1" stop-color="#3375F8"/>
</radialGradient>
<linearGradient id="paint2_linear_470_41" x1="11232.5" y1="8176.09" x2="5888.25" y2="17764" gradientUnits="userSpaceOnUse">
<stop stop-opacity="0"/>
<stop offset="1"/>
</linearGradient>
</defs>
</svg>
