<svg width="48" height="48" viewBox="0 0 48 48" fill="none" xmlns="http://www.w3.org/2000/svg">
<g filter="url(#filter0_d_432_87)">
<path d="M24.0312 29.0625C30.1236 29.0625 35.0625 24.1236 35.0625 18.0312C35.0625 11.9389 30.1236 7 24.0312 7C17.9389 7 13 11.9389 13 18.0312C13 24.1236 17.9389 29.0625 24.0312 29.0625Z" fill="url(#paint0_linear_432_87)"/>
</g>
<path d="M24.0311 28.2352C29.6665 28.2352 34.235 23.6667 34.235 18.0312C34.235 12.3958 29.6665 7.82734 24.0311 7.82734C18.3956 7.82734 13.8271 12.3958 13.8271 18.0312C13.8271 23.6667 18.3956 28.2352 24.0311 28.2352Z" fill="url(#paint1_radial_432_87)"/>
<path d="M24.0487 10.3094C23.9798 10.3094 23.9194 10.2577 23.9194 10.1887V8.38752C23.9194 8.31858 23.9798 8.26687 24.0487 8.26687C24.1177 8.26687 24.178 8.31858 24.178 8.38752V10.1887C24.1694 10.2577 24.1177 10.3094 24.0487 10.3094Z" fill="#F3F3F3"/>
<path d="M24.0485 10.318C23.971 10.318 23.9106 10.2577 23.9106 10.1887V8.38752C23.9106 8.31858 23.971 8.25825 24.0485 8.25825C24.1261 8.25825 24.1864 8.31858 24.1864 8.38752V10.1887C24.1864 10.2577 24.1175 10.318 24.0485 10.318ZM24.0485 8.27549C23.9882 8.27549 23.9279 8.3272 23.9279 8.38752V10.1887C23.9279 10.249 23.9796 10.3008 24.0485 10.3008C24.1089 10.3008 24.1692 10.249 24.1692 10.1887V8.38752C24.1606 8.3272 24.1089 8.27549 24.0485 8.27549Z" fill="white"/>
<path d="M24.9102 9.34414C24.8413 9.33552 24.7896 9.28381 24.7896 9.21486L24.8499 8.41338C24.8585 8.34443 24.9188 8.29272 24.9878 8.30134C25.0567 8.30996 25.1084 8.36167 25.1084 8.43061L25.0481 9.2321C25.0395 9.30105 24.9792 9.35276 24.9102 9.34414Z" fill="#F3F3F3"/>
<path d="M24.9105 9.35276C24.833 9.34414 24.7812 9.28381 24.7812 9.21487L24.8416 8.41338C24.8502 8.34443 24.9105 8.28411 24.9881 8.29272C25.0656 8.30134 25.1174 8.36167 25.1174 8.43061L25.057 9.2321C25.0484 9.30967 24.9881 9.36138 24.9105 9.35276ZM24.9881 8.30996C24.9278 8.30996 24.8674 8.35305 24.8674 8.41338L24.8071 9.21487C24.8071 9.27519 24.8502 9.3269 24.9191 9.33552C24.9795 9.33552 25.0398 9.29243 25.0398 9.2321L25.1001 8.43061C25.1001 8.37029 25.0484 8.31858 24.9881 8.30996Z" fill="white"/>
<path d="M25.5571 10.4645C25.4882 10.4473 25.4451 10.3869 25.4537 10.318L25.8071 8.55127C25.8243 8.48233 25.8846 8.43924 25.9536 8.45647C26.0225 8.47371 26.0656 8.53404 26.057 8.60298L25.7037 10.3697C25.695 10.43 25.6261 10.4731 25.5571 10.4645Z" fill="#F3F3F3"/>
<path d="M25.5565 10.4731C25.4789 10.4559 25.4358 10.3869 25.4444 10.318L25.7978 8.55127C25.815 8.48232 25.884 8.43062 25.9615 8.44785C26.0391 8.46509 26.0822 8.53403 26.0736 8.60298L25.7202 10.3697C25.703 10.4386 25.634 10.4817 25.5565 10.4731ZM25.9615 8.46509C25.9012 8.45647 25.8409 8.49094 25.8236 8.55127L25.4703 10.318C25.4617 10.3783 25.4962 10.4386 25.5651 10.4559C25.6254 10.4645 25.6858 10.43 25.703 10.3697L26.0563 8.60298C26.065 8.53403 26.0219 8.48232 25.9615 8.46509Z" fill="white"/>
<path d="M26.5908 9.68887C26.5218 9.67163 26.4788 9.60268 26.496 9.53374L26.7114 8.7581C26.7287 8.68916 26.7976 8.65469 26.8666 8.67192C26.9355 8.68916 26.9786 8.7581 26.9614 8.82705L26.7459 9.60268C26.7287 9.67163 26.6597 9.7061 26.5908 9.68887Z" fill="#F3F3F3"/>
<path d="M26.5908 9.69749C26.5219 9.68025 26.4702 9.60269 26.496 9.53374L26.7115 8.75811C26.7287 8.68916 26.8063 8.64607 26.8752 8.66331C26.9442 8.68054 26.9959 8.75811 26.97 8.82705L26.7546 9.60269C26.7373 9.67163 26.6684 9.71472 26.5908 9.69749ZM26.8752 8.68916C26.8149 8.67193 26.746 8.7064 26.7287 8.76673L26.5133 9.54236C26.496 9.60269 26.5305 9.66302 26.5994 9.68025C26.6598 9.69749 26.7287 9.66302 26.746 9.60269L26.9614 8.82705C26.97 8.76673 26.9356 8.7064 26.8752 8.68916Z" fill="white"/>
<path d="M27.0134 10.904C26.9444 10.8782 26.9186 10.8006 26.9444 10.7403L27.6339 9.07698C27.6597 9.01665 27.7373 8.98218 27.7976 9.01665C27.8665 9.04251 27.8924 9.12007 27.8665 9.1804L27.1771 10.8437C27.1512 10.904 27.0737 10.9385 27.0134 10.904Z" fill="#F3F3F3"/>
<path d="M27.0129 10.9126C26.944 10.8868 26.9095 10.8092 26.9353 10.7403L27.6248 9.07698C27.6506 9.00803 27.7282 8.98218 27.8058 9.00803C27.8747 9.03389 27.9092 9.11145 27.8833 9.1804L27.1939 10.8437C27.1594 10.9126 27.0819 10.9471 27.0129 10.9126ZM27.7972 9.02527C27.7368 8.99942 27.6679 9.02527 27.642 9.0856L26.9526 10.7489C26.9267 10.8092 26.9612 10.8696 27.0215 10.8954C27.0819 10.9213 27.1508 10.8954 27.1766 10.8351L27.8661 9.17178C27.8833 9.12007 27.8575 9.05112 27.7972 9.02527Z" fill="white"/>
<path d="M28.1768 10.3525C28.1164 10.318 28.0906 10.249 28.1164 10.1887L28.4784 9.47341C28.5129 9.41308 28.5818 9.38723 28.6508 9.4217C28.7111 9.45617 28.7369 9.52512 28.7111 9.58545L28.3491 10.3008C28.3146 10.3611 28.2457 10.3869 28.1768 10.3525Z" fill="#F3F3F3"/>
<path d="M28.1766 10.3611C28.1077 10.3266 28.0818 10.249 28.1163 10.1801L28.4782 9.46479C28.5127 9.39585 28.5903 9.36999 28.6592 9.40447C28.7282 9.43894 28.754 9.5165 28.7195 9.58545L28.3576 10.3008C28.3231 10.3697 28.2455 10.3956 28.1766 10.3611ZM28.6506 9.4217C28.5903 9.39585 28.5213 9.41308 28.4955 9.47341L28.1335 10.1887C28.1077 10.2404 28.1335 10.3094 28.1852 10.3438C28.2456 10.3697 28.3145 10.3525 28.3403 10.2921L28.7023 9.57683C28.7282 9.52512 28.7023 9.45617 28.6506 9.4217Z" fill="white"/>
<path d="M28.3489 11.628C28.2886 11.5849 28.2714 11.5073 28.3145 11.4556L29.3142 9.96465C29.3486 9.90432 29.4262 9.8957 29.4865 9.93017C29.5469 9.97326 29.5641 10.0508 29.521 10.1025L28.5213 11.5935C28.4868 11.6538 28.4093 11.671 28.3489 11.628Z" fill="#F3F3F3"/>
<path d="M28.3492 11.6366C28.2889 11.5935 28.2717 11.5073 28.3061 11.447L29.3059 9.95603C29.3489 9.8957 29.4265 9.87847 29.4955 9.92156C29.5558 9.96465 29.573 10.0508 29.5385 10.1112L28.5388 11.6021C28.4957 11.6624 28.4096 11.6797 28.3492 11.6366ZM29.4868 9.93879C29.4351 9.90432 29.3576 9.91294 29.3231 9.96465L28.3234 11.4556C28.2889 11.5073 28.3061 11.5762 28.3579 11.6107C28.4096 11.6452 28.4871 11.6366 28.5216 11.5849L29.5213 10.1025C29.5558 10.0508 29.5385 9.97327 29.4868 9.93879Z" fill="white"/>
<path d="M29.6069 11.3091C29.5552 11.266 29.538 11.1884 29.5811 11.1367L30.0809 10.5076C30.124 10.4559 30.2016 10.4473 30.2533 10.4904C30.305 10.5334 30.3222 10.611 30.2791 10.6627L29.7793 11.2918C29.7362 11.3436 29.6586 11.3522 29.6069 11.3091Z" fill="#F3F3F3"/>
<path d="M29.5987 11.3177C29.5384 11.2746 29.5297 11.1884 29.5728 11.1281L30.0727 10.499C30.1158 10.4386 30.202 10.43 30.2623 10.4817C30.3226 10.5248 30.3312 10.611 30.2881 10.6713L29.7883 11.3005C29.7452 11.3608 29.659 11.3694 29.5987 11.3177ZM30.245 10.499C30.1933 10.4559 30.1244 10.4645 30.0813 10.5162L29.5814 11.1453C29.547 11.197 29.5556 11.266 29.6073 11.3091C29.659 11.3522 29.728 11.3436 29.771 11.2918L30.2709 10.6627C30.3054 10.611 30.2968 10.5334 30.245 10.499Z" fill="white"/>
<path d="M29.5212 12.6018C29.4695 12.5501 29.4695 12.4725 29.5212 12.4294L30.7967 11.1626C30.8484 11.1109 30.926 11.1195 30.9691 11.1626C31.0121 11.2057 31.0208 11.2918 30.9691 11.3349L29.7022 12.6018C29.6505 12.6535 29.5729 12.6535 29.5212 12.6018Z" fill="#F3F3F3"/>
<path d="M29.5124 12.6104C29.4607 12.5587 29.4607 12.4725 29.5124 12.4208L30.7879 11.154C30.8396 11.1022 30.9258 11.1022 30.9775 11.154C31.0292 11.2057 31.0292 11.2918 30.9775 11.3436L29.702 12.6104C29.6503 12.6621 29.5641 12.6621 29.5124 12.6104ZM30.9689 11.1626C30.9258 11.1195 30.8482 11.1195 30.8051 11.1626L29.5297 12.4294C29.4866 12.4725 29.4866 12.5501 29.5297 12.5932C29.5727 12.6363 29.6503 12.6363 29.6934 12.5932L30.9689 11.3263C31.012 11.2832 31.012 11.2143 30.9689 11.1626Z" fill="white"/>
<path d="M30.814 12.5329C30.7709 12.4812 30.7709 12.4036 30.8226 12.3605L31.4345 11.8434C31.4862 11.8003 31.5638 11.8089 31.6069 11.8606C31.65 11.9124 31.65 11.9899 31.5983 12.033L30.9864 12.5501C30.9347 12.5932 30.8571 12.5846 30.814 12.5329Z" fill="#F3F3F3"/>
<path d="M30.8052 12.5415C30.7535 12.4812 30.7622 12.395 30.8139 12.3519L31.4258 11.8348C31.4775 11.7831 31.5636 11.7917 31.6154 11.852C31.6671 11.9124 31.6584 11.9985 31.6067 12.0416L30.9948 12.5587C30.9431 12.6104 30.857 12.6018 30.8052 12.5415ZM31.5981 11.8606C31.555 11.8089 31.4861 11.8089 31.4344 11.8434L30.8225 12.3605C30.7794 12.4036 30.7708 12.4725 30.8139 12.5242C30.857 12.5759 30.9259 12.576 30.9776 12.5415L31.5895 12.0244C31.6412 11.9813 31.6412 11.9124 31.5981 11.8606Z" fill="white"/>
<path d="M30.4688 13.7739C30.4257 13.7136 30.4429 13.636 30.5032 13.6015L32.0028 12.6018C32.0631 12.5673 32.1407 12.5846 32.1752 12.6363C32.2182 12.6966 32.201 12.7742 32.1407 12.8086L30.6411 13.8084C30.5894 13.8428 30.5119 13.8256 30.4688 13.7739Z" fill="#F3F3F3"/>
<path d="M30.4605 13.7739C30.4174 13.7136 30.4346 13.6274 30.4949 13.5843L31.9945 12.5846C32.0548 12.5415 32.141 12.5587 32.1841 12.6277C32.2272 12.688 32.2099 12.7742 32.1496 12.8173L30.6501 13.817C30.5897 13.8601 30.5036 13.8428 30.4605 13.7739ZM32.1669 12.6449C32.1324 12.5932 32.0634 12.576 32.0117 12.6104L30.5122 13.6101C30.4605 13.6446 30.4432 13.7136 30.4863 13.7739C30.5208 13.8256 30.5897 13.8428 30.6414 13.8084L32.141 12.8086C32.1927 12.7656 32.2013 12.6966 32.1669 12.6449Z" fill="white"/>
<path d="M31.7534 13.9549C31.7189 13.8945 31.7362 13.817 31.7965 13.7825L32.4946 13.3861C32.5549 13.3516 32.6325 13.3774 32.6669 13.4378C32.7014 13.4981 32.6842 13.5757 32.6238 13.6101L31.9258 14.0066C31.8654 14.041 31.7879 14.0152 31.7534 13.9549Z" fill="#F3F3F3"/>
<path d="M31.7446 13.9635C31.7101 13.8945 31.7274 13.817 31.7877 13.7825L32.4858 13.3861C32.5461 13.3516 32.6323 13.3774 32.6668 13.4378C32.7012 13.5067 32.684 13.5843 32.6237 13.6188L31.9256 14.0152C31.8653 14.0497 31.7791 14.0238 31.7446 13.9635ZM32.6581 13.4464C32.6237 13.3861 32.5547 13.3688 32.503 13.4033L31.8049 13.7997C31.7532 13.8342 31.736 13.9032 31.7619 13.9549C31.7963 14.0152 31.8653 14.0324 31.917 13.998L32.6151 13.6015C32.6668 13.5757 32.684 13.5067 32.6581 13.4464Z" fill="white"/>
<path d="M31.1758 15.1011C31.15 15.0321 31.1759 14.9632 31.2448 14.9373L32.9081 14.2479C32.9684 14.222 33.046 14.2565 33.0718 14.3168C33.0977 14.3858 33.0718 14.4547 33.0029 14.4806L31.3396 15.17C31.2793 15.1959 31.2017 15.17 31.1758 15.1011Z" fill="#F3F3F3"/>
<path d="M31.1671 15.1097C31.1412 15.0407 31.1671 14.9632 31.236 14.9287L32.8993 14.2393C32.9683 14.2134 33.0458 14.2479 33.0717 14.3168C33.0975 14.3858 33.0717 14.4633 33.0027 14.4978L31.3394 15.1873C31.2705 15.2131 31.1929 15.1786 31.1671 15.1097ZM33.0544 14.3254C33.0286 14.2651 32.9596 14.2393 32.9079 14.2565L31.2446 14.9459C31.1843 14.9718 31.1584 15.0407 31.1843 15.1011C31.2102 15.1614 31.2791 15.1873 31.3308 15.17L32.9941 14.4806C33.0544 14.4547 33.0803 14.3858 33.0544 14.3254Z" fill="white"/>
<path d="M32.3909 15.532C32.3651 15.463 32.3995 15.3941 32.4685 15.3682L33.2269 15.1183C33.2872 15.0925 33.3648 15.1355 33.382 15.1959C33.4079 15.2648 33.3734 15.3338 33.3044 15.3596L32.546 15.6095C32.4857 15.6354 32.4168 15.6009 32.3909 15.532Z" fill="#F3F3F3"/>
<path d="M32.3825 15.5406C32.3567 15.4717 32.3911 15.3941 32.4687 15.3682L33.2271 15.1183C33.296 15.0925 33.3736 15.1355 33.3995 15.2045C33.4253 15.2734 33.3908 15.351 33.3133 15.3769L32.5549 15.6268C32.4859 15.644 32.4084 15.6095 32.3825 15.5406ZM33.3822 15.2131C33.365 15.1528 33.296 15.1183 33.2357 15.1355L32.4773 15.3855C32.417 15.4027 32.3911 15.4717 32.4084 15.532C32.4256 15.5923 32.4945 15.6268 32.5549 15.6095L33.3133 15.3596C33.3736 15.3338 33.3995 15.2734 33.3822 15.2131Z" fill="white"/>
<path d="M31.6151 16.5575C31.5979 16.4886 31.641 16.4197 31.7099 16.411L33.4767 16.0663C33.5456 16.0491 33.6059 16.1008 33.6232 16.1697C33.6404 16.2387 33.5973 16.3076 33.5284 16.3162L31.7616 16.661C31.6927 16.6696 31.6237 16.6265 31.6151 16.5575Z" fill="#F3F3F3"/>
<path d="M31.5981 16.5575C31.5808 16.48 31.6325 16.411 31.7015 16.3938L33.4682 16.0491C33.5372 16.0318 33.6061 16.0835 33.6233 16.1611C33.6406 16.2387 33.5889 16.3076 33.5199 16.3249L31.7532 16.6696C31.6842 16.6868 31.6153 16.6351 31.5981 16.5575ZM33.6061 16.1697C33.5975 16.1094 33.5372 16.0663 33.4768 16.0749L31.7101 16.4197C31.6498 16.4283 31.6067 16.4972 31.6239 16.5575C31.6325 16.6179 31.6929 16.661 31.7532 16.6523L33.5199 16.3076C33.5802 16.2904 33.6233 16.2301 33.6061 16.1697Z" fill="white"/>
<path d="M32.7184 17.2211C32.7098 17.1522 32.7529 17.0919 32.8218 17.0833L33.6147 16.9885C33.6836 16.9798 33.7439 17.0315 33.7526 17.1005C33.7612 17.1694 33.7181 17.2298 33.6491 17.2384L32.8563 17.3332C32.7959 17.3418 32.727 17.2901 32.7184 17.2211Z" fill="#F3F3F3"/>
<path d="M32.7094 17.2211C32.7008 17.1436 32.7525 17.0746 32.8215 17.066L33.6143 16.9712C33.6833 16.9626 33.7522 17.0143 33.7609 17.0919C33.7695 17.1694 33.7178 17.2384 33.6488 17.247L32.8559 17.3418C32.787 17.3504 32.7181 17.2987 32.7094 17.2211ZM33.7522 17.1005C33.7436 17.0402 33.6833 16.9884 33.623 16.9971L32.8301 17.0919C32.7698 17.1005 32.7267 17.1608 32.7353 17.2211C32.7439 17.2815 32.8042 17.3332 32.8646 17.3246L33.6574 17.2298C33.7178 17.2211 33.7609 17.1608 33.7522 17.1005Z" fill="white"/>
<path d="M31.7529 18.0571C31.7529 17.9882 31.8046 17.9278 31.8736 17.9278H33.6748C33.7437 17.9278 33.7954 17.9882 33.7954 18.0571C33.7954 18.1261 33.7437 18.1864 33.6748 18.1864H31.8736C31.8046 18.1864 31.7529 18.1261 31.7529 18.0571Z" fill="#F3F3F3"/>
<path d="M31.7446 18.0571C31.7446 17.9795 31.805 17.9192 31.8739 17.9192H33.6751C33.744 17.9192 33.8044 17.9795 33.8044 18.0571C33.8044 18.1347 33.744 18.195 33.6751 18.195H31.8739C31.805 18.195 31.7446 18.1347 31.7446 18.0571ZM33.7871 18.0657C33.7871 18.0054 33.7354 17.9451 33.6751 17.9451H31.8739C31.8136 17.9451 31.7619 17.9968 31.7619 18.0657C31.7619 18.126 31.8136 18.1864 31.8739 18.1864H33.6751C33.7354 18.1778 33.7871 18.126 33.7871 18.0657Z" fill="white"/>
<path d="M32.71 18.9275C32.7186 18.8586 32.7703 18.8069 32.8392 18.8069L33.6407 18.8672C33.7097 18.8758 33.7614 18.9362 33.7528 19.0051C33.7441 19.074 33.6924 19.1258 33.6235 19.1258L32.822 19.0654C32.7617 19.0568 32.71 18.9965 32.71 18.9275Z" fill="#F3F3F3"/>
<path d="M32.7012 18.9275C32.7098 18.85 32.7701 18.7983 32.8391 18.7983L33.6406 18.8586C33.7095 18.8672 33.7698 18.9275 33.7612 19.0051C33.7526 19.0827 33.6923 19.1344 33.6233 19.1344L32.8218 19.074C32.7529 19.0654 32.7012 18.9965 32.7012 18.9275ZM33.7526 19.0051C33.7612 18.9448 33.7095 18.8844 33.6492 18.8844L32.8477 18.8241C32.7874 18.8241 32.7356 18.8672 32.727 18.9362C32.7184 18.9965 32.7701 19.0568 32.8304 19.0568L33.6319 19.1171C33.6923 19.1171 33.744 19.0654 33.7526 19.0051Z" fill="white"/>
<path d="M31.5983 19.5567C31.6155 19.4877 31.6758 19.4446 31.7448 19.4532L33.5115 19.8066C33.5804 19.8238 33.6235 19.8841 33.6063 19.9531C33.5891 20.022 33.5287 20.0651 33.4598 20.0565L31.6931 19.7032C31.6327 19.6945 31.5896 19.6256 31.5983 19.5567Z" fill="#F3F3F3"/>
<path d="M31.5895 19.5567C31.6067 19.4791 31.6757 19.436 31.7446 19.4446L33.5113 19.798C33.5803 19.8152 33.632 19.8842 33.6147 19.9617C33.5975 20.0393 33.5286 20.0824 33.4596 20.0738L31.6929 19.7204C31.6239 19.7032 31.5809 19.6342 31.5895 19.5567ZM33.5975 19.9617C33.6061 19.9014 33.5716 19.8411 33.5113 19.8238L31.7446 19.4705C31.6843 19.4619 31.6239 19.4963 31.6067 19.5653C31.5981 19.6256 31.6326 19.6859 31.6929 19.7032L33.4596 20.0565C33.5286 20.0651 33.5803 20.022 33.5975 19.9617Z" fill="white"/>
<path d="M32.3735 20.5908C32.3908 20.5219 32.4597 20.4788 32.5287 20.496L33.3043 20.7115C33.3732 20.7287 33.4077 20.7977 33.3905 20.8666C33.3732 20.9356 33.3043 20.9787 33.2353 20.9614L32.4597 20.746C32.3908 20.7287 32.3563 20.6598 32.3735 20.5908Z" fill="#F3F3F3"/>
<path d="M32.3651 20.5908C32.3824 20.5219 32.4599 20.4702 32.5289 20.496L33.3045 20.7115C33.3735 20.7287 33.4165 20.8063 33.3993 20.8752C33.3821 20.9442 33.3045 20.9959 33.2356 20.97L32.4599 20.7546C32.391 20.7373 32.3479 20.6684 32.3651 20.5908ZM33.3735 20.8752C33.3907 20.8149 33.3562 20.746 33.2959 20.7287L32.5203 20.5133C32.4599 20.496 32.3996 20.5305 32.3824 20.5995C32.3651 20.6598 32.3996 20.7287 32.4599 20.746L33.2356 20.9614C33.2959 20.97 33.3562 20.9356 33.3735 20.8752Z" fill="white"/>
<path d="M31.1583 21.0045C31.1841 20.9356 31.2617 20.9097 31.322 20.9356L32.9853 21.625C33.0456 21.6509 33.0801 21.7284 33.0543 21.7888C33.0284 21.8577 32.9508 21.8836 32.8905 21.8577L31.2272 21.1683C31.1583 21.1424 31.1324 21.0648 31.1583 21.0045Z" fill="#F3F3F3"/>
<path d="M31.15 20.9959C31.1758 20.927 31.2534 20.8925 31.3223 20.9183L32.9856 21.6078C33.0546 21.6336 33.0804 21.7112 33.0546 21.7888C33.0287 21.8577 32.9512 21.8922 32.8822 21.8663L31.2189 21.1769C31.15 21.1424 31.1241 21.0648 31.15 20.9959ZM33.0373 21.7802C33.0632 21.7198 33.0373 21.6509 32.977 21.625L31.3137 20.9356C31.2534 20.9097 31.1931 20.9442 31.1672 21.0045C31.1414 21.0648 31.1672 21.1338 31.2275 21.1596L32.8908 21.8491C32.9512 21.8663 33.0201 21.8405 33.0373 21.7802Z" fill="white"/>
<path d="M31.7191 22.168C31.7535 22.1076 31.8225 22.0818 31.8828 22.1076L32.5981 22.4696C32.6584 22.4955 32.6843 22.573 32.6498 22.642C32.6153 22.7023 32.5464 22.7281 32.4861 22.7023L31.7708 22.3403C31.7104 22.3059 31.6846 22.2283 31.7191 22.168Z" fill="#F3F3F3"/>
<path d="M31.71 22.1593C31.7445 22.0904 31.8221 22.0645 31.891 22.099L32.6063 22.461C32.6753 22.4955 32.7011 22.573 32.6666 22.642C32.6322 22.7109 32.5546 22.7368 32.4857 22.7023L31.7704 22.3403C31.7014 22.3145 31.6756 22.2283 31.71 22.1593ZM32.6408 22.6333C32.6666 22.573 32.6494 22.5041 32.5891 22.4782L31.8738 22.1163C31.8221 22.0904 31.7531 22.1163 31.7186 22.168C31.6928 22.2283 31.71 22.2972 31.7704 22.3231L32.4857 22.6851C32.546 22.7109 32.6149 22.6937 32.6408 22.6333Z" fill="white"/>
<path d="M30.4517 22.3317C30.4948 22.2714 30.5637 22.2541 30.624 22.2972L32.1236 23.2969C32.1839 23.3314 32.1925 23.409 32.1581 23.4693C32.115 23.5296 32.046 23.5469 31.9857 23.5038L30.4861 22.5041C30.4258 22.461 30.4086 22.3834 30.4517 22.3317Z" fill="#F3F3F3"/>
<path d="M30.4433 22.3231C30.4864 22.2628 30.5726 22.2455 30.6329 22.28L32.1325 23.2797C32.1928 23.3228 32.2101 23.4004 32.167 23.4693C32.1239 23.5296 32.0377 23.5469 31.9774 23.5124L30.4778 22.5127C30.4089 22.4696 30.4002 22.3834 30.4433 22.3231ZM32.1411 23.4607C32.1756 23.409 32.167 23.3314 32.1153 23.2969L30.6157 22.2972C30.564 22.2628 30.495 22.28 30.4606 22.3317C30.4261 22.3834 30.4347 22.461 30.4864 22.4955L31.986 23.4952C32.0377 23.5296 32.1066 23.5124 32.1411 23.4607Z" fill="white"/>
<path d="M30.7708 23.5813C30.8138 23.5296 30.8914 23.5124 30.9431 23.5555L31.5722 24.0467C31.624 24.0898 31.6326 24.1674 31.5895 24.2191C31.5464 24.2708 31.4688 24.288 31.4171 24.2449L30.788 23.7537C30.7363 23.7106 30.7277 23.6331 30.7708 23.5813Z" fill="#F3F3F3"/>
<path d="M30.7623 23.5727C30.8054 23.5124 30.8916 23.5038 30.9519 23.5469L31.581 24.0381C31.6413 24.0812 31.65 24.1674 31.6069 24.2277C31.5638 24.288 31.4776 24.2967 31.4173 24.2536L30.7881 23.7623C30.7278 23.7192 30.7192 23.6331 30.7623 23.5727ZM31.5896 24.2191C31.6327 24.1674 31.6241 24.0984 31.5724 24.0553L30.9433 23.5641C30.8916 23.5296 30.8226 23.5383 30.7795 23.59C30.7364 23.6417 30.745 23.7106 30.7968 23.7537L31.4259 24.2449C31.4776 24.2794 31.5465 24.2708 31.5896 24.2191Z" fill="white"/>
<path d="M29.4864 23.4952C29.5381 23.4435 29.6157 23.4435 29.6588 23.4952L30.9343 24.762C30.986 24.8137 30.9774 24.8913 30.9343 24.9344C30.8826 24.9861 30.805 24.9861 30.7619 24.9344L29.4864 23.6675C29.4433 23.6244 29.4433 23.5383 29.4864 23.4952Z" fill="#F3F3F3"/>
<path d="M29.4867 23.4866C29.5384 23.4348 29.6245 23.4348 29.6763 23.4866L30.9517 24.7534C31.0034 24.8051 31.0034 24.8913 30.9517 24.943C30.9 24.9947 30.8138 24.9947 30.7621 24.943L29.4867 23.6762C29.4263 23.6244 29.4263 23.5383 29.4867 23.4866ZM30.9345 24.9258C30.9776 24.8827 30.9776 24.8051 30.9345 24.762L29.659 23.4952C29.6159 23.4521 29.5384 23.4521 29.4953 23.4952C29.4522 23.5383 29.4522 23.6158 29.4953 23.6589L30.7708 24.9258C30.8138 24.9775 30.8828 24.9775 30.9345 24.9258Z" fill="white"/>
<path d="M29.5644 24.7793C29.6161 24.7362 29.6936 24.7362 29.7367 24.7879L30.2624 25.3912C30.3055 25.4429 30.2969 25.5204 30.2452 25.5635C30.1935 25.6066 30.1159 25.6066 30.0728 25.5549L29.5471 24.9516C29.504 24.9085 29.5126 24.831 29.5644 24.7793Z" fill="#F3F3F3"/>
<path d="M29.5555 24.7793C29.6158 24.7276 29.6934 24.7362 29.7451 24.7879L30.2708 25.3912C30.3225 25.4429 30.3139 25.5291 30.2536 25.5808C30.1932 25.6325 30.1157 25.6239 30.064 25.5721L29.5382 24.9689C29.4952 24.9086 29.4952 24.8224 29.5555 24.7793ZM30.2449 25.5635C30.2966 25.5204 30.2966 25.4515 30.2622 25.3998L29.7365 24.7965C29.6934 24.7534 29.6244 24.7448 29.5727 24.7879C29.521 24.831 29.521 24.8999 29.5555 24.9516L30.0812 25.5549C30.1243 25.6066 30.1932 25.6066 30.2449 25.5635Z" fill="white"/>
<path d="M28.3229 24.4518C28.3832 24.4087 28.4608 24.4259 28.4953 24.4863L29.495 25.9772C29.5295 26.0375 29.5122 26.1151 29.4605 26.1496C29.4002 26.1926 29.3226 26.1754 29.2881 26.1151L28.2884 24.6241C28.254 24.5638 28.2712 24.4863 28.3229 24.4518Z" fill="#F3F3F3"/>
<path d="M28.3229 24.4432C28.3833 24.4001 28.4694 24.4173 28.5125 24.4776L29.5122 25.9686C29.5553 26.0289 29.5381 26.1151 29.4691 26.1582C29.4088 26.2013 29.3226 26.184 29.2795 26.1237L28.2798 24.6328C28.2367 24.5638 28.254 24.4863 28.3229 24.4432ZM29.4605 26.1409C29.5122 26.1065 29.5295 26.0375 29.495 25.9858L28.4953 24.4949C28.4608 24.4432 28.3919 24.4345 28.3315 24.469C28.2798 24.5035 28.2626 24.5724 28.2971 24.6241L29.2968 26.1151C29.3313 26.1582 29.4088 26.1754 29.4605 26.1409Z" fill="white"/>
<path d="M28.1424 25.7273C28.2028 25.6928 28.2803 25.71 28.3148 25.7704L28.7112 26.4684C28.7457 26.5288 28.7199 26.6063 28.6595 26.6408C28.5992 26.6753 28.5216 26.658 28.4872 26.5977L28.0907 25.8996C28.0649 25.8393 28.0821 25.7617 28.1424 25.7273Z" fill="#F3F3F3"/>
<path d="M28.1422 25.7187C28.2111 25.6842 28.2887 25.7014 28.3232 25.7617L28.7196 26.4598C28.7541 26.5201 28.7368 26.6063 28.6679 26.6408C28.5989 26.6753 28.5214 26.658 28.4869 26.5977L28.0905 25.8996C28.056 25.8393 28.0732 25.7617 28.1422 25.7187ZM28.6593 26.6322C28.711 26.5977 28.7368 26.5288 28.7024 26.4771L28.3059 25.779C28.2715 25.7273 28.2025 25.71 28.1508 25.7359C28.0991 25.7704 28.0732 25.8393 28.1077 25.891L28.5041 26.5891C28.53 26.6408 28.6076 26.6667 28.6593 26.6322Z" fill="white"/>
<path d="M26.9961 25.1585C27.065 25.1326 27.134 25.1585 27.1598 25.2188L27.8579 26.8821C27.8838 26.9424 27.8493 27.02 27.789 27.0458C27.7286 27.0717 27.6511 27.0458 27.6252 26.9855L26.9271 25.3222C26.9013 25.2619 26.9358 25.1843 26.9961 25.1585Z" fill="#F3F3F3"/>
<path d="M26.9958 25.1498C27.0648 25.124 27.1423 25.1498 27.1768 25.2188L27.8749 26.8821C27.9007 26.951 27.8663 27.0286 27.7973 27.0545C27.7284 27.0803 27.6508 27.0545 27.6163 26.9855L26.9183 25.3222C26.8924 25.2619 26.9269 25.1843 26.9958 25.1498ZM27.7801 27.0372C27.8404 27.0114 27.8663 26.9424 27.8404 26.8907L27.1423 25.2274C27.1165 25.1671 27.0475 25.1412 26.9872 25.1671C26.9269 25.1929 26.901 25.2619 26.9269 25.3136L27.6249 26.9769C27.6594 27.0372 27.7197 27.0631 27.7801 27.0372Z" fill="white"/>
<path d="M26.5739 26.3822C26.6429 26.3564 26.7118 26.3909 26.7377 26.4598L26.9876 27.2182C27.0135 27.2785 26.9704 27.3561 26.91 27.3733C26.8411 27.3992 26.7722 27.3647 26.7463 27.2958L26.4964 26.5374C26.4705 26.477 26.505 26.4081 26.5739 26.3822Z" fill="#F3F3F3"/>
<path d="M26.5647 26.3736C26.6336 26.3478 26.7112 26.3823 26.7371 26.4512L26.987 27.2096C27.0128 27.2785 26.9697 27.3561 26.9008 27.382C26.8319 27.4078 26.7543 27.3733 26.7284 27.3044L26.4785 26.546C26.4613 26.4771 26.4957 26.3995 26.5647 26.3736ZM26.9008 27.3647C26.9611 27.3475 26.9956 27.2785 26.9784 27.2182L26.7284 26.4598C26.7112 26.3995 26.6423 26.3736 26.5819 26.3909C26.5216 26.4081 26.4871 26.4771 26.5044 26.5374L26.7543 27.2958C26.7715 27.3561 26.8405 27.3906 26.9008 27.3647Z" fill="white"/>
<path d="M25.5571 25.598C25.6261 25.5808 25.695 25.6239 25.7037 25.6928L26.0656 27.4595C26.0829 27.5285 26.0311 27.5888 25.9622 27.606C25.8933 27.6233 25.8243 27.5802 25.8157 27.5112L25.4537 25.7445C25.4451 25.6842 25.4882 25.6152 25.5571 25.598Z" fill="#F3F3F3"/>
<path d="M25.5564 25.5894C25.634 25.5721 25.7029 25.6239 25.7202 25.6928L26.0821 27.4595C26.0994 27.5285 26.0476 27.606 25.9787 27.6147C25.9011 27.6319 25.8322 27.5802 25.815 27.5112L25.453 25.7445C25.4358 25.6756 25.4788 25.6066 25.5564 25.5894ZM25.9615 27.5974C26.0218 27.5888 26.0649 27.5285 26.0563 27.4595L25.6943 25.6928C25.6857 25.6325 25.6167 25.5894 25.5564 25.6066C25.4961 25.6152 25.453 25.6756 25.4616 25.7445L25.8236 27.5112C25.8408 27.5716 25.9011 27.606 25.9615 27.5974Z" fill="white"/>
<path d="M24.902 26.7184C24.971 26.7097 25.0313 26.7528 25.0485 26.8218L25.152 27.6146C25.1606 27.6836 25.1089 27.7439 25.0399 27.7525C24.971 27.7612 24.9107 27.7181 24.8934 27.6491L24.79 26.8562C24.7814 26.7873 24.8331 26.727 24.902 26.7184Z" fill="#F3F3F3"/>
<path d="M24.9014 26.7097C24.9789 26.7011 25.0479 26.7528 25.0565 26.8218L25.1599 27.6146C25.1685 27.6836 25.1168 27.7525 25.0393 27.7612C24.9617 27.7698 24.8928 27.7181 24.8841 27.6491L24.7807 26.8562C24.7721 26.7873 24.8238 26.7184 24.9014 26.7097ZM25.0306 27.7439C25.091 27.7353 25.1427 27.675 25.1341 27.6146L25.0306 26.8218C25.022 26.7614 24.9617 26.7184 24.9014 26.727C24.841 26.7356 24.7893 26.7959 24.798 26.8562L24.9014 27.6491C24.91 27.7094 24.9703 27.7525 25.0306 27.7439Z" fill="white"/>
<path d="M24.014 25.7531C24.083 25.7531 24.1433 25.8048 24.1433 25.8738V27.675C24.1433 27.7439 24.083 27.7956 24.014 27.7956C23.9451 27.7956 23.8848 27.7439 23.8848 27.675V25.8738C23.8934 25.8048 23.9451 25.7531 24.014 25.7531Z" fill="#F3F3F3"/>
<path d="M24.0144 25.7445C24.0919 25.7445 24.1522 25.8048 24.1522 25.8738V27.675C24.1522 27.7439 24.0919 27.8042 24.0144 27.8042C23.9368 27.8042 23.8765 27.7439 23.8765 27.675V25.8738C23.8765 25.8048 23.9454 25.7445 24.0144 25.7445ZM24.0144 27.787C24.0747 27.787 24.135 27.7353 24.135 27.675V25.8738C24.135 25.8135 24.0833 25.7617 24.0144 25.7617C23.954 25.7617 23.8937 25.8135 23.8937 25.8738V27.675C23.9023 27.7353 23.954 27.787 24.0144 27.787Z" fill="white"/>
<path d="M23.1523 26.7184C23.2213 26.727 23.273 26.7787 23.273 26.8476L23.2126 27.6491C23.204 27.7181 23.1437 27.7698 23.0748 27.7612C23.0058 27.7525 22.9541 27.7008 22.9541 27.6319L23.0144 26.8304C23.023 26.7615 23.0834 26.7097 23.1523 26.7184Z" fill="#F3F3F3"/>
<path d="M23.1521 26.7097C23.2297 26.7184 23.2814 26.7787 23.2814 26.8476L23.2211 27.6491C23.2125 27.7181 23.1521 27.7784 23.0746 27.7698C22.997 27.7612 22.9453 27.7008 22.9453 27.6319L23.0056 26.8304C23.0143 26.7528 23.0746 26.7011 23.1521 26.7097ZM23.0746 27.7525C23.1349 27.7525 23.1952 27.7094 23.1952 27.6491L23.2556 26.8476C23.2556 26.7873 23.2125 26.7356 23.1435 26.727C23.0832 26.727 23.0229 26.7701 23.0229 26.8304L22.9625 27.6319C22.9625 27.6922 23.0143 27.7439 23.0746 27.7525Z" fill="white"/>
<path d="M22.5063 25.598C22.5753 25.6152 22.6184 25.6756 22.6097 25.7445L22.2564 27.5112C22.2392 27.5802 22.1788 27.6233 22.1099 27.606C22.0409 27.5888 21.9978 27.5285 22.0065 27.4595L22.3598 25.6928C22.3684 25.6325 22.4374 25.5894 22.5063 25.598Z" fill="#F3F3F3"/>
<path d="M22.506 25.5894C22.5835 25.6066 22.6266 25.6756 22.618 25.7445L22.2647 27.5112C22.2474 27.5802 22.1785 27.6319 22.1009 27.6146C22.0234 27.5974 21.9803 27.5285 21.9889 27.4595L22.3422 25.6928C22.3595 25.6239 22.4284 25.5808 22.506 25.5894ZM22.1009 27.5974C22.1612 27.606 22.2216 27.5716 22.2388 27.5112L22.5922 25.7445C22.6008 25.6842 22.5663 25.6239 22.4974 25.6066C22.437 25.598 22.3767 25.6325 22.3595 25.6928L22.0061 27.4595C21.9975 27.5285 22.0406 27.5802 22.1009 27.5974Z" fill="white"/>
<path d="M21.4715 26.3736C21.5405 26.3909 21.5836 26.4598 21.5663 26.5288L21.3509 27.3044C21.3337 27.3733 21.2647 27.4078 21.1958 27.3906C21.1268 27.3733 21.0837 27.3044 21.101 27.2354L21.3164 26.4598C21.3337 26.3909 21.4026 26.3564 21.4715 26.3736Z" fill="#F3F3F3"/>
<path d="M21.4719 26.365C21.5409 26.3823 21.5926 26.4598 21.5667 26.5288L21.3513 27.3044C21.334 27.3733 21.2565 27.4164 21.1875 27.3992C21.1186 27.382 21.0669 27.3044 21.0927 27.2354L21.3082 26.4598C21.3254 26.3909 21.3943 26.3478 21.4719 26.365ZM21.1875 27.3733C21.2478 27.3906 21.3168 27.3561 21.334 27.2958L21.5495 26.5201C21.5667 26.4598 21.5322 26.3995 21.4633 26.3822C21.403 26.365 21.334 26.3995 21.3168 26.4598L21.1013 27.2354C21.0927 27.2958 21.1272 27.3561 21.1875 27.3733Z" fill="white"/>
<path d="M21.0494 25.1585C21.1183 25.1843 21.1442 25.2619 21.1183 25.3222L20.4289 26.9855C20.403 27.0458 20.3255 27.0803 20.2651 27.0458C20.2048 27.0114 20.1703 26.9424 20.1962 26.8821L20.8856 25.2188C20.9115 25.1585 20.9891 25.124 21.0494 25.1585Z" fill="#F3F3F3"/>
<path d="M21.0494 25.1499C21.1184 25.1757 21.1528 25.2533 21.127 25.3222L20.4375 26.9855C20.4117 27.0545 20.3341 27.0803 20.2566 27.0545C20.1876 27.0286 20.1531 26.9511 20.179 26.8821L20.8684 25.2188C20.9029 25.1499 20.9805 25.1154 21.0494 25.1499ZM20.2652 27.0372C20.3255 27.0631 20.3944 27.0372 20.4203 26.9769L21.1098 25.3136C21.1356 25.2533 21.1011 25.1929 21.0408 25.1671C20.9805 25.1412 20.9115 25.1671 20.8857 25.2274L20.1962 26.8907C20.179 26.9424 20.2048 27.0114 20.2652 27.0372Z" fill="white"/>
<path d="M19.8861 25.71C19.9464 25.7445 19.9723 25.8135 19.9464 25.8738L19.5845 26.5891C19.55 26.6494 19.4811 26.6753 19.4121 26.6408C19.3518 26.6063 19.3259 26.5374 19.3518 26.4771L19.7137 25.7617C19.7482 25.7014 19.8172 25.6756 19.8861 25.71Z" fill="#F3F3F3"/>
<path d="M19.8858 25.7014C19.9547 25.7359 19.9806 25.8134 19.9461 25.8824L19.5841 26.5977C19.5497 26.6666 19.4721 26.6925 19.4032 26.658C19.3342 26.6236 19.3084 26.546 19.3428 26.477L19.7048 25.7617C19.7393 25.6928 19.8168 25.6669 19.8858 25.7014ZM19.4118 26.6408C19.4721 26.6666 19.5411 26.6494 19.5669 26.5891L19.9289 25.8738C19.9547 25.8221 19.9289 25.7531 19.8772 25.7187C19.8168 25.6928 19.7479 25.71 19.722 25.7704L19.3601 26.4857C19.3342 26.5374 19.3601 26.6063 19.4118 26.6408Z" fill="white"/>
<path d="M19.7136 24.4345C19.7739 24.4776 19.7911 24.5552 19.7481 24.6069L18.7484 26.0978C18.7139 26.1582 18.6363 26.1668 18.576 26.1323C18.5157 26.0892 18.4984 26.0117 18.5415 25.96L19.5412 24.469C19.5757 24.4087 19.6533 24.3915 19.7136 24.4345Z" fill="#F3F3F3"/>
<path d="M19.7137 24.4259C19.774 24.469 19.7913 24.5552 19.7568 24.6155L18.7571 26.1065C18.714 26.1668 18.6364 26.184 18.5675 26.1409C18.5072 26.0979 18.4899 26.0117 18.5244 25.9513L19.5241 24.4604C19.5672 24.4001 19.6534 24.3828 19.7137 24.4259ZM18.5761 26.1237C18.6278 26.1582 18.7054 26.1496 18.7399 26.0979L19.7396 24.6069C19.774 24.5552 19.7568 24.4863 19.7051 24.4518C19.6534 24.4173 19.5758 24.4259 19.5413 24.4776L18.5416 25.96C18.5072 26.0117 18.5244 26.0892 18.5761 26.1237Z" fill="white"/>
<path d="M18.4554 24.7534C18.5071 24.7965 18.5244 24.8741 18.4813 24.9258L17.9814 25.5549C17.9383 25.6066 17.8608 25.6152 17.8091 25.5721C17.7574 25.5291 17.7401 25.4515 17.7832 25.3998L18.2831 24.7707C18.3262 24.7189 18.4037 24.7103 18.4554 24.7534Z" fill="#F3F3F3"/>
<path d="M18.4639 24.7448C18.5243 24.7879 18.5329 24.8741 18.4898 24.9344L17.9899 25.5635C17.9469 25.6239 17.8607 25.6325 17.8003 25.5808C17.74 25.5377 17.7314 25.4515 17.7745 25.3912L18.2743 24.762C18.3174 24.7017 18.4036 24.6931 18.4639 24.7448ZM17.8176 25.5635C17.8693 25.6066 17.9382 25.598 17.9813 25.5463L18.4812 24.9172C18.5157 24.8655 18.507 24.7965 18.4553 24.7534C18.4036 24.7103 18.3347 24.7189 18.2916 24.7707L17.7917 25.3998C17.7573 25.4515 17.7659 25.5291 17.8176 25.5635Z" fill="white"/>
<path d="M18.5416 23.4607C18.5933 23.5124 18.5933 23.59 18.5416 23.6331L17.2661 24.8999C17.2144 24.9516 17.1368 24.943 17.0937 24.8999C17.0506 24.8568 17.042 24.7707 17.0937 24.7276L18.3606 23.4607C18.4123 23.409 18.4899 23.409 18.5416 23.4607Z" fill="#F3F3F3"/>
<path d="M18.5503 23.4521C18.602 23.5038 18.602 23.59 18.5503 23.6417L17.2748 24.9085C17.2231 24.9603 17.1369 24.9603 17.0852 24.9085C17.0335 24.8568 17.0335 24.7707 17.0852 24.7189L18.3607 23.4521C18.4124 23.4004 18.4985 23.4004 18.5503 23.4521ZM17.0938 24.8999C17.1369 24.943 17.2144 24.943 17.2575 24.8999L18.533 23.6331C18.5761 23.59 18.5761 23.5124 18.533 23.4693C18.4899 23.4262 18.4124 23.4262 18.3693 23.4693L17.0938 24.7362C17.0507 24.7793 17.0507 24.8482 17.0938 24.8999Z" fill="white"/>
<path d="M17.249 23.5296C17.2921 23.5813 17.2921 23.6589 17.2404 23.702L16.6285 24.2191C16.5768 24.2622 16.4992 24.2536 16.4561 24.2019C16.413 24.1501 16.413 24.0726 16.4647 24.0295L17.0766 23.5124C17.1283 23.4693 17.2059 23.4779 17.249 23.5296Z" fill="#F3F3F3"/>
<path d="M17.2574 23.521C17.3092 23.5814 17.3005 23.6675 17.2488 23.7106L16.6369 24.2277C16.5852 24.2794 16.499 24.2708 16.4473 24.2105C16.3956 24.1501 16.4042 24.064 16.456 24.0209L17.0678 23.5038C17.1196 23.4521 17.2057 23.4607 17.2574 23.521ZM16.4646 24.2019C16.5077 24.2536 16.5766 24.2536 16.6283 24.2191L17.2402 23.702C17.2833 23.6589 17.2919 23.59 17.2488 23.5383C17.2057 23.4865 17.1368 23.4866 17.0851 23.521L16.4732 24.0381C16.4215 24.0812 16.4215 24.1501 16.4646 24.2019Z" fill="white"/>
<path d="M17.5936 22.2886C17.6367 22.349 17.6195 22.4265 17.5591 22.461L16.0596 23.4607C15.9993 23.4952 15.9217 23.4779 15.8872 23.4262C15.8441 23.3659 15.8614 23.2883 15.9217 23.2539L17.4213 22.2542C17.473 22.2197 17.5505 22.2369 17.5936 22.2886Z" fill="#F3F3F3"/>
<path d="M17.6021 22.2886C17.6452 22.3489 17.6279 22.4351 17.5676 22.4782L16.068 23.4779C16.0077 23.521 15.9215 23.5038 15.8784 23.4348C15.8353 23.3745 15.8526 23.2883 15.9129 23.2452L17.4125 22.2455C17.4728 22.2024 17.559 22.2197 17.6021 22.2886ZM15.8957 23.4176C15.9301 23.4693 15.9991 23.4865 16.0508 23.4521L17.5504 22.4524C17.6021 22.4179 17.6193 22.3489 17.5762 22.2886C17.5417 22.2369 17.4728 22.2197 17.4211 22.2541L15.9215 23.2539C15.8698 23.2969 15.8612 23.3659 15.8957 23.4176Z" fill="white"/>
<path d="M16.3095 22.1076C16.344 22.168 16.3267 22.2455 16.2664 22.28L15.5684 22.6764C15.508 22.7109 15.4305 22.6851 15.396 22.6247C15.3615 22.5644 15.3788 22.4868 15.4391 22.4524L16.1371 22.0559C16.1975 22.0215 16.275 22.0473 16.3095 22.1076Z" fill="#F3F3F3"/>
<path d="M16.3181 22.099C16.3526 22.168 16.3354 22.2455 16.275 22.28L15.577 22.6764C15.5166 22.7109 15.4305 22.6851 15.396 22.6247C15.3615 22.5558 15.3788 22.4782 15.4391 22.4438L16.1371 22.0473C16.1975 22.0128 16.2837 22.0387 16.3181 22.099ZM15.4046 22.6161C15.4391 22.6764 15.508 22.6937 15.5597 22.6592L16.2578 22.2628C16.3095 22.2283 16.3267 22.1594 16.3009 22.1076C16.2664 22.0473 16.1975 22.0301 16.1458 22.0646L15.4477 22.461C15.396 22.4868 15.3788 22.5558 15.4046 22.6161Z" fill="white"/>
<path d="M16.8868 20.9614C16.9126 21.0304 16.8868 21.0993 16.8178 21.1252L15.1545 21.8146C15.0942 21.8405 15.0166 21.806 14.9908 21.7457C14.9649 21.6767 14.9908 21.6078 15.0597 21.5819L16.723 20.8925C16.7834 20.8666 16.8609 20.8925 16.8868 20.9614Z" fill="#F3F3F3"/>
<path d="M16.8954 20.9528C16.9213 21.0218 16.8954 21.0993 16.8265 21.1338L15.1632 21.8232C15.0942 21.8491 15.0166 21.8146 14.9908 21.7457C14.9649 21.6767 14.9908 21.5992 15.0597 21.5647L16.723 20.8752C16.792 20.8494 16.8696 20.8839 16.8954 20.9528ZM15.008 21.7371C15.0339 21.7974 15.1028 21.8232 15.1545 21.806L16.8178 21.1166C16.8782 21.0907 16.904 21.0218 16.8782 20.9614C16.8523 20.9011 16.7834 20.8752 16.7317 20.8925L15.0684 21.5819C15.008 21.6078 14.9822 21.6767 15.008 21.7371Z" fill="white"/>
<path d="M15.6715 20.5305C15.6974 20.5995 15.6629 20.6684 15.594 20.6943L14.8356 20.9442C14.7753 20.97 14.6977 20.9269 14.6805 20.8666C14.6546 20.7977 14.6891 20.7287 14.758 20.7029L15.5164 20.453C15.5767 20.4271 15.6457 20.4616 15.6715 20.5305Z" fill="#F3F3F3"/>
<path d="M15.6807 20.5219C15.7066 20.5908 15.6721 20.6684 15.5945 20.6943L14.8361 20.9442C14.7672 20.97 14.6896 20.927 14.6638 20.858C14.6379 20.7891 14.6724 20.7115 14.7499 20.6856L15.5083 20.4357C15.5773 20.4185 15.6549 20.453 15.6807 20.5219ZM14.681 20.8494C14.6982 20.9097 14.7672 20.9442 14.8275 20.927L15.5859 20.677C15.6462 20.6598 15.6721 20.5908 15.6549 20.5305C15.6376 20.4702 15.5687 20.4357 15.5083 20.453L14.7499 20.7029C14.6896 20.7287 14.6638 20.7891 14.681 20.8494Z" fill="white"/>
<path d="M16.4474 19.505C16.4646 19.5739 16.4215 19.6428 16.3526 19.6515L14.5859 19.9962C14.5169 20.0134 14.4566 19.9617 14.4393 19.8928C14.4221 19.8238 14.4652 19.7549 14.5341 19.7463L16.3009 19.4015C16.3698 19.3929 16.4388 19.436 16.4474 19.505Z" fill="#F3F3F3"/>
<path d="M16.4646 19.505C16.4819 19.5825 16.4302 19.6515 16.3612 19.6687L14.5945 20.0134C14.5256 20.0307 14.4566 19.979 14.4394 19.9014C14.4221 19.8238 14.4738 19.7549 14.5428 19.7376L16.3095 19.3929C16.3785 19.3757 16.4474 19.4274 16.4646 19.505ZM14.4566 19.8928C14.4652 19.9531 14.5256 19.9962 14.5859 19.9876L16.3526 19.6428C16.4129 19.6342 16.456 19.5653 16.4388 19.505C16.4302 19.4446 16.3698 19.4015 16.3095 19.4102L14.5428 19.7549C14.4825 19.7721 14.4394 19.8324 14.4566 19.8928Z" fill="white"/>
<path d="M15.3444 18.8414C15.353 18.9103 15.3099 18.9706 15.2409 18.9793L14.4481 19.0741C14.3791 19.0827 14.3188 19.031 14.3102 18.962C14.3016 18.8931 14.3446 18.8327 14.4136 18.8241L15.2065 18.7293C15.2668 18.7207 15.3357 18.7724 15.3444 18.8414Z" fill="#F3F3F3"/>
<path d="M15.3526 18.8414C15.3613 18.9189 15.3096 18.9879 15.2406 18.9965L14.4477 19.0913C14.3788 19.0999 14.3099 19.0482 14.3012 18.9706C14.2926 18.8931 14.3443 18.8241 14.4133 18.8155L15.2061 18.7207C15.2751 18.7121 15.344 18.7638 15.3526 18.8414ZM14.3099 18.962C14.3185 19.0223 14.3788 19.074 14.4391 19.0654L15.232 18.9706C15.2923 18.962 15.3354 18.9017 15.3268 18.8414C15.3182 18.781 15.2578 18.7293 15.1975 18.7379L14.4047 18.8327C14.3443 18.8414 14.3012 18.9017 14.3099 18.962Z" fill="white"/>
<path d="M16.3096 18.0054C16.3096 18.0743 16.2579 18.1347 16.1889 18.1347H14.3877C14.3188 18.1347 14.2671 18.0743 14.2671 18.0054C14.2671 17.9364 14.3188 17.8761 14.3877 17.8761H16.1889C16.2579 17.8761 16.3096 17.9364 16.3096 18.0054Z" fill="#F3F3F3"/>
<path d="M16.318 18.0054C16.318 18.083 16.2577 18.1433 16.1888 18.1433H14.3876C14.3186 18.1433 14.2583 18.083 14.2583 18.0054C14.2583 17.9278 14.3186 17.8675 14.3876 17.8675H16.1888C16.2577 17.8675 16.318 17.9278 16.318 18.0054ZM14.2755 17.9968C14.2755 18.0571 14.3272 18.1174 14.3876 18.1174H16.1888C16.2491 18.1174 16.3008 18.0657 16.3008 17.9968C16.3008 17.9365 16.2491 17.8761 16.1888 17.8761H14.3876C14.3272 17.8847 14.2755 17.9365 14.2755 17.9968Z" fill="white"/>
<path d="M15.3528 17.135C15.3442 17.2039 15.2925 17.2556 15.2235 17.2556L14.4221 17.1953C14.3531 17.1867 14.3014 17.1263 14.31 17.0574C14.3186 16.9885 14.3703 16.9367 14.4393 16.9367L15.2408 16.9971C15.3011 17.0057 15.3528 17.066 15.3528 17.135Z" fill="#E2E2E2"/>
<path d="M15.3616 17.135C15.353 17.2125 15.2927 17.2642 15.2237 17.2642L14.4223 17.2039C14.3533 17.1953 14.293 17.135 14.3016 17.0574C14.3102 16.9798 14.3705 16.9281 14.4395 16.9281L15.241 16.9885C15.3099 16.9971 15.3616 17.066 15.3616 17.135ZM14.3102 17.0574C14.3016 17.1177 14.3533 17.1781 14.4136 17.1781L15.2151 17.2384C15.2755 17.2384 15.3272 17.1953 15.3358 17.1263C15.3444 17.066 15.2927 17.0057 15.2324 17.0057L14.4309 16.9454C14.3705 16.9454 14.3188 16.9971 14.3102 17.0574Z" fill="white"/>
<path d="M16.4645 16.5058C16.4472 16.5748 16.3869 16.6179 16.318 16.6093L14.5512 16.2473C14.4823 16.2301 14.4392 16.1697 14.4564 16.1008C14.4737 16.0318 14.534 15.9887 14.6029 15.9974L16.3697 16.3507C16.43 16.3679 16.4731 16.4369 16.4645 16.5058Z" fill="#F3F3F3"/>
<path d="M16.4729 16.5058C16.4557 16.5834 16.3868 16.6265 16.3178 16.6179L14.5511 16.2645C14.4821 16.2473 14.4304 16.1783 14.4477 16.1008C14.4649 16.0232 14.5339 15.9801 14.6028 15.9887L16.3695 16.3421C16.4385 16.3593 16.4816 16.4283 16.4729 16.5058ZM14.4649 16.1008C14.4563 16.1611 14.4908 16.2214 14.5511 16.2387L16.3178 16.592C16.3781 16.6006 16.4385 16.5662 16.4557 16.4972C16.4643 16.4369 16.4299 16.3766 16.3695 16.3593L14.6028 16.006C14.5339 15.9974 14.4821 16.0405 14.4649 16.1008Z" fill="white"/>
<path d="M15.6888 15.4717C15.6716 15.5406 15.6026 15.5837 15.5337 15.5665L14.7581 15.351C14.6891 15.3338 14.6546 15.2648 14.6719 15.1959C14.6891 15.1269 14.7581 15.0838 14.827 15.1011L15.6026 15.3165C15.6716 15.3338 15.7061 15.4027 15.6888 15.4717Z" fill="#F3F3F3"/>
<path d="M15.6976 15.4717C15.6804 15.5406 15.6028 15.5923 15.5339 15.5665L14.7583 15.351C14.6893 15.3338 14.6462 15.2562 14.6635 15.1873C14.6807 15.1183 14.7583 15.0666 14.8272 15.0925L15.6028 15.3079C15.6718 15.3251 15.7149 15.3941 15.6976 15.4717ZM14.6893 15.1873C14.6721 15.2476 14.7066 15.3165 14.7669 15.3338L15.5425 15.5492C15.6028 15.5665 15.6632 15.532 15.6804 15.463C15.6976 15.4027 15.6632 15.3338 15.6028 15.3165L14.8272 15.1011C14.7669 15.0925 14.7066 15.1269 14.6893 15.1873Z" fill="white"/>
<path d="M16.9042 15.058C16.8783 15.1269 16.8008 15.1528 16.7404 15.1269L15.0771 14.4375C15.0168 14.4116 14.9823 14.3341 15.0082 14.2737C15.0341 14.2048 15.1116 14.1789 15.1719 14.2048L16.8352 14.8942C16.9042 14.9201 16.93 14.9977 16.9042 15.058Z" fill="#F3F3F3"/>
<path d="M16.913 15.0666C16.8871 15.1355 16.8096 15.17 16.7406 15.1442L15.0773 14.4547C15.0084 14.4289 14.9825 14.3513 15.0084 14.2737C15.0342 14.2048 15.1118 14.1703 15.1807 14.1962L16.844 14.8856C16.913 14.9201 16.9388 14.9977 16.913 15.0666ZM15.0256 14.2823C14.9998 14.3427 15.0256 14.4116 15.0859 14.4375L16.7492 15.1269C16.8096 15.1528 16.8699 15.1183 16.8957 15.058C16.9216 14.9977 16.8957 14.9287 16.8354 14.9029L15.1721 14.2134C15.1118 14.1962 15.0428 14.222 15.0256 14.2823Z" fill="white"/>
<path d="M16.3442 13.8945C16.3097 13.9549 16.2407 13.9807 16.1804 13.9549L15.4651 13.5929C15.4048 13.567 15.3789 13.4895 15.4134 13.4205C15.4479 13.3602 15.5168 13.3344 15.5771 13.3602L16.2924 13.7222C16.3528 13.7566 16.3786 13.8342 16.3442 13.8945Z" fill="#F3F3F3"/>
<path d="M16.3527 13.9031C16.3182 13.9721 16.2406 13.9979 16.1717 13.9635L15.4564 13.6015C15.3874 13.567 15.3616 13.4895 15.3961 13.4205C15.4305 13.3516 15.5081 13.3257 15.577 13.3602L16.2924 13.7222C16.3613 13.748 16.3872 13.8342 16.3527 13.9031ZM15.4219 13.4291C15.3961 13.4895 15.4133 13.5584 15.4736 13.5843L16.1889 13.9462C16.2406 13.9721 16.3096 13.9462 16.3441 13.8945C16.3699 13.8342 16.3527 13.7653 16.2924 13.7394L15.5684 13.3774C15.5167 13.3516 15.4478 13.3688 15.4219 13.4291Z" fill="white"/>
<path d="M17.6105 13.7308C17.5674 13.7911 17.4985 13.8083 17.4382 13.7653L15.9472 12.7742C15.8869 12.7397 15.8783 12.6621 15.9127 12.6018C15.9472 12.5415 16.0248 12.5242 16.0851 12.5673L17.5847 13.567C17.6364 13.6015 17.6536 13.6791 17.6105 13.7308Z" fill="#F3F3F3"/>
<path d="M17.6193 13.7394C17.5762 13.7997 17.49 13.817 17.4297 13.7825L15.9388 12.7828C15.8785 12.7397 15.8612 12.6621 15.9043 12.5932C15.9474 12.5329 16.0336 12.5156 16.0939 12.5501L17.5848 13.5498C17.6538 13.5929 17.6624 13.6791 17.6193 13.7394ZM15.9215 12.6018C15.8871 12.6535 15.8957 12.7311 15.9474 12.7656L17.447 13.7653C17.4987 13.7997 17.5676 13.7825 17.6021 13.7308C17.6366 13.6791 17.6279 13.6015 17.5762 13.567L16.0767 12.5673C16.025 12.5329 15.956 12.5501 15.9215 12.6018Z" fill="white"/>
<path d="M17.2921 12.4812C17.249 12.5329 17.1715 12.5501 17.1198 12.507L16.4906 12.0158C16.4389 11.9727 16.4303 11.8951 16.4734 11.8434C16.5165 11.7917 16.594 11.7745 16.6458 11.8176L17.2749 12.3088C17.3266 12.3519 17.3352 12.4294 17.2921 12.4812Z" fill="#F3F3F3"/>
<path d="M17.3007 12.4898C17.2576 12.5501 17.1714 12.5587 17.1111 12.5156L16.482 12.0244C16.4217 11.9813 16.413 11.8951 16.4561 11.8348C16.4992 11.7745 16.5854 11.7658 16.6457 11.8089L17.2749 12.3002C17.3352 12.3433 17.3438 12.4294 17.3007 12.4898ZM16.4734 11.8434C16.4303 11.8951 16.4389 11.9641 16.4906 12.0072L17.1197 12.4984C17.1714 12.5329 17.2404 12.5242 17.2835 12.4725C17.3266 12.4208 17.3179 12.3519 17.2662 12.3088L16.6371 11.8176C16.5854 11.7831 16.5165 11.7917 16.4734 11.8434Z" fill="white"/>
<path d="M18.5761 12.5673C18.5244 12.619 18.4468 12.619 18.4037 12.5673L17.1196 11.3005C17.0679 11.2488 17.0765 11.1712 17.1196 11.1281C17.1713 11.0764 17.2489 11.0764 17.292 11.1281L18.5675 12.395C18.6192 12.4381 18.6192 12.5242 18.5761 12.5673Z" fill="#F3F3F3"/>
<path d="M18.5761 12.576C18.5244 12.6277 18.4382 12.6277 18.3865 12.576L17.111 11.3091C17.0593 11.2574 17.0593 11.1712 17.111 11.1195C17.1628 11.0678 17.2489 11.0678 17.3006 11.1195L18.5761 12.3864C18.6365 12.4381 18.6365 12.5242 18.5761 12.576ZM17.1283 11.1367C17.0852 11.1798 17.0852 11.2574 17.1283 11.3005L18.4038 12.5673C18.4469 12.6104 18.5244 12.6104 18.5675 12.5673C18.6106 12.5242 18.6106 12.4467 18.5675 12.4036L17.292 11.1281C17.2489 11.085 17.18 11.085 17.1283 11.1367Z" fill="white"/>
<path d="M18.4986 11.2832C18.4469 11.3263 18.3693 11.3263 18.3262 11.2746L17.8005 10.6713C17.7574 10.6196 17.7661 10.5421 17.8178 10.499C17.8695 10.4559 17.947 10.4559 17.9901 10.5076L18.5158 11.1109C18.5589 11.154 18.5503 11.2315 18.4986 11.2832Z" fill="#F3F3F3"/>
<path d="M18.5071 11.2832C18.4467 11.3349 18.3692 11.3263 18.3175 11.2746L17.7918 10.6713C17.7401 10.6196 17.7487 10.5334 17.809 10.4817C17.8693 10.43 17.9469 10.4386 17.9986 10.4904L18.5243 11.0936C18.5674 11.154 18.5674 11.2401 18.5071 11.2832ZM17.8176 10.499C17.7659 10.5421 17.7659 10.611 17.8004 10.6627L18.3261 11.266C18.3692 11.3091 18.4381 11.3177 18.4898 11.2746C18.5415 11.2315 18.5415 11.1626 18.5071 11.1109L17.9814 10.5076C17.9383 10.4559 17.8693 10.4559 17.8176 10.499Z" fill="white"/>
<path d="M19.7396 11.6107C19.6793 11.6538 19.6017 11.6366 19.5673 11.5762L18.559 10.0853C18.5245 10.025 18.5417 9.94741 18.5934 9.91294C18.6538 9.86985 18.7313 9.88709 18.7658 9.94741L19.7655 11.4384C19.8086 11.4987 19.7913 11.5762 19.7396 11.6107Z" fill="#F3F3F3"/>
<path d="M19.7397 11.6193C19.6793 11.6624 19.5931 11.6452 19.5501 11.5849L18.5503 10.0939C18.5073 10.0336 18.5245 9.94741 18.5934 9.90432C18.6538 9.86123 18.7399 9.87846 18.783 9.93879L19.7827 11.4297C19.8258 11.4987 19.8086 11.5762 19.7397 11.6193ZM18.6021 9.92156C18.5503 9.95603 18.5331 10.025 18.5676 10.0767L19.5673 11.5676C19.6018 11.6193 19.6707 11.628 19.731 11.5935C19.7827 11.559 19.8 11.4901 19.7655 11.4384L18.7658 9.95603C18.7313 9.90432 18.6538 9.88708 18.6021 9.92156Z" fill="white"/>
<path d="M19.9207 10.3352C19.8603 10.3697 19.7828 10.3525 19.7483 10.2921L19.3519 9.59407C19.3174 9.53374 19.3432 9.45618 19.4036 9.42171C19.4639 9.38723 19.5415 9.40447 19.5759 9.4648L19.9724 10.1629C19.9982 10.2232 19.981 10.3008 19.9207 10.3352Z" fill="#F3F3F3"/>
<path d="M19.9203 10.3438C19.8514 10.3783 19.7738 10.3611 19.7394 10.3008L19.3429 9.60269C19.3084 9.54236 19.3257 9.45618 19.3946 9.42171C19.4636 9.38723 19.5411 9.40447 19.5756 9.4648L19.972 10.1629C20.0065 10.2232 19.9893 10.3008 19.9203 10.3438ZM19.4032 9.43032C19.3515 9.4648 19.3257 9.53374 19.3602 9.58545L19.7566 10.2835C19.7911 10.3352 19.86 10.3525 19.9117 10.3266C19.9634 10.2921 19.9893 10.2232 19.9548 10.1715L19.5584 9.47342C19.5325 9.42171 19.455 9.39585 19.4032 9.43032Z" fill="white"/>
<path d="M21.0668 10.904C20.9978 10.9299 20.9289 10.904 20.903 10.8437L20.205 9.1804C20.1791 9.12007 20.2136 9.04251 20.2739 9.01665C20.3429 8.9908 20.4118 9.01665 20.4377 9.07698L21.1357 10.7403C21.1616 10.8006 21.1271 10.8782 21.0668 10.904Z" fill="#F3F3F3"/>
<path d="M21.0668 10.9126C20.9979 10.9385 20.9203 10.9126 20.8859 10.8437L20.1878 9.1804C20.1619 9.11145 20.1964 9.03389 20.2653 9.00803C20.3343 8.98218 20.4119 9.00803 20.4463 9.07698L21.1444 10.7403C21.1703 10.8006 21.1358 10.8782 21.0668 10.9126ZM20.2826 9.02527C20.2223 9.05112 20.1964 9.12007 20.2223 9.17178L20.9203 10.8351C20.9462 10.8954 21.0151 10.9213 21.0755 10.8954C21.1358 10.8696 21.1616 10.8006 21.1358 10.7489L20.4377 9.0856C20.4032 9.02527 20.3429 8.99942 20.2826 9.02527Z" fill="white"/>
<path d="M21.4892 9.68025C21.4203 9.7061 21.3513 9.67163 21.3255 9.60268L21.0755 8.84428C21.0497 8.78396 21.0928 8.70639 21.1531 8.68916C21.2134 8.67192 21.291 8.69778 21.3168 8.76672L21.5668 9.52512C21.5926 9.58545 21.5581 9.65439 21.4892 9.68025Z" fill="#F3F3F3"/>
<path d="M21.4977 9.68887C21.4288 9.71472 21.3512 9.68025 21.3254 9.6113L21.0755 8.85291C21.0496 8.78396 21.0927 8.7064 21.1616 8.68054C21.2306 8.65469 21.3081 8.68916 21.334 8.75811L21.5839 9.5165C21.6012 9.58545 21.5667 9.66301 21.4977 9.68887ZM21.1616 8.69778C21.1013 8.71502 21.0668 8.78396 21.0841 8.84429L21.334 9.60269C21.3512 9.66301 21.4202 9.68887 21.4805 9.67163C21.5408 9.6544 21.5753 9.58545 21.5581 9.52512L21.3081 8.76672C21.2909 8.7064 21.222 8.67192 21.1616 8.69778Z" fill="white"/>
<path d="M22.506 10.4645C22.437 10.4817 22.3681 10.4386 22.3594 10.3697L21.9975 8.60298C21.9802 8.53404 22.032 8.47371 22.1009 8.45647C22.1698 8.43924 22.2388 8.48233 22.2474 8.55127L22.6094 10.318C22.618 10.3783 22.5749 10.4473 22.506 10.4645Z" fill="#F3F3F3"/>
<path d="M22.5061 10.4731C22.4285 10.4904 22.3596 10.4386 22.3424 10.3697L21.9804 8.60298C21.9632 8.53403 22.0149 8.45647 22.0838 8.44785C22.1614 8.43062 22.2303 8.48232 22.2476 8.55127L22.6095 10.318C22.6268 10.3869 22.5837 10.4559 22.5061 10.4731ZM22.101 8.46509C22.0407 8.47371 21.9976 8.53403 22.0062 8.60298L22.3682 10.3697C22.3768 10.43 22.4458 10.4731 22.5061 10.4559C22.5664 10.4473 22.6095 10.3869 22.6009 10.318L22.2389 8.55127C22.2217 8.49094 22.1614 8.45647 22.101 8.46509Z" fill="white"/>
<path d="M23.161 9.34414C23.0921 9.35276 23.0318 9.30967 23.0145 9.24072L22.9111 8.44785C22.9025 8.37891 22.9542 8.31858 23.0231 8.30996C23.0921 8.30134 23.1524 8.34443 23.1696 8.41338L23.2731 9.20625C23.2817 9.2752 23.23 9.33552 23.161 9.34414Z" fill="#F3F3F3"/>
<path d="M23.1608 9.35276C23.0833 9.36137 23.0143 9.30966 23.0057 9.24072L22.9023 8.44785C22.8937 8.3789 22.9454 8.30996 23.023 8.30134C23.1005 8.29272 23.1695 8.34443 23.1781 8.41338L23.2815 9.20625C23.2901 9.27519 23.2384 9.34414 23.1608 9.35276ZM23.0316 8.31858C22.9712 8.32719 22.9195 8.38752 22.9282 8.44785L23.0316 9.24072C23.0402 9.30105 23.1005 9.34414 23.1608 9.33552C23.2212 9.3269 23.2729 9.26657 23.2643 9.20625L23.1608 8.41338C23.1522 8.35305 23.0919 8.30996 23.0316 8.31858Z" fill="white"/>
<path d="M24.0916 28.2265C29.7271 28.2265 34.2955 23.6581 34.2955 18.0226C34.2955 12.3872 29.7271 7.81873 24.0916 7.81873C18.4561 7.81873 13.8877 12.3872 13.8877 18.0226C13.8877 23.6581 18.4561 28.2265 24.0916 28.2265Z" fill="url(#paint2_linear_432_87)" fill-opacity="0.2"/>
<g filter="url(#filter1_d_432_87)">
<path d="M31.1584 11.5504L22.9281 16.8247H22.9195V16.8333L22.9108 16.8419L17.7744 25.3136L25.3239 19.2378L25.3325 19.2292V19.2206L31.1584 11.5504Z" fill="black" fill-opacity="0.05"/>
</g>
<path d="M31.0032 11.0592L22.8677 16.8419L25.2808 19.2378L31.0032 11.0592Z" fill="#CD151E"/>
<path d="M22.8765 16.8247L24.0916 18.0226L31.0034 11.0592L22.8765 16.8247Z" fill="#FA5153"/>
<path d="M22.8763 16.8247L25.2894 19.2206L17.1538 25.0033L22.8763 16.8247Z" fill="#ACACAC"/>
<path d="M17.1538 25.0033L24.0914 18.0226L22.8763 16.8247L17.1538 25.0033Z" fill="#EEEEEE"/>
<defs>
<filter id="filter0_d_432_87" x="0.5" y="0.75" width="47.0625" height="47.0625" filterUnits="userSpaceOnUse" color-interpolation-filters="sRGB">
<feFlood flood-opacity="0" result="BackgroundImageFix"/>
<feColorMatrix in="SourceAlpha" type="matrix" values="0 0 0 0 0 0 0 0 0 0 0 0 0 0 0 0 0 0 127 0" result="hardAlpha"/>
<feOffset dy="6.25"/>
<feGaussianBlur stdDeviation="6.25"/>
<feColorMatrix type="matrix" values="0 0 0 0 0 0 0 0 0 0 0 0 0 0 0 0 0 0 0.266007 0"/>
<feBlend mode="normal" in2="BackgroundImageFix" result="effect1_dropShadow_432_87"/>
<feBlend mode="normal" in="SourceGraphic" in2="effect1_dropShadow_432_87" result="shape"/>
</filter>
<filter id="filter1_d_432_87" x="5.27441" y="2.17539" width="38.3838" height="38.7632" filterUnits="userSpaceOnUse" color-interpolation-filters="sRGB">
<feFlood flood-opacity="0" result="BackgroundImageFix"/>
<feColorMatrix in="SourceAlpha" type="matrix" values="0 0 0 0 0 0 0 0 0 0 0 0 0 0 0 0 0 0 127 0" result="hardAlpha"/>
<feOffset dy="3.125"/>
<feGaussianBlur stdDeviation="6.25"/>
<feColorMatrix type="matrix" values="0 0 0 0 0 0 0 0 0 0 0 0 0 0 0 0 0 0 0.0509804 0"/>
<feBlend mode="normal" in2="BackgroundImageFix" result="effect1_dropShadow_432_87"/>
<feBlend mode="normal" in="SourceGraphic" in2="effect1_dropShadow_432_87" result="shape"/>
</filter>
<linearGradient id="paint0_linear_432_87" x1="1116.13" y1="2213.25" x2="1116.13" y2="7" gradientUnits="userSpaceOnUse">
<stop offset="0.25" stop-color="#DBDBDA"/>
<stop offset="1" stop-color="white"/>
</linearGradient>
<radialGradient id="paint1_radial_432_87" cx="0" cy="0" r="1" gradientUnits="userSpaceOnUse" gradientTransform="translate(1177.59 804.074) scale(1245.52)">
<stop stop-color="#2ABCE1"/>
<stop offset="0.113629" stop-color="#2ABBE1"/>
<stop offset="1" stop-color="#3375F8"/>
</radialGradient>
<linearGradient id="paint2_linear_432_87" x1="1014.9" y1="736.448" x2="538.632" y2="1590.89" gradientUnits="userSpaceOnUse">
<stop stop-opacity="0"/>
<stop offset="1"/>
</linearGradient>
</defs>
</svg>
