<svg width="22" height="22" viewBox="0 0 22 22" fill="none" xmlns="http://www.w3.org/2000/svg">
<circle cx="11" cy="11" r="11" fill="#B1AA00"/>
<path fill-rule="evenodd" clip-rule="evenodd" d="M9.99668 13.0193C8.71249 13.0193 7.67146 14.0698 7.67146 15.3657C7.67146 16.6616 8.71249 17.7122 9.99668 17.7122C11.2809 17.7122 12.3219 16.6616 12.3219 15.3657C12.3219 14.0698 11.2809 13.0193 9.99668 13.0193ZM7.38624 15.3657C7.38624 13.9109 8.55497 12.7315 9.99668 12.7315C11.4384 12.7315 12.6071 13.9109 12.6071 15.3657C12.6071 16.8206 11.4384 18 9.99668 18C8.55497 18 7.38624 16.8206 7.38624 15.3657Z" fill="white"/>
<path fill-rule="evenodd" clip-rule="evenodd" d="M5.51736 7.28257C6.00467 6.50357 6.45551 6.02494 6.9618 5.7316C7.55318 5.38896 8.23942 5.28782 9.19453 5.28782C10.1127 5.28782 10.7793 5.67188 11.2193 6.22091C11.6623 6.77378 11.8794 7.49948 11.8794 8.1793C11.8794 8.83778 11.6185 9.34792 11.2129 9.81284C10.8812 10.193 10.4611 10.5346 10.0121 10.8996C9.90443 10.9871 9.79514 11.0759 9.68502 11.1669C8.55445 12.1016 7.38624 13.2322 7.38624 15.3657C7.38624 15.4452 7.45004 15.5096 7.5288 15.5096C7.60756 15.5096 7.67146 15.4452 7.67146 15.3657C7.67146 13.3685 8.74975 12.3122 9.86577 11.3896C9.97088 11.3027 10.0768 11.2166 10.1824 11.1309C10.633 10.7647 11.0775 10.4036 11.427 10.003C11.8639 9.50224 12.1646 8.92723 12.1646 8.1793C12.1646 7.44262 11.9305 6.65062 11.4411 6.03992C10.9486 5.42538 10.2014 5 9.19453 5C8.22455 5 7.477 5.10121 6.81978 5.48199C6.16316 5.86243 5.61593 6.51063 5.0189 7.56134C4.98652 7.61832 4.99649 7.6902 5.04312 7.73602C5.08976 7.78185 5.16122 7.79 5.21681 7.75582C5.87631 7.35036 6.51227 7.31514 6.97414 7.49406C7.43525 7.6727 7.72843 8.06388 7.72843 8.54352C7.72843 9.05884 7.60295 9.42024 7.33343 9.81575C7.11383 10.138 6.80308 10.4774 6.38336 10.9357C6.273 11.0562 6.1551 11.1849 6.02934 11.3238C5.38821 12.0315 5 12.9755 5 14.0092C5 16.2133 6.77057 18 8.95467 18H15.3708C15.4496 18 15.5135 17.9356 15.5135 17.8561C15.5135 17.3943 15.376 17.0578 15.1568 16.8202C14.9403 16.5855 14.6563 16.4607 14.3847 16.3961C14.1129 16.3314 13.844 16.3247 13.6453 16.3335C13.5455 16.3379 13.4621 16.3463 13.4033 16.3536C13.3738 16.3573 13.3504 16.3607 13.3342 16.3633L13.3151 16.3664L13.3098 16.3673L13.3083 16.3676C13.3082 16.3676 13.3075 16.3677 13.3332 16.5093L13.3083 16.3676C13.2308 16.3819 13.1787 16.4571 13.1929 16.5353C13.2071 16.6134 13.2814 16.6651 13.3588 16.6508L13.3629 16.6501L13.378 16.6477C13.3916 16.6455 13.412 16.6425 13.4382 16.6393C13.4908 16.6327 13.5666 16.6251 13.6578 16.621C13.8412 16.613 14.0817 16.6197 14.3193 16.6762C14.5571 16.7328 14.7826 16.8369 14.9481 17.0164C15.0906 17.1709 15.1982 17.3914 15.2229 17.7122H8.95467C6.92809 17.7122 5.28522 16.0543 5.28522 14.0092C5.28522 13.0495 5.64536 12.1742 6.23985 11.518C6.36079 11.3845 6.47563 11.2591 6.58432 11.1405C7.00674 10.6793 7.33611 10.3198 7.56845 9.97884C7.8684 9.53866 8.01365 9.12098 8.01365 8.54352C8.01365 7.9304 7.63384 7.44132 7.07636 7.22536C6.63509 7.05442 6.08608 7.05406 5.51736 7.28257Z" fill="white"/>
<path fill-rule="evenodd" clip-rule="evenodd" d="M7.90932 13.1596C8.48882 12.2597 9.49426 11.664 10.6377 11.664C12.4334 11.664 13.8892 13.133 13.8892 14.9451C13.8892 15.5406 13.7318 16.0994 13.4567 16.5811C13.4174 16.65 13.3302 16.6737 13.262 16.634C13.1937 16.5943 13.1703 16.5063 13.2096 16.4374C13.4604 15.9983 13.6039 15.4888 13.6039 14.9451C13.6039 13.292 12.2759 11.9518 10.6377 11.9518C9.59484 11.9518 8.6776 12.4948 8.14848 13.3165C8.10556 13.3831 8.01724 13.402 7.95119 13.3587C7.88515 13.3154 7.8664 13.2263 7.90932 13.1596Z" fill="white"/>
<path fill-rule="evenodd" clip-rule="evenodd" d="M10.7177 11.5972C11.229 11.5954 11.7327 11.7229 12.2103 11.9342C13.0807 12.3194 13.8737 12.986 14.4937 13.676C14.7402 13.9503 15.1276 14.0411 15.4735 13.9093C16.0149 13.703 16.815 13.4509 17.5475 13.4313C17.4677 13.3528 17.3609 13.2634 17.224 13.1789C16.8603 12.9545 16.2739 12.7588 15.3955 12.9146C15.351 12.9225 15.3054 12.9086 15.2726 12.8772C14.0404 11.6967 12.2619 11.1535 10.7177 11.5972ZM17.8574 13.5823L17.9803 13.5092C18.0072 13.5555 18.0065 13.613 17.9784 13.6585C17.9502 13.704 17.8993 13.7299 17.8463 13.7258C17.1039 13.6672 16.192 13.9432 15.5742 14.1786C15.1214 14.3511 14.6094 14.2333 14.2824 13.8693C13.6792 13.198 12.9176 12.5615 12.0958 12.1978C11.2764 11.8353 10.4063 11.7471 9.56687 12.1524C9.49997 12.1847 9.41971 12.1598 9.38225 12.0952C9.34479 12.0306 9.36264 11.9479 9.42331 11.9048C11.268 10.5961 13.7949 11.1057 15.4169 12.6192C16.3254 12.4737 16.9601 12.6787 17.3728 12.9334C17.5831 13.0631 17.7331 13.2041 17.8313 13.3138C17.8804 13.3687 17.9167 13.4159 17.9411 13.4501C17.9533 13.4673 17.9626 13.4812 17.9691 13.4912L17.9767 13.5034L17.979 13.5071L17.9798 13.5084L17.9803 13.5092C17.9803 13.5093 17.9803 13.5092 17.8574 13.5823Z" fill="white"/>
<path fill-rule="evenodd" clip-rule="evenodd" d="M14.6137 7.36909C14.6466 7.34842 14.6864 7.34216 14.724 7.35174C15.2291 7.48058 15.5266 7.84813 15.6948 8.16775C15.7793 8.32828 15.8333 8.48047 15.8663 8.59245C15.8783 8.63317 15.8876 8.66881 15.8946 8.69787C16.7343 9.01442 17.3146 9.74167 17.6121 10.4286C17.7656 10.7831 17.8483 11.1366 17.849 11.43C17.8497 11.7123 17.7721 11.9916 17.5418 12.1115C17.3587 12.2069 17.0913 12.254 16.7912 12.271C16.4865 12.2884 16.1304 12.2755 15.7582 12.2392C15.0144 12.1668 14.1923 11.9997 13.565 11.783C13.4905 11.7572 13.4508 11.6754 13.4763 11.6002C13.5018 11.525 13.5829 11.4849 13.6574 11.5107C14.2599 11.7188 15.0596 11.882 15.7856 11.9527C16.1482 11.9881 16.4891 11.9999 16.7752 11.9837C17.0659 11.9672 17.2833 11.9223 17.411 11.8558C17.4916 11.8138 17.5644 11.6859 17.5638 11.4307C17.5632 11.1865 17.493 10.8723 17.3508 10.5438C17.0657 9.8856 16.5093 9.20952 15.7263 8.94296C15.6765 8.92601 15.64 8.8828 15.6313 8.83052L15.631 8.82908L15.6297 8.82182C15.6284 8.81509 15.6263 8.80467 15.6233 8.79103C15.6172 8.76372 15.6074 8.72362 15.5929 8.67445C15.5639 8.57577 15.5164 8.44229 15.4429 8.30276C15.3027 8.0363 15.0756 7.76117 14.7126 7.6474C14.517 7.78159 14.4164 7.9238 14.3649 8.13005C14.305 8.36974 14.3096 8.70156 14.35 9.22031C14.3544 9.27725 14.325 9.33145 14.2751 9.35842C13.2296 9.92364 12.4724 10.4498 11.9777 10.8334C11.7303 11.0253 11.5486 11.1815 11.4292 11.2892C11.3696 11.3431 11.3255 11.3848 11.2966 11.4127C11.2822 11.4267 11.2715 11.4373 11.2646 11.4442L11.2571 11.4518L11.2554 11.4535C11.2554 11.4535 11.2554 11.4535 11.2554 11.4535C11.2005 11.5104 11.1099 11.5119 11.0535 11.4565C10.997 11.401 10.9958 11.3099 11.0508 11.253L11.1524 11.3528C11.0508 11.253 11.0508 11.253 11.0508 11.253L11.0519 11.2518L11.0544 11.2493L11.0637 11.24C11.0717 11.2319 11.0835 11.2202 11.0991 11.2051C11.1304 11.1748 11.1769 11.1308 11.2391 11.0747C11.3636 10.9624 11.5507 10.8016 11.8039 10.6052C12.2971 10.2227 13.0407 9.70538 14.0586 9.14921C14.0248 8.68319 14.0198 8.33379 14.0883 8.05969C14.1653 7.75158 14.3324 7.54582 14.6137 7.36909Z" fill="white"/>
<path fill-rule="evenodd" clip-rule="evenodd" d="M9.99665 14.6075C9.58165 14.6075 9.24523 14.947 9.24523 15.3657C9.24523 15.7845 9.58165 16.124 9.99665 16.124C10.4116 16.124 10.7481 15.7845 10.7481 15.3657C10.7481 14.947 10.4116 14.6075 9.99665 14.6075ZM8.96001 15.3657C8.96001 14.788 9.42413 14.3196 9.99665 14.3196C10.5692 14.3196 11.0333 14.788 11.0333 15.3657C11.0333 15.9435 10.5692 16.4118 9.99665 16.4118C9.42413 16.4118 8.96001 15.9435 8.96001 15.3657Z" fill="white"/>
<path d="M7.67146 15.3657C7.67146 14.0698 8.71249 13.0193 9.99668 13.0193C11.2809 13.0193 12.3219 14.0698 12.3219 15.3657C12.3219 16.6616 11.2809 17.7122 9.99668 17.7122C8.71249 17.7122 7.67146 16.6616 7.67146 15.3657ZM7.67146 15.3657C7.67146 15.4452 7.60756 15.5096 7.5288 15.5096C7.45004 15.5096 7.38624 15.4452 7.38624 15.3657M7.67146 15.3657C7.67146 13.3685 8.74975 12.3122 9.86577 11.3896C9.97088 11.3027 10.0768 11.2166 10.1824 11.1309C10.633 10.7647 11.0775 10.4036 11.427 10.003C11.8639 9.50224 12.1646 8.92723 12.1646 8.1793C12.1646 7.44262 11.9305 6.65062 11.4411 6.03992C10.9486 5.42538 10.2014 5 9.19453 5C8.22455 5 7.477 5.10121 6.81978 5.48199C6.16316 5.86243 5.61593 6.51063 5.0189 7.56134C4.98652 7.61832 4.99649 7.6902 5.04312 7.73602C5.08976 7.78185 5.16122 7.79 5.21681 7.75582C5.87631 7.35036 6.51227 7.31514 6.97414 7.49406C7.43525 7.6727 7.72843 8.06388 7.72843 8.54352C7.72843 9.05883 7.60295 9.42024 7.33343 9.81575C7.11383 10.138 6.80308 10.4774 6.38336 10.9357C6.273 11.0562 6.1551 11.1849 6.02934 11.3238C5.38821 12.0315 5 12.9755 5 14.0092C5 16.2133 6.77057 18 8.95467 18H15.3708C15.4496 18 15.5135 17.9356 15.5135 17.8561C15.5135 17.3943 15.376 17.0578 15.1568 16.8202C14.9403 16.5855 14.6563 16.4607 14.3847 16.3961C14.1129 16.3314 13.844 16.3247 13.6453 16.3335C13.5455 16.3379 13.4621 16.3463 13.4033 16.3536C13.3738 16.3573 13.3504 16.3607 13.3342 16.3633L13.3151 16.3664L13.3098 16.3673L13.3083 16.3676M7.38624 15.3657C7.38624 13.9109 8.55497 12.7315 9.99668 12.7315C11.4384 12.7315 12.6071 13.9109 12.6071 15.3657C12.6071 16.8206 11.4384 18 9.99668 18C8.55497 18 7.38624 16.8206 7.38624 15.3657ZM7.38624 15.3657C7.38624 13.2322 8.55445 12.1016 9.68502 11.1669C9.79514 11.0759 9.90443 10.9871 10.0121 10.8996C10.4611 10.5346 10.8812 10.193 11.2129 9.81284C11.6185 9.34792 11.8794 8.83778 11.8794 8.1793C11.8794 7.49948 11.6623 6.77378 11.2193 6.22091C10.7793 5.67188 10.1127 5.28782 9.19453 5.28782C8.23942 5.28782 7.55318 5.38896 6.9618 5.7316C6.45551 6.02494 6.00467 6.50357 5.51736 7.28257C6.08608 7.05406 6.63509 7.05442 7.07636 7.22536C7.63384 7.44132 8.01365 7.9304 8.01365 8.54352C8.01365 9.12098 7.8684 9.53866 7.56845 9.97884C7.33611 10.3198 7.00674 10.6793 6.58432 11.1405C6.47563 11.2591 6.36079 11.3845 6.23985 11.518C5.64536 12.1742 5.28522 13.0495 5.28522 14.0092C5.28522 16.0543 6.9281 17.7122 8.95467 17.7122H15.2229C15.1982 17.3914 15.0906 17.1709 14.9481 17.0164C14.7826 16.8369 14.5571 16.7328 14.3193 16.6762C14.0817 16.6197 13.8412 16.613 13.6578 16.621C13.5666 16.6251 13.4908 16.6327 13.4382 16.6393C13.412 16.6425 13.3916 16.6455 13.378 16.6477L13.3629 16.6501L13.3588 16.6508C13.2814 16.6651 13.2071 16.6134 13.1929 16.5353C13.1787 16.4571 13.2308 16.3819 13.3083 16.3676M13.3083 16.3676C13.3082 16.3676 13.3075 16.3677 13.3332 16.5093L13.3083 16.3676ZM14.4937 13.676C13.8737 12.986 13.0807 12.3194 12.2103 11.9342C11.7327 11.7229 11.229 11.5954 10.7177 11.5972C12.2619 11.1535 14.0404 11.6967 15.2726 12.8772C15.3054 12.9086 15.351 12.9225 15.3955 12.9146C16.2739 12.7588 16.8603 12.9545 17.224 13.1789C17.3609 13.2634 17.4677 13.3528 17.5475 13.4313C16.815 13.4509 16.0149 13.703 15.4735 13.9093C15.1276 14.0411 14.7402 13.9503 14.4937 13.676ZM14.4937 13.676L14.3907 13.7702M17.9803 13.5092L17.8574 13.5823C17.9803 13.5092 17.9803 13.5093 17.9803 13.5092ZM17.9803 13.5092C18.0072 13.5555 18.0065 13.613 17.9784 13.6585C17.9502 13.704 17.8993 13.7299 17.8463 13.7258C17.1039 13.6672 16.192 13.9432 15.5742 14.1786C15.1214 14.3511 14.6094 14.2333 14.2824 13.8693C13.6792 13.198 12.9176 12.5615 12.0958 12.1978C11.2764 11.8353 10.4063 11.7471 9.56687 12.1524C9.49997 12.1847 9.41971 12.1598 9.38225 12.0952C9.34479 12.0306 9.36264 11.9479 9.42331 11.9048C11.268 10.5961 13.7949 11.1057 15.4169 12.6192C16.3254 12.4737 16.9601 12.6787 17.3728 12.9334C17.5831 13.0631 17.7331 13.2041 17.8313 13.3138C17.8804 13.3687 17.9167 13.4159 17.9411 13.4501C17.9533 13.4673 17.9626 13.4812 17.9691 13.4912L17.9767 13.5034L17.979 13.5071L17.9798 13.5084L17.9803 13.5092ZM11.2554 11.4535L11.2571 11.4518L11.2646 11.4442C11.2715 11.4373 11.2822 11.4267 11.2966 11.4127C11.3255 11.3848 11.3696 11.3431 11.4292 11.2892C11.5486 11.1815 11.7303 11.0253 11.9777 10.8334C12.4724 10.4498 13.2296 9.92364 14.2751 9.35842C14.325 9.33145 14.3544 9.27725 14.35 9.22031C14.3096 8.70156 14.305 8.36974 14.3649 8.13005C14.4164 7.9238 14.517 7.78159 14.7126 7.6474C15.0756 7.76117 15.3027 8.0363 15.4429 8.30276C15.5164 8.44229 15.5639 8.57577 15.5929 8.67445C15.6074 8.72362 15.6172 8.76372 15.6233 8.79103C15.6263 8.80467 15.6284 8.81509 15.6297 8.82182L15.631 8.82908L15.6313 8.83052C15.64 8.8828 15.6765 8.92601 15.7263 8.94296C16.5093 9.20952 17.0657 9.8856 17.3508 10.5438C17.493 10.8723 17.5632 11.1865 17.5638 11.4307C17.5644 11.6859 17.4916 11.8138 17.411 11.8558C17.2833 11.9223 17.0659 11.9672 16.7752 11.9837C16.4891 11.9999 16.1482 11.9881 15.7856 11.9527C15.0596 11.882 14.2599 11.7188 13.6574 11.5107C13.5829 11.4849 13.5018 11.525 13.4763 11.6002C13.4508 11.6754 13.4905 11.7572 13.565 11.783C14.1923 11.9997 15.0144 12.1668 15.7582 12.2392C16.1304 12.2755 16.4864 12.2884 16.7912 12.2711C17.0913 12.254 17.3587 12.2069 17.5418 12.1115C17.7721 11.9916 17.8497 11.7123 17.849 11.43C17.8483 11.1366 17.7656 10.7831 17.6121 10.4286C17.3146 9.74167 16.7343 9.01442 15.8946 8.69787C15.8876 8.66881 15.8783 8.63317 15.8663 8.59245C15.8333 8.48047 15.7793 8.32828 15.6948 8.16775C15.5266 7.84813 15.2291 7.48058 14.724 7.35174C14.6864 7.34216 14.6466 7.34842 14.6137 7.36909C14.3324 7.54582 14.1653 7.75158 14.0883 8.05969C14.0198 8.33379 14.0248 8.68319 14.0586 9.14921C13.0407 9.70538 12.2971 10.2227 11.8039 10.6052C11.5507 10.8016 11.3636 10.9624 11.2391 11.0747C11.1769 11.1308 11.1304 11.1748 11.0991 11.2051C11.0835 11.2202 11.0717 11.2319 11.0637 11.24L11.0544 11.2493L11.0519 11.2518L11.0508 11.253M11.2554 11.4535C11.2554 11.4535 11.2554 11.4535 11.2554 11.4535ZM11.2554 11.4535C11.2005 11.5104 11.1099 11.5119 11.0535 11.4565C10.997 11.401 10.9958 11.3099 11.0508 11.253M11.0508 11.253L11.1524 11.3528C11.0508 11.253 11.0508 11.253 11.0508 11.253ZM10.6377 11.664C9.49426 11.664 8.48882 12.2597 7.90932 13.1596C7.8664 13.2263 7.88515 13.3154 7.95119 13.3587C8.01724 13.402 8.10556 13.3831 8.14848 13.3165C8.6776 12.4948 9.59484 11.9518 10.6377 11.9518C12.2759 11.9518 13.6039 13.292 13.6039 14.9451C13.6039 15.4888 13.4604 15.9983 13.2096 16.4374C13.1703 16.5063 13.1937 16.5943 13.262 16.634C13.3302 16.6737 13.4174 16.65 13.4567 16.5811C13.7318 16.0994 13.8892 15.5406 13.8892 14.9451C13.8892 13.133 12.4334 11.664 10.6377 11.664ZM9.24523 15.3657C9.24523 14.947 9.58165 14.6075 9.99665 14.6075C10.4116 14.6075 10.7481 14.947 10.7481 15.3657C10.7481 15.7845 10.4116 16.124 9.99665 16.124C9.58165 16.124 9.24523 15.7845 9.24523 15.3657ZM9.99665 14.3196C9.42413 14.3196 8.96001 14.788 8.96001 15.3657C8.96001 15.9435 9.42413 16.4118 9.99665 16.4118C10.5692 16.4118 11.0333 15.9435 11.0333 15.3657C11.0333 14.788 10.5692 14.3196 9.99665 14.3196Z" stroke="white" stroke-width="0.2" stroke-linecap="round" stroke-linejoin="round"/>
</svg>
