<svg width="52" height="38" viewBox="0 0 26 19" fill="none" xmlns="http://www.w3.org/2000/svg">
<path fill-rule="evenodd" clip-rule="evenodd" d="M12.9023 12.9999C15.1115 12.9999 16.9023 11.2091 16.9023 8.99993C16.9023 6.79079 15.1115 4.99994 12.9023 4.99994C10.6932 4.99994 8.90234 6.79079 8.90234 8.99993C8.90234 11.2091 10.6932 12.9999 12.9023 12.9999ZM12.9023 10.7078C11.9591 10.7078 11.1945 9.94313 11.1945 8.99993C11.1945 8.05673 11.9591 7.29205 12.9023 7.29205C13.8455 7.29205 14.6102 8.05673 14.6102 8.99993C14.6102 9.94313 13.8455 10.7078 12.9023 10.7078Z" fill="#4493F8"/>
<path fill-rule="evenodd" clip-rule="evenodd" d="M12.9085 1C7.41001 1 3.67049 3.98176 1.69632 6.11974C0.174143 7.76821 0.174144 10.2318 1.69632 11.8802C3.67049 14.0183 7.41001 17 12.9085 17C18.407 17 22.1466 14.0183 24.1207 11.8802C25.6429 10.2318 25.6429 7.76821 24.1207 6.11974C22.1466 3.98176 18.407 1 12.9085 1ZM3.37561 7.67038C5.12376 5.77715 8.29927 3.28571 12.9085 3.28571C17.5178 3.28571 20.6933 5.77715 22.4414 7.67038C23.155 8.44318 23.155 9.55678 22.4414 10.3296C20.6933 12.2228 17.5178 14.7142 12.9085 14.7142C8.29927 14.7142 5.12376 12.2228 3.37561 10.3296C2.66199 9.55678 2.66199 8.44318 3.37561 7.67038Z" fill="#4493F8"/>
<line x1="22.5001" y1="0.558931" x2="3.5001" y2="17.5589" stroke="#4493F8" stroke-width="1.5"/>
</svg>
