<svg width="26" height="16" viewBox="0 0 26 16" fill="none" xmlns="http://www.w3.org/2000/svg">
<path fill-rule="evenodd" clip-rule="evenodd" d="M12.9023 11.9999C15.1115 11.9999 16.9023 10.2091 16.9023 7.99993C16.9023 5.79079 15.1115 3.99994 12.9023 3.99994C10.6932 3.99994 8.90234 5.79079 8.90234 7.99993C8.90234 10.2091 10.6932 11.9999 12.9023 11.9999ZM12.9023 9.70781C11.9591 9.70781 11.1945 8.94313 11.1945 7.99993C11.1945 7.05673 11.9591 6.29205 12.9023 6.29205C13.8455 6.29205 14.6102 7.05673 14.6102 7.99993C14.6102 8.94313 13.8455 9.70781 12.9023 9.70781Z" fill="#4493F8"/>
<path fill-rule="evenodd" clip-rule="evenodd" d="M12.9085 0C7.41001 0 3.67049 2.98176 1.69632 5.11974C0.174143 6.76821 0.174144 9.23175 1.69632 10.8802C3.67049 13.0183 7.41001 16 12.9085 16C18.407 16 22.1466 13.0183 24.1207 10.8802C25.6429 9.23175 25.6429 6.76821 24.1207 5.11974C22.1466 2.98176 18.407 0 12.9085 0ZM3.37561 6.67038C5.12376 4.77715 8.29927 2.28571 12.9085 2.28571C17.5178 2.28571 20.6933 4.77715 22.4414 6.67038C23.155 7.44318 23.155 8.55678 22.4414 9.32957C20.6933 11.2228 17.5178 13.7142 12.9085 13.7142C8.29927 13.7142 5.12376 11.2228 3.37561 9.32957C2.66199 8.55678 2.66199 7.44318 3.37561 6.67038Z" fill="#4493F8"/>
</svg>
