<svg width="17" height="13" viewBox="0 0 17 13" fill="none" xmlns="http://www.w3.org/2000/svg">
<path d="M8.50064 11.3021C11.8309 11.3021 14.5306 9.7116 14.5306 7.74965C14.5306 5.7877 11.8309 4.19722 8.50064 4.19722C5.1704 4.19722 2.4707 5.7877 2.4707 7.74965C2.4707 9.7116 5.1704 11.3021 8.50064 11.3021Z" fill="#E56353"/>
<path d="M14.7823 11.647H8.5V0.993988C8.5 0.993988 8.9844 4.02421 10.7599 6.24977C11.787 7.53717 13.8468 7.54226 14.8916 6.26734C15.5244 5.4951 15.9089 4.48592 16.1345 3.30869" fill="#F6C358"/>
<path d="M2.21846 11.647H8.50075V0.993988C8.50075 0.993988 8.01635 4.02421 6.24084 6.24977C5.21378 7.53717 3.154 7.54226 2.10913 6.26734C1.47627 5.4951 1.0919 4.48592 0.866211 3.30869" fill="#FCD462"/>
<path d="M15.1923 11.6474H1.80957V12.4539H15.1923V11.6474Z" fill="#FCD462"/>
<path d="M8.50047 2.0068C9.05463 2.0068 9.50387 1.55756 9.50387 1.0034C9.50387 0.449236 9.05463 0 8.50047 0C7.94631 0 7.49707 0.449236 7.49707 1.0034C7.49707 1.55756 7.94631 2.0068 8.50047 2.0068Z" fill="#E56353"/>
<path d="M15.9966 4.84395C16.5507 4.84395 17 4.39471 17 3.84055C17 3.28639 16.5507 2.83715 15.9966 2.83715C15.4424 2.83715 14.9932 3.28639 14.9932 3.84055C14.9932 4.39471 15.4424 4.84395 15.9966 4.84395Z" fill="#E56353"/>
<path d="M1.0034 4.84395C1.55756 4.84395 2.0068 4.39471 2.0068 3.84055C2.0068 3.28639 1.55756 2.83715 1.0034 2.83715C0.449236 2.83715 0 3.28639 0 3.84055C0 4.39471 0.449236 4.84395 1.0034 4.84395Z" fill="#E56353"/>
<path d="M8.50038 10.4039C9.25837 10.4039 9.87283 9.48985 9.87283 8.36237C9.87283 7.23489 9.25837 6.32088 8.50038 6.32088C7.7424 6.32088 7.12793 7.23489 7.12793 8.36237C7.12793 9.48985 7.7424 10.4039 8.50038 10.4039Z" fill="#44C4A1"/>
</svg>
