<svg xmlns="http://www.w3.org/2000/svg" viewBox="0 0 100 100" preserveAspectRatio="xMidYMid" width="200" height="200" style="shape-rendering: auto; display: block; background: transparent;" xmlns:xlink="http://www.w3.org/1999/xlink"><g><g transform="translate(50 50)">
<g>
<animateTransform repeatCount="indefinite" dur="0.29940119760479045s" keyTimes="0;1" values="0;72" type="rotate" attributeName="transform"></animateTransform><path fill="#0099cc" d="M26.433879775772606 -5.5 L36.43387977577261 -5.5 L36.43387977577261 5.5 L26.433879775772606 5.5 A27 27 0 0 1 13.399328917601306 23.440520142649 L13.399328917601306 23.440520142649 L16.48949886135078 32.951085305600536 L6.027877182104091 36.35027224372496 L2.937707238354617 26.839707080773422 A27 27 0 0 1 -18.152639078255657 19.98703816213362 L-18.152639078255657 19.98703816213362 L-26.24280902200513 25.86489068505835 L-32.70844679722234 16.965703746933922 L-24.618276853472864 11.08785122400919 A27 27 0 0 1 -24.618276853472867 -11.087851224009185 L-24.618276853472867 -11.087851224009185 L-32.708446797222344 -16.965703746933915 L-26.242809022005133 -25.864890685058345 L-18.15263907825566 -19.987038162133615 A27 27 0 0 1 2.937707238354604 -26.839707080773422 L2.937707238354604 -26.839707080773422 L6.027877182104076 -36.35027224372496 L16.489498861350775 -32.951085305600536 L13.399328917601304 -23.440520142649 A27 27 0 0 1 26.433879775772603 -5.5000000000000115 M0 -18A18 18 0 1 0 0 18 A18 18 0 1 0 0 -18"></path></g></g><g></g></g><!-- [ldio] generated by https://loading.io --></svg>