<svg width="20" height="26" viewBox="0 0 20 26" fill="none" xmlns="http://www.w3.org/2000/svg">
<path d="M15.7453 0H0V25.5311H20V4.25466L15.7453 0Z" fill="#E8E8E8"/>
<path d="M16.6041 12.6259C16.2973 12.0791 15.2373 11.9073 14.751 11.83C14.3677 11.7691 13.9763 11.7509 13.5886 11.7512C13.2842 11.7492 12.9843 11.7642 12.6882 11.781C12.5791 11.7883 12.471 11.7978 12.3631 11.8071C12.2524 11.6926 12.1455 11.5743 12.042 11.4533C11.3835 10.6737 10.8518 9.78972 10.4185 8.87109C10.5335 8.42722 10.6256 7.96399 10.6812 7.48291C10.7826 6.60486 10.8175 5.6042 10.4885 4.76708C10.3749 4.47816 10.072 4.12642 9.72252 4.30158C9.32076 4.503 9.20775 5.07369 9.17499 5.47823C9.14864 5.80521 9.16708 6.13304 9.22198 6.45455C9.2779 6.77825 9.36792 7.08561 9.46593 7.39255C9.55739 7.67398 9.65818 7.95321 9.76808 8.22984C9.69835 8.4476 9.62433 8.66158 9.54661 8.87008C9.36539 9.34527 9.16943 9.79671 8.98098 10.231C8.88161 10.4463 8.78435 10.6571 8.68919 10.8631C8.38806 11.5246 8.06116 12.1739 7.69426 12.8016C6.83845 13.1035 6.07046 13.4535 5.43266 13.8648C5.09052 14.0858 4.7883 14.3259 4.5366 14.5892C4.29896 14.8378 4.05745 15.1604 4.03631 15.5175C4.02444 15.7191 4.10427 15.9147 4.2694 16.0343C4.49651 16.204 4.79748 16.1927 5.06097 16.1375C5.92411 15.9564 6.58692 15.2145 7.15137 14.5891C7.54016 14.1584 7.98268 13.6115 8.44557 12.95C8.44659 12.9485 8.4476 12.947 8.44869 12.9455C9.24261 12.6993 10.1067 12.4915 11.0237 12.3387C11.4427 12.2693 11.8727 12.2124 12.3114 12.1725C12.6198 12.4614 12.9531 12.7245 13.3167 12.9442C13.5999 13.1184 13.9011 13.2655 14.2164 13.3753C14.5352 13.4794 14.856 13.5645 15.1872 13.6183C15.3544 13.6422 15.5254 13.6531 15.7002 13.6465C16.0901 13.6318 16.6499 13.4822 16.6866 13.009C16.6979 12.8642 16.6666 12.7372 16.6041 12.6259ZM7.26791 13.4941C7.08526 13.777 6.9091 14.0315 6.74312 14.2554C6.33665 14.8085 5.8724 15.4654 5.20025 15.711C5.07259 15.7577 4.90451 15.8059 4.72733 15.7954C4.56952 15.7862 4.4139 15.7165 4.42106 15.5373C4.4246 15.4435 4.47049 15.3239 4.54089 15.2063C4.61794 15.0774 4.71335 14.9591 4.81668 14.8504C5.03806 14.6178 5.31797 14.3924 5.63999 14.1837C6.13387 13.8632 6.7235 13.5748 7.38075 13.3175C7.34294 13.3773 7.30522 13.4367 7.26791 13.4941ZM9.56025 6.39863C9.50955 6.10272 9.50189 5.80268 9.53305 5.51418C9.54854 5.36993 9.57793 5.22914 9.62046 5.09718C9.6565 4.98518 9.73431 4.71184 9.85843 4.67673C10.0631 4.61879 10.126 5.05811 10.1491 5.1824C10.281 5.88942 10.1648 6.67568 10.0066 7.36922C9.98138 7.47954 9.95333 7.58808 9.92462 7.69621C9.87561 7.56139 9.82887 7.42615 9.78584 7.29023C9.69321 6.9934 9.6085 6.69311 9.56025 6.39863ZM10.9651 11.98C10.1963 12.1046 9.46492 12.2679 8.77744 12.4607C8.86022 12.4375 9.23849 11.7206 9.32286 11.5718C9.72041 10.8716 10.0456 10.1367 10.2793 9.36582C10.6919 10.1819 11.1927 10.9626 11.808 11.6575C11.8646 11.7206 11.9222 11.7829 11.9808 11.8444C11.6361 11.8816 11.2968 11.9268 10.9651 11.98ZM16.1645 12.9647C16.1364 13.1167 15.8117 13.2036 15.6603 13.2276C15.2126 13.298 14.739 13.2416 14.3106 13.0977C14.0166 12.999 13.7331 12.8646 13.4637 12.7029C13.1959 12.5412 12.9454 12.3509 12.7112 12.141C12.9999 12.1237 13.2922 12.1123 13.5859 12.1178C13.8797 12.1208 14.1757 12.1356 14.468 12.1738C15.0163 12.2349 15.6307 12.4231 16.0623 12.7789C16.1472 12.849 16.1744 12.911 16.1645 12.9647Z" fill="#FB3449"/>
<path d="M16.4037 2.12737H0V0H15.7453L16.4037 2.12737Z" fill="#FB3449"/>
<path d="M7.91547 20.3072C7.91547 20.7586 7.78242 21.1072 7.51615 21.3531C7.24988 21.5991 6.87178 21.722 6.38169 21.722H6.07491V23.0624H4.9834V19.0221H6.38177C6.89208 19.0221 7.27531 19.1336 7.53139 19.3565C7.78747 19.5794 7.91547 19.8963 7.91547 20.3072ZM6.075 20.8322H6.27398C6.43794 20.8322 6.56829 20.7862 6.66505 20.694C6.76181 20.6019 6.81014 20.4747 6.81014 20.3126C6.81014 20.04 6.65907 19.9036 6.35693 19.9036H6.075V20.8322Z" fill="#A4A9AD"/>
<path d="M11.9891 20.9566C11.9891 21.6308 11.8035 22.1504 11.4323 22.5152C11.0611 22.88 10.5392 23.0624 9.86675 23.0624H8.55957V19.0221H9.95794C10.6064 19.0221 11.1071 19.1879 11.4599 19.5195C11.8126 19.8512 11.9891 20.3302 11.9891 20.9566ZM10.8561 20.9953C10.8561 20.625 10.7829 20.3505 10.6364 20.1717C10.49 19.9931 10.2675 19.9037 9.96898 19.9037H9.65125V22.167H9.89445C10.2261 22.167 10.4693 22.0707 10.624 21.8782C10.7787 21.6857 10.8561 21.3914 10.8561 20.9953Z" fill="#A4A9AD"/>
<path d="M13.7879 23.0624H12.7129V19.0221H15.1006V19.8982H13.7879V20.6692H14.9983V21.5452H13.7879V23.0624Z" fill="#A4A9AD"/>
<path d="M15.7451 4.25466H19.9998L15.7451 0V4.25466Z" fill="#D1D3D3"/>
</svg>
