<svg width="24" height="24" viewBox="0 0 24 24" fill="none" xmlns="http://www.w3.org/2000/svg">
<path fill-rule="evenodd" clip-rule="evenodd" d="M17.4973 15.9539C18.8415 14.2734 19.6453 12.1419 19.6453 9.82264C19.6453 4.39774 15.2475 0 9.82264 0C4.39774 0 0 4.39774 0 9.82264C0 15.2475 4.39774 19.6453 9.82264 19.6453C12.1419 19.6453 14.2734 18.8415 15.9539 17.4973L22.1368 23.6803C22.563 24.1066 23.2541 24.1066 23.6803 23.6803C24.1066 23.2541 24.1066 22.563 23.6803 22.1368L17.4973 15.9539ZM9.82264 17.4734C5.59723 17.4734 2.17186 14.0481 2.17186 9.82264C2.17186 5.59723 5.59723 2.17186 9.82264 2.17186C14.0481 2.17186 17.4734 5.59723 17.4734 9.82264C17.4734 14.0481 14.0481 17.4734 9.82264 17.4734Z" fill="#838C95"/>
</svg>
