<svg width="269" height="183" viewBox="0 0 269 183" fill="none" xmlns="http://www.w3.org/2000/svg">
<path d="M16.2893 183C11.1989 181.982 7.2114 179.861 4.32684 176.637C1.44228 173.243 0 169.171 0 164.42C0 161.196 0.76356 157.803 2.29068 154.239L63.121 7.89025C65.1571 2.79984 69.0598 0.254639 74.8289 0.254639C80.2586 0.254639 84.0764 2.79984 86.2823 7.89025L147.113 154.239C148.64 157.803 149.403 161.196 149.403 164.42C149.403 169.001 147.961 172.989 145.076 176.383C142.192 179.776 138.204 181.982 133.114 183L111.225 129.805H38.178L16.2893 183ZM103.844 109.189L71.0111 25.9612L68.9749 26.7247L73.5563 38.4326L45.5591 109.189H103.844Z" fill="#838C95"/>
<path d="M209.242 116.698H167.055C167.055 111.862 168.137 108.108 170.3 105.435C172.591 102.763 175.9 101.426 180.226 101.426H209.242V76.6107C209.242 71.6475 210.642 68.0843 213.441 65.9209C216.368 63.7574 220.759 62.6757 226.613 62.6757V101.426H268.608C268.608 106.262 267.463 110.016 265.172 112.689C263.009 115.361 259.7 116.698 255.246 116.698H226.613V141.704C226.613 150.994 220.822 155.639 209.242 155.639V116.698Z" fill="#838C95"/>
</svg>
