<svg width="255" height="184" viewBox="0 0 255 184" fill="none" xmlns="http://www.w3.org/2000/svg">
<path d="M16.7488 184C11.6235 182.975 7.6086 180.839 4.70423 177.593C1.79987 174.176 0.347687 170.076 0.347687 165.292C0.347687 162.046 1.11649 158.63 2.65409 155.042L63.902 7.68803C65.9521 2.56268 69.8816 0 75.6903 0C81.1573 0 85.0013 2.56268 87.2223 7.68803L148.47 155.042C150.008 158.63 150.777 162.046 150.777 165.292C150.777 169.905 149.324 173.92 146.42 177.337C143.516 180.754 139.501 182.975 134.376 184L112.337 130.44H38.7878L16.7488 184ZM104.905 109.682L71.8463 25.883L69.7962 26.6518L74.409 38.4401L46.2196 109.682H104.905Z" fill="#838C95"/>
<path d="M184.691 117.242C184.691 112.501 185.845 108.786 188.151 106.095C190.457 103.404 193.725 102.059 197.953 102.059H254.652C254.652 106.799 253.499 110.515 251.193 113.206C248.886 115.897 245.555 117.242 241.198 117.242H184.691Z" fill="#838C95"/>
</svg>
