<svg width="199" height="186" viewBox="0 0 199 186" fill="none" xmlns="http://www.w3.org/2000/svg">
<path d="M117.543 98.9786C111.646 94.7462 104.491 92.6388 97.2447 93C90.4031 92.5881 83.6365 94.6116 78.1407 98.7129C75.8798 100.595 74.0904 102.982 72.9155 105.681C71.7406 108.38 71.2129 111.317 71.3747 114.257C71.1915 117.155 71.6834 120.055 72.8116 122.73C73.9398 125.405 75.6733 127.78 77.8753 129.669C83.4164 133.539 90.1046 135.412 96.8467 134.983C104.108 135.428 111.319 133.518 117.41 129.536C119.838 127.818 121.8 125.521 123.12 122.854C124.44 120.187 125.077 117.232 124.972 114.257C125.046 111.301 124.409 108.37 123.117 105.711C121.824 103.052 119.912 100.743 117.543 98.9786Z" fill="#6F5AEB"/>
<path d="M0 0V186H199V0H0ZM142.882 135.78C143.031 137.778 142.726 139.784 141.991 141.648C141.255 143.511 140.109 145.184 138.637 146.541C134.706 149.103 130.049 150.316 125.37 149.996V140.031C127.109 138.265 128.748 136.402 130.279 134.451L129.35 133.654C125.061 138.914 119.627 143.121 113.465 145.953C107.302 148.786 100.574 150.169 93.7953 149.996C83.0633 150.464 72.5338 146.965 64.2107 140.164C60.5746 136.982 57.6889 133.032 55.7618 128.597C53.8347 124.163 52.9142 119.356 53.0667 114.523C52.7954 109.487 53.7108 104.458 55.7389 99.8425C57.767 95.2266 60.8508 91.1532 64.7413 87.9514C73.5277 81.1899 84.4598 77.8395 95.52 78.5186C101.831 78.3326 108.106 79.5326 113.905 82.0344C119.703 84.5361 124.885 88.279 129.085 93L129.881 92.2029C128.213 90.3326 126.442 88.5583 124.574 86.8886V77.8543C124.752 74.7367 124.237 71.6183 123.067 68.7237C121.897 65.8291 120.101 63.2303 117.808 61.1143C112.306 56.8027 105.41 54.6741 98.4387 55.1357C91.9482 54.6151 85.4477 56.0114 79.7415 59.152C74.0352 62.2926 69.3736 67.0396 66.3333 72.8057C64.1605 71.6797 62.2239 70.1462 60.6287 68.2886C59.3475 66.5995 58.6075 64.5615 58.506 62.4429C58.6348 60.3265 59.2097 58.2615 60.193 56.3837C61.1762 54.506 62.5455 52.8581 64.2107 51.5486C68.6735 47.6437 73.9215 44.7441 79.6 43.0457C86.0174 40.9116 92.7381 39.8347 99.5 39.8571C110.93 39.1853 122.21 42.7301 131.207 49.8214C135.088 53.2641 138.151 57.5326 140.171 62.3141C142.191 67.0957 143.117 72.2692 142.882 77.4557V135.78Z" fill="#6F5AEB"/>
</svg>
