<svg width="276" height="182" viewBox="0 0 276 182" fill="none" xmlns="http://www.w3.org/2000/svg">
<path d="M0 103.674H275.586V116.348H0V103.674Z" fill="#838C95"/>
<path d="M152.901 17.2368C152.901 5.74559 160.336 0 175.207 0V61.8496C172.673 64.0464 170.898 65.9053 169.884 67.4262L170.645 68.6936C175.714 63.286 181.882 58.9768 189.149 55.766C196.584 52.3863 203.851 50.6964 210.948 50.6964C225.988 50.6964 237.986 54.6676 246.943 62.61C255.899 70.5525 260.377 81.1987 260.377 94.5488V137.894C260.377 146.344 258.265 153.948 254.04 160.708C249.985 167.467 244.239 172.706 236.804 176.423C229.368 180.141 220.919 182 211.455 182C194.895 182 180.953 174.734 169.631 160.201L168.87 161.214C169.884 162.735 171.574 164.848 173.94 167.552C173.94 172.452 172.25 176.085 168.87 178.451C165.491 180.817 160.167 182 152.901 182V17.2368ZM206.639 162.482C216.947 162.482 224.805 160.285 230.213 155.891C235.79 151.498 238.578 145.161 238.578 136.88V95.5627C238.578 87.6203 235.79 81.4522 230.213 77.0585C224.636 72.4958 216.863 70.2145 206.893 70.2145C198.105 70.2145 190.585 72.5803 184.333 77.312C178.08 82.0436 174.954 87.7047 174.954 94.2953V138.148C174.954 145.076 177.996 150.906 184.079 155.638C190.163 160.201 197.683 162.482 206.639 162.482Z" fill="#838C95"/>
<path d="M59.8213 182C45.2883 182 33.5437 178.113 24.5873 170.34C15.7999 162.566 11.4062 152.342 11.4062 139.668C11.4062 126.825 16.0534 116.517 25.3478 108.743C34.6421 100.801 46.8937 96.8298 62.1026 96.8298C78.3255 96.8298 91.6755 102.575 102.153 114.067L103.167 113.053C101.308 111.025 99.1955 108.912 96.8297 106.716V96.0693C96.8297 87.451 94.1258 80.7759 88.7182 76.0443C83.3106 71.3126 75.6217 68.9468 65.6514 68.9468C47.9076 68.9468 35.2335 75.9598 27.6291 89.9858C24.9253 88.6339 22.6439 86.8595 20.7851 84.6627C19.0952 82.2968 18.2503 79.931 18.2503 77.5652C18.2503 73.0025 20.5316 68.6933 25.0943 64.6376C29.6569 60.4129 35.656 57.0331 43.0915 54.4983C50.6959 51.9635 58.6384 50.6961 66.9188 50.6961C82.9726 50.6961 95.5623 54.6673 104.688 62.6097C113.982 70.5522 118.629 81.5364 118.629 95.5624V165.016C118.629 170.931 116.939 175.24 113.559 177.944C110.18 180.648 104.857 182 97.5901 182V170.086C101.139 166.368 103.082 164.171 103.42 163.496L102.406 162.482C91.422 175.494 77.2271 182 59.8213 182ZM63.6235 164.509C74.1008 164.509 82.2967 162.313 88.2113 157.919C94.2948 153.525 97.3366 147.442 97.3366 139.668C97.3366 131.895 94.3793 125.727 88.4648 121.164C82.5502 116.601 74.4388 114.32 64.1305 114.32C54.4982 114.32 46.8937 116.601 41.3171 121.164C35.9095 125.558 33.2057 131.726 33.2057 139.668C33.2057 147.611 35.825 153.779 41.0636 158.172C46.4712 162.397 53.9912 164.509 63.6235 164.509Z" fill="#838C95"/>
</svg>
