<svg width="144" height="184" viewBox="0 0 144 184" fill="none" xmlns="http://www.w3.org/2000/svg">
<path d="M12.6826 184C9.15963 184 6.16514 182.861 3.69908 180.583C1.23303 178.305 0 175.589 0 172.434V11.5657C0 8.2362 1.23303 5.52001 3.69908 3.41715C6.16514 1.13905 9.15963 0 12.6826 0H86.1358C101.461 0 113.615 4.55619 122.598 13.6686C131.758 22.781 136.338 35.0476 136.338 50.4686C136.338 58.7048 134.136 66.4152 129.732 73.6C125.328 80.7848 119.604 86.1295 112.558 89.6343V90.16C122.598 93.1391 130.349 98.3086 135.809 105.669C141.27 112.853 144 121.615 144 131.954C144 142.118 141.798 151.143 137.395 159.029C133.167 166.914 127.178 173.048 119.428 177.429C111.677 181.81 102.782 184 92.7413 184H12.6826ZM85.6073 81.2229C92.8294 81.2229 98.9945 78.3314 104.103 72.5486C109.387 66.5905 112.029 59.4057 112.029 50.9943C112.029 41.7067 109.651 34.4343 104.895 29.1771C100.316 23.92 93.8862 21.2914 85.6073 21.2914H24.5725V81.2229H85.6073ZM90.8918 162.709C99.8752 162.709 106.921 160.08 112.029 154.823C117.138 149.39 119.692 141.855 119.692 132.217C119.692 122.93 117.138 115.657 112.029 110.4C107.097 105.143 100.051 102.514 90.8918 102.514H24.5725V162.709H90.8918Z" fill="#838C95"/>
</svg>
