<svg width="15" height="14" viewBox="0 0 15 14" fill="none" xmlns="http://www.w3.org/2000/svg">
<path d="M8.86 7.45C8.41549 7.13143 7.8762 6.97282 7.33 7C6.81431 6.969 6.30426 7.1213 5.89 7.43C5.71958 7.57169 5.5847 7.75131 5.49614 7.95447C5.40758 8.15764 5.36781 8.37871 5.38 8.6C5.36619 8.8181 5.40327 9.03643 5.48831 9.23774C5.57335 9.43905 5.70402 9.61785 5.87 9.76C6.28767 10.0513 6.7918 10.1923 7.3 10.16C7.84731 10.1935 8.39085 10.0498 8.85 9.75C9.03298 9.62068 9.1809 9.44784 9.28041 9.24707C9.37992 9.04631 9.42789 8.82393 9.42 8.6C9.42556 8.37748 9.37759 8.15688 9.28014 7.95676C9.18269 7.75664 9.0386 7.58284 8.86 7.45Z" fill="#6F5AEB"/>
<path d="M0 0V14H15V0H0ZM10.77 10.22C10.7812 10.3704 10.7582 10.5214 10.7028 10.6617C10.6474 10.8019 10.561 10.9279 10.45 11.03C10.1537 11.2228 9.80271 11.3141 9.45 11.29V10.54C9.58108 10.407 9.70461 10.2668 9.82 10.12L9.75 10.06C9.42672 10.4559 9.01714 10.7725 8.55261 10.9857C8.08809 11.1989 7.58094 11.303 7.07 11.29C6.26105 11.3253 5.46737 11.0619 4.84 10.55C4.56592 10.3105 4.34841 10.0131 4.20315 9.67938C4.05789 9.34563 3.98851 8.98381 4 8.62C3.97956 8.24098 4.04855 7.86246 4.20142 7.51503C4.35429 7.1676 4.58675 6.861 4.88 6.62C5.54229 6.11107 6.36632 5.85888 7.2 5.91C7.67571 5.896 8.14872 5.98632 8.58579 6.17463C9.02287 6.36294 9.41341 6.64466 9.73 7L9.79 6.94C9.66432 6.79922 9.53078 6.66568 9.39 6.54V5.86C9.40341 5.62534 9.36462 5.39063 9.27643 5.17275C9.18825 4.95488 9.05285 4.75927 8.88 4.6C8.46528 4.27547 7.94546 4.11525 7.42 4.15C6.93077 4.11081 6.44078 4.21591 6.01066 4.4523C5.58055 4.68869 5.22917 5.04599 5 5.48C4.83622 5.39525 4.69024 5.27982 4.57 5.14C4.47343 5.01287 4.41765 4.85946 4.41 4.7C4.41971 4.5407 4.46304 4.38527 4.53716 4.24394C4.61127 4.1026 4.71449 3.97857 4.84 3.88C5.17639 3.58609 5.57198 3.36783 6 3.24C6.48372 3.07937 6.99031 2.99831 7.5 3C8.36156 2.94943 9.2118 3.21624 9.89 3.75C10.1825 4.00913 10.4134 4.33041 10.5656 4.69031C10.7179 5.05021 10.7877 5.43962 10.77 5.83V10.22Z" fill="#6F5AEB"/>
</svg>
