<svg width="10" height="12" viewBox="0 0 10 12" fill="none" xmlns="http://www.w3.org/2000/svg">
<path d="M1.10675 12C0.893412 12 0.712079 11.9307 0.562745 11.792C0.413412 11.6533 0.338745 11.488 0.338745 11.296V1.50399C0.338745 1.30132 0.413412 1.13599 0.562745 1.00799C0.712079 0.869321 0.893412 0.799988 1.10675 0.799988H5.55475C6.48275 0.799988 7.21875 1.07732 7.76275 1.63199C8.31741 2.18666 8.59475 2.93332 8.59475 3.87199C8.59475 4.37332 8.46141 4.84265 8.19475 5.27999C7.92808 5.71732 7.58141 6.04265 7.15475 6.25599V6.28799C7.76275 6.46932 8.23208 6.78399 8.56275 7.23199C8.89341 7.66932 9.05875 8.20266 9.05875 8.83199C9.05875 9.45065 8.92541 9.99999 8.65875 10.48C8.40275 10.96 8.04008 11.3333 7.57075 11.6C7.10141 11.8667 6.56275 12 5.95475 12H1.10675ZM5.52275 5.74399C5.96008 5.74399 6.33341 5.56799 6.64275 5.21599C6.96275 4.85332 7.12275 4.41599 7.12275 3.90399C7.12275 3.33865 6.97875 2.89599 6.69075 2.57599C6.41341 2.25599 6.02408 2.09599 5.52275 2.09599H1.82675V5.74399H5.52275ZM5.84275 10.704C6.38675 10.704 6.81341 10.544 7.12275 10.224C7.43208 9.89332 7.58675 9.43466 7.58675 8.84799C7.58675 8.28265 7.43208 7.83999 7.12275 7.51999C6.82408 7.19999 6.39741 7.03999 5.84275 7.03999H1.82675V10.704H5.84275Z" fill="#838C95"/>
</svg>
