<svg width="658" height="608" viewBox="0 0 658 608" fill="none" xmlns="http://www.w3.org/2000/svg">
<path d="M488.375 53.1406V0.171875H454V53.1406H204V0.171875H169.625V53.1406H0.875V607.828H657.125V53.1406H488.375ZM35.25 87.5156H169.625V141.578H204V87.5156H454V141.578H488.375V87.5156H622.75V205.719H35.25V87.5156ZM622.75 573.453H35.25V218.219H622.75V573.453Z" fill="#E1E1E1"/>
<path d="M152.438 345.953C152.438 352.791 155.154 359.348 159.989 364.183C164.824 369.018 171.381 371.734 178.219 371.734C185.056 371.734 191.614 369.018 196.449 364.183C201.284 359.348 204 352.791 204 345.953C204 339.116 201.284 332.558 196.449 327.723C191.614 322.888 185.056 320.172 178.219 320.172C171.381 320.172 164.824 322.888 159.989 327.723C155.154 332.558 152.438 339.116 152.438 345.953Z" fill="#FF423E"/>
<path d="M301.656 345.953C301.656 349.339 302.323 352.691 303.619 355.819C304.914 358.947 306.813 361.789 309.207 364.183C311.601 366.577 314.444 368.476 317.571 369.772C320.699 371.068 324.052 371.734 327.438 371.734C330.823 371.734 334.176 371.068 337.304 369.772C340.431 368.476 343.274 366.577 345.668 364.183C348.062 361.789 349.961 358.947 351.256 355.819C352.552 352.691 353.219 349.339 353.219 345.953C353.219 342.567 352.552 339.215 351.256 336.087C349.961 332.959 348.062 330.117 345.668 327.723C343.274 325.329 340.431 323.43 337.304 322.134C334.176 320.839 330.823 320.172 327.438 320.172C324.052 320.172 320.699 320.839 317.571 322.134C314.444 323.43 311.601 325.329 309.207 327.723C306.813 330.117 304.914 332.959 303.619 336.087C302.323 339.215 301.656 342.567 301.656 345.953Z" fill="#FF423E"/>
<path d="M450.953 345.953C450.953 352.791 453.669 359.348 458.504 364.183C463.339 369.018 469.897 371.734 476.734 371.734C483.572 371.734 490.13 369.018 494.964 364.183C499.799 359.348 502.516 352.791 502.516 345.953C502.516 339.116 499.799 332.558 494.964 327.723C490.13 322.888 483.572 320.172 476.734 320.172C469.897 320.172 463.339 322.888 458.504 327.723C453.669 332.558 450.953 339.116 450.953 345.953Z" fill="#FF423E"/>
<path d="M152.438 445.719C152.438 452.556 155.154 459.114 159.989 463.949C164.824 468.784 171.381 471.5 178.219 471.5C185.056 471.5 191.614 468.784 196.449 463.949C201.284 459.114 204 452.556 204 445.719C204 438.881 201.284 432.324 196.449 427.489C191.614 422.654 185.056 419.938 178.219 419.938C171.381 419.938 164.824 422.654 159.989 427.489C155.154 432.324 152.438 438.881 152.438 445.719Z" fill="#FF423E"/>
<path d="M301.656 445.719C301.656 449.104 302.323 452.457 303.619 455.585C304.914 458.713 306.813 461.555 309.207 463.949C311.601 466.343 314.444 468.242 317.571 469.537C320.699 470.833 324.052 471.5 327.438 471.5C330.823 471.5 334.176 470.833 337.304 469.537C340.431 468.242 343.274 466.343 345.668 463.949C348.062 461.555 349.961 458.713 351.256 455.585C352.552 452.457 353.219 449.104 353.219 445.719C353.219 442.333 352.552 438.981 351.256 435.853C349.961 432.725 348.062 429.883 345.668 427.489C343.274 425.095 340.431 423.196 337.304 421.9C334.176 420.604 330.823 419.938 327.438 419.938C324.052 419.938 320.699 420.604 317.571 421.9C314.444 423.196 311.601 425.095 309.207 427.489C306.813 429.883 304.914 432.725 303.619 435.853C302.323 438.981 301.656 442.333 301.656 445.719Z" fill="#FF423E"/>
<path d="M450.953 445.719C450.953 452.556 453.669 459.114 458.504 463.949C463.339 468.784 469.897 471.5 476.734 471.5C483.572 471.5 490.13 468.784 494.964 463.949C499.799 459.114 502.516 452.556 502.516 445.719C502.516 438.881 499.799 432.324 494.964 427.489C490.13 422.654 483.572 419.938 476.734 419.938C469.897 419.938 463.339 422.654 458.504 427.489C453.669 432.324 450.953 438.881 450.953 445.719Z" fill="#FF423E"/>
</svg>
