<svg width="240" height="184" viewBox="0 0 240 184" fill="none" xmlns="http://www.w3.org/2000/svg">
<path d="M240 11.1802V181.467H221.238V60.0923C221.238 49.3954 221.539 39.8632 222.143 31.4955C220.504 33.1346 218.606 34.903 216.45 36.8008C214.293 38.6124 205.106 46.1174 188.888 59.3159L178.666 45.988L223.696 11.1802H240Z" fill="#838C95"/>
<path d="M0 19.9639C0 13.4799 2.04758 8.53158 6.14274 5.11896C10.2379 1.70632 16.21 0 24.059 0V80.6234H114.92V19.9639C114.92 13.4799 116.968 8.53158 121.063 5.11896C125.158 1.70632 131.13 0 138.979 0V163.806C138.979 170.29 136.932 175.239 132.837 178.651C128.742 182.064 122.769 183.77 114.92 183.77V101.867H24.059V163.806C24.059 170.29 22.0115 175.239 17.9163 178.651C13.8212 182.064 7.84905 183.77 0 183.77V19.9639Z" fill="#838C95"/>
</svg>
