<svg width="281" height="184" viewBox="0 0 281 184" fill="none" xmlns="http://www.w3.org/2000/svg">
<path d="M280.861 163.685V181.694H168.793V164.98L213.62 119.894C227.526 105.902 236.552 96.0552 240.698 90.3546C249.422 78.5215 253.783 66.7317 253.783 54.985C253.783 45.8295 251.019 38.6174 245.492 33.3487C239.964 27.9936 232.32 25.316 222.56 25.316C215.391 25.316 208.697 26.4821 202.478 28.8141C196.259 31.0598 189.177 35.2921 181.23 41.5109L170.995 28.4254C186.715 15.2968 203.817 8.7325 222.301 8.7325C238.193 8.7325 250.717 12.8352 259.873 21.0406C269.028 29.1596 273.606 40.1721 273.606 54.0781C273.606 65.0474 270.496 75.8872 264.278 86.5974C258.145 97.2212 246.874 110.479 230.463 126.372L193.15 162.778V163.685H280.861Z" fill="#838C95"/>
<path d="M0.138748 19.9889C0.138748 13.4968 2.18889 8.54225 6.28917 5.12536C10.3894 1.70845 16.369 0 24.2279 0V80.7242H115.203V19.9889C115.203 13.4968 117.253 8.54225 121.353 5.12536C125.454 1.70845 131.433 0 139.292 0V164.011C139.292 170.503 137.242 175.458 133.142 178.875C129.041 182.292 123.062 184 115.203 184V101.994H24.2279V164.011C24.2279 170.503 22.1777 175.458 18.0775 178.875C13.9772 182.292 7.99762 184 0.138748 184V19.9889Z" fill="#838C95"/>
</svg>
