<svg width="282" height="184" viewBox="0 0 282 184" fill="none" xmlns="http://www.w3.org/2000/svg">
<path d="M276.642 51.3502C276.642 62.1453 273.592 71.0404 267.493 78.0356C261.394 84.9445 252.638 89.5647 241.224 91.8965V92.8033C268.408 96.2577 282 109.773 282 133.35C282 149.672 276.337 162.194 265.01 170.916C253.684 179.639 238.088 184 218.223 184C198.358 184 182.108 180.934 169.475 174.803V156.408C184.635 163.835 200.536 167.548 217.177 167.548C246.888 167.548 261.743 156.019 261.743 132.961C261.743 112.234 245.363 101.871 212.603 101.871H195.613V85.2899H212.864C226.195 85.2899 236.781 82.3536 244.622 76.4811C252.551 70.6086 256.515 62.4475 256.515 51.9979C256.515 43.7073 253.64 37.1871 247.89 32.4373C242.139 27.6874 234.298 25.3125 224.365 25.3125C216.785 25.3125 209.684 26.3057 203.063 28.292C196.441 30.2782 188.817 34.0349 180.192 39.562L170.39 26.4784C185.55 14.647 203.367 8.73129 223.842 8.73129C240.571 8.73129 253.553 12.5311 262.788 20.1309C272.024 27.7306 276.642 38.137 276.642 51.3502Z" fill="#838C95"/>
<path d="M0 19.9861C0 13.4949 2.06806 8.54106 6.20418 5.12464C10.3403 1.70821 16.3721 0 24.2997 0V80.713H116.07V19.9861C116.07 13.4949 118.138 8.54106 122.274 5.12464C126.41 1.70821 132.442 0 140.37 0V163.988C140.37 170.479 138.301 175.433 134.165 178.85C130.029 182.266 123.997 183.974 116.07 183.974V101.98H24.2997V163.988C24.2997 170.479 22.2316 175.433 18.0955 178.85C13.9594 182.266 7.92756 183.974 0 183.974V19.9861Z" fill="#838C95"/>
</svg>
