<svg width="288" height="184" viewBox="0 0 288 184" fill="none" xmlns="http://www.w3.org/2000/svg">
<path d="M288 124.62V142.194H262.803V181.218H244.324V142.194H161.623V125.266L242.257 10.2603H262.803V124.62H288ZM244.324 124.62V68.0217C244.324 56.9949 244.712 44.5036 245.487 30.5479H244.453C240.577 38.1288 237.088 44.2883 233.986 49.0263L180.877 124.62H244.324Z" fill="#838C95"/>
<path d="M0 19.9366C0 13.4615 2.04478 8.51991 6.13433 5.11195C10.2239 1.70398 16.1878 0 24.0261 0V80.5131H114.763V19.9366C114.763 13.4615 116.808 8.51991 120.897 5.11195C124.987 1.70398 130.951 0 138.789 0V163.582C138.789 170.057 136.745 174.999 132.655 178.407C128.565 181.815 122.601 183.519 114.763 183.519V101.728H24.0261V163.582C24.0261 170.057 21.9814 174.999 17.8918 178.407C13.8022 181.815 7.83831 183.519 0 183.519V19.9366Z" fill="#838C95"/>
</svg>
