<svg width="58" height="184" viewBox="0 0 58 184" fill="none" xmlns="http://www.w3.org/2000/svg">
<path d="M38.2389 32.0334C33.9617 32.0334 30.4543 30.8375 27.7168 28.4457C25.1504 25.883 23.8673 22.637 23.8673 18.7075C23.8673 13.753 25.8348 9.39648 29.7699 5.63789C33.8761 1.8793 38.5811 0 43.885 0C47.9912 0 51.3274 1.28134 53.8938 3.84402C56.6313 6.23585 58 9.31106 58 13.0696C58 18.0241 55.9469 22.4661 51.8407 26.3956C47.9056 30.1541 43.3717 32.0334 38.2389 32.0334ZM20.531 67.6546C22.5841 56.7205 30.9675 51.2535 45.6814 51.2535L25.1504 167.599C24.1239 173.237 21.5575 177.422 17.4513 180.156C13.3451 182.719 7.52802 184 0 184L20.531 67.6546Z" fill="#838C95"/>
</svg>
