<svg width="184" height="184" viewBox="0 0 184 184" fill="none" xmlns="http://www.w3.org/2000/svg">
<path fill-rule="evenodd" clip-rule="evenodd" d="M150.341 0C154.059 0 157.073 3.01388 157.073 6.73169V26.9268H177.268C180.986 26.9268 184 29.9406 184 33.6585C184 37.3763 180.986 40.3901 177.268 40.3901H157.073V60.5852C157.073 64.303 154.059 67.3169 150.341 67.3169C146.624 67.3169 143.61 64.303 143.61 60.5852V40.3901H123.415C119.697 40.3901 116.683 37.3763 116.683 33.6585C116.683 29.9406 119.697 26.9268 123.415 26.9268H143.61V6.73169C143.61 3.01388 146.624 0 150.341 0ZM49.5265 8.97558L92 8.97559C95.7178 8.97559 98.7317 11.9895 98.7317 15.7073C98.7317 19.4251 95.7178 22.439 92 22.439H49.8146C42.1633 22.439 36.8297 22.4442 32.6773 22.7835C28.6035 23.1163 26.263 23.7368 24.4901 24.6401C20.6902 26.5763 17.6007 29.6657 15.6646 33.4657C14.7613 35.2385 14.1408 37.579 13.8079 41.6528C13.4687 45.8052 13.4634 51.1388 13.4634 58.7901V134.185C13.4634 141.836 13.4687 147.17 13.8079 151.322C14.1408 155.396 14.7613 157.737 15.6646 159.509C17.6007 163.309 20.6902 166.399 24.4902 168.335C24.9022 168.545 25.3448 168.74 25.8328 168.919C26.6167 167.058 27.8455 165.658 28.6543 164.783C29.9474 163.384 31.7337 161.76 33.6903 159.982L109.978 90.6298C111.452 89.289 112.823 88.0424 114.062 87.077C115.411 86.0257 116.978 85.0004 118.934 84.3649C121.767 83.4449 124.803 83.3491 127.688 84.0888C129.68 84.5997 131.309 85.5241 132.721 86.4884C134.018 87.3737 135.465 88.5314 137.021 89.7766L162.293 109.994C162.464 110.131 162.633 110.266 162.799 110.399C165.701 112.717 167.982 114.54 169.758 116.802C171.976 119.628 173.55 122.904 174.371 126.401C175.028 129.201 175.027 132.12 175.025 135.835C175.025 136.048 175.024 136.264 175.024 136.483V136.729C175.024 138.266 175.024 139.73 175.02 141.124C175.023 141.204 175.024 141.285 175.024 141.365C175.024 141.717 175.025 142.063 175.025 142.405C175.027 149.746 175.029 154.756 173.877 159.053C172.516 164.134 170.013 168.729 166.656 172.551C165.447 173.928 164.127 175.204 162.709 176.367C159.067 179.355 154.781 181.592 150.077 182.853C145.781 184.004 140.771 184.002 133.429 184C133.088 184 132.742 184 132.39 184H128.184C128.041 184 127.898 184 127.754 184H49.5263C49.3592 184 49.1929 184 49.0272 184H42.9759C40.609 184 38.4266 184 36.6334 183.881C34.8224 183.824 33.1417 183.738 31.581 183.61C26.6746 183.209 22.365 182.363 18.3779 180.331C12.0446 177.104 6.89552 171.955 3.66857 165.622C1.63702 161.635 0.790085 157.325 0.389217 152.419C-0.000118634 147.653 -6.4613e-05 141.769 1.72551e-06 134.473V58.5019C-6.4613e-05 51.2062 -0.000118634 45.3217 0.389217 40.5565C0.790085 35.6501 1.63702 31.3405 3.66856 27.3534C6.89552 21.0202 12.0446 15.8711 18.3779 12.6441C22.365 10.6126 26.6746 9.76567 31.581 9.3648C36.3462 8.97546 42.2308 8.97552 49.5265 8.97558ZM157.309 162.738C158.362 161.383 159.247 159.888 159.933 158.284C160.599 156.728 161.06 154.687 161.306 151.177C161.557 147.604 161.561 143.036 161.561 136.483C161.561 131.817 161.519 130.565 161.264 129.478C160.891 127.888 160.175 126.399 159.167 125.115C158.478 124.237 157.526 123.422 153.883 120.507L128.776 100.422C126.998 98.9995 125.954 98.1699 125.131 97.6079C124.627 97.2643 124.391 97.1526 124.326 97.1257C123.925 97.0266 123.505 97.0399 123.112 97.164C123.048 97.1949 122.819 97.3212 122.338 97.696C121.552 98.3087 120.562 99.2025 118.878 100.734L42.9542 169.755C42.66 170.023 42.3815 170.276 42.1176 170.517C44.3967 170.535 46.9424 170.536 49.8146 170.536H127.507C134.061 170.536 138.629 170.532 142.202 170.281C145.712 170.035 147.753 169.574 149.309 168.909C151.289 168.062 153.102 166.912 154.692 165.515C155.649 164.675 156.526 163.744 157.309 162.738ZM123.13 97.1558C123.129 97.1563 123.12 97.1607 123.112 97.164ZM124.306 97.1186C124.306 97.1183 124.315 97.1216 124.326 97.1257ZM56.0976 53.8535C49.9012 53.8535 44.8781 58.8767 44.8781 65.073C44.8781 71.2694 49.9012 76.2925 56.0976 76.2925C62.2939 76.2925 67.3171 71.2694 67.3171 65.073C67.3171 58.8767 62.2939 53.8535 56.0976 53.8535ZM31.4146 65.073C31.4146 51.441 42.4656 40.3901 56.0976 40.3901C69.7296 40.3901 80.7805 51.441 80.7805 65.073C80.7805 78.705 69.7296 89.7559 56.0976 89.7559C42.4656 89.7559 31.4146 78.705 31.4146 65.073Z" fill="#838C95"/>
</svg>
