<svg width="4" height="13" viewBox="0 0 4 13" fill="none" xmlns="http://www.w3.org/2000/svg">
<path d="M2.4321 2.65601C2.16543 2.65601 1.94676 2.58134 1.7761 2.43201C1.6161 2.27201 1.5361 2.06934 1.5361 1.82401C1.5361 1.51467 1.65876 1.24267 1.9041 1.00801C2.1601 0.773339 2.45343 0.656006 2.7841 0.656006C3.0401 0.656006 3.2481 0.736006 3.4081 0.896007C3.57876 1.04534 3.6641 1.23734 3.6641 1.47201C3.6641 1.78134 3.5361 2.05867 3.2801 2.30401C3.03476 2.53867 2.7521 2.65601 2.4321 2.65601ZM1.3281 4.88001C1.4561 4.19734 1.97876 3.85601 2.8961 3.85601L1.6161 11.12C1.5521 11.472 1.3921 11.7333 1.1361 11.904C0.880096 12.064 0.517429 12.144 0.0480957 12.144L1.3281 4.88001Z" fill="#838C95"/>
</svg>
