<svg width="414" height="183" viewBox="0 0 414 183" fill="none" xmlns="http://www.w3.org/2000/svg">
<path fill-rule="evenodd" clip-rule="evenodd" d="M110.721 23.8696C65.5235 23.8696 28.8837 54.1487 28.8837 91.5C28.8837 128.851 65.5235 159.13 110.721 159.13H149.233C157.209 159.13 163.674 164.474 163.674 171.065C163.674 177.657 157.209 183 149.233 183H110.721C49.5714 183 0 142.034 0 91.5C0 40.9659 49.5714 0 110.721 0H149.233C157.209 0 163.674 5.34338 163.674 11.9348C163.674 18.5262 157.209 23.8696 149.233 23.8696H110.721ZM250.326 11.9348C250.326 5.34338 256.791 0 264.767 0H303.279C364.429 0 414 40.9659 414 91.5C414 142.034 364.429 183 303.279 183H264.767C256.791 183 250.326 177.657 250.326 171.065C250.326 164.474 256.791 159.13 264.767 159.13H303.279C348.477 159.13 385.116 128.851 385.116 91.5C385.116 54.1487 348.477 23.8696 303.279 23.8696H264.767C256.791 23.8696 250.326 18.5262 250.326 11.9348ZM96.2791 91.5C96.2791 84.9086 102.745 79.5652 110.721 79.5652L303.279 79.5652C311.255 79.5652 317.721 84.9086 317.721 91.5C317.721 98.0914 311.255 103.435 303.279 103.435L110.721 103.435C102.745 103.435 96.2791 98.0914 96.2791 91.5Z" fill="#838C95"/>
</svg>
