<svg width="226" height="183" viewBox="0 0 226 183" fill="none" xmlns="http://www.w3.org/2000/svg">
<path d="M109.799 96.075V139.538H138.774C138.774 155.51 125.786 168.513 109.799 168.513V183C133.765 183 153.261 163.503 153.261 139.538V96.075H109.799Z" fill="#838C95"/>
<path d="M182.237 96.075V139.538H211.212C211.212 155.51 198.224 168.513 182.237 168.513V183C206.203 183 225.7 163.503 225.7 139.538V96.075H182.237Z" fill="#838C95"/>
<path d="M109.799 82.3495L109.799 41.1747L82.3491 41.1747C82.3491 26.043 94.6534 13.7249 109.799 13.7249L109.799 9.53674e-06C87.0945 1.15216e-05 68.6242 18.4703 68.6242 41.1747L68.6242 82.3495L109.799 82.3495Z" fill="#838C95"/>
<path d="M41.1739 82.3495L41.1739 41.1747L13.7241 41.1747C13.7241 26.043 26.0284 13.7249 41.1739 13.7249L41.1739 9.53674e-06C18.4695 1.15216e-05 -0.00084005 18.4703 -0.000838065 41.1747L-0.000834465 82.3495L41.1739 82.3495Z" fill="#838C95"/>
</svg>
