<svg width="184" height="184" viewBox="0 0 184 184" fill="none" xmlns="http://www.w3.org/2000/svg">
<rect width="184" height="18.4" fill="#838C95"/>
<rect x="110.4" y="55.2" width="73.6" height="18.4" fill="#838C95"/>
<rect x="110.4" y="110.4" width="73.6" height="18.4" fill="#838C95"/>
<rect y="165.6" width="184" height="18.4" fill="#838C95"/>
<path d="M0 84.64H76.6667V99.36H0V84.64Z" fill="#005BA1"/>
<path fill-rule="evenodd" clip-rule="evenodd" d="M33.1304 127.26C29.8461 125.207 27.3827 116.133 30.667 114.08L69.0004 92L30.667 69.92C27.3827 67.867 29.8461 58.7929 33.1304 56.7398C36.4147 54.6868 35.7928 54.6867 39.0771 56.7398L89.5371 88.2826C92.8214 90.3356 92.8214 93.6643 89.5371 95.7173L39.0771 127.26C35.7928 129.313 36.4147 129.313 33.1304 127.26Z" fill="#005BA1"/>
</svg>
