<svg width="183" height="183" viewBox="0 0 183 183" fill="none" xmlns="http://www.w3.org/2000/svg">
<rect width="183" height="18.3" fill="#838C95"/>
<rect y="54.9" width="73.2" height="18.3" fill="#838C95"/>
<rect y="109.8" width="73.2" height="18.3" fill="#838C95"/>
<rect y="164.7" width="183" height="18.3" fill="#838C95"/>
<path d="M183 98.82L106.75 98.82L106.75 84.18L183 84.18L183 98.82Z" fill="#005BA1"/>
<path fill-rule="evenodd" clip-rule="evenodd" d="M150.05 56.4314C153.316 58.4733 155.766 67.4981 152.5 69.54L114.375 91.5L152.5 113.46C155.766 115.502 153.316 124.527 150.05 126.569C146.783 128.61 147.402 128.611 144.135 126.569L93.9495 95.1972C90.683 93.1553 90.683 89.8448 93.9495 87.8029L144.135 56.4314C147.402 54.3896 146.783 54.3895 150.05 56.4314Z" fill="#005BA1"/>
</svg>
