<svg width="18" height="13" viewBox="0 0 18 13" fill="none" xmlns="http://www.w3.org/2000/svg">
<path d="M0.304688 7.20001H17.6999V8.00001H0.304688V7.20001Z" fill="#838C95"/>
<path d="M9.95593 1.74401C9.95593 1.01867 10.4253 0.656006 11.3639 0.656006V4.56001C11.2039 4.69867 11.0919 4.81601 11.0279 4.91201L11.0759 4.99201C11.3959 4.65067 11.7853 4.37867 12.2439 4.17601C12.7133 3.96267 13.1719 3.85601 13.6199 3.85601C14.5693 3.85601 15.3266 4.10667 15.8919 4.60801C16.4573 5.10934 16.7399 5.78134 16.7399 6.62401V9.36001C16.7399 9.89334 16.6066 10.3733 16.3399 10.8C16.0839 11.2267 15.7213 11.5573 15.2519 11.792C14.7826 12.0267 14.2493 12.144 13.6519 12.144C12.6066 12.144 11.7266 11.6853 11.0119 10.768L10.9639 10.832C11.0279 10.928 11.1346 11.0613 11.2839 11.232C11.2839 11.5413 11.1773 11.7707 10.9639 11.92C10.7506 12.0693 10.4146 12.144 9.95593 12.144V1.74401ZM13.3479 10.912C13.9986 10.912 14.4946 10.7733 14.8359 10.496C15.1879 10.2187 15.3639 9.81867 15.3639 9.29601V6.68801C15.3639 6.18667 15.1879 5.79734 14.8359 5.52001C14.4839 5.23201 13.9933 5.08801 13.3639 5.08801C12.8093 5.08801 12.3346 5.23734 11.9399 5.53601C11.5453 5.83467 11.3479 6.19201 11.3479 6.60801V9.37601C11.3479 9.81334 11.5399 10.1813 11.9239 10.48C12.3079 10.768 12.7826 10.912 13.3479 10.912Z" fill="#838C95"/>
<path d="M4.08066 12.144C3.16332 12.144 2.42199 11.8987 1.85666 11.408C1.30199 10.9173 1.02466 10.272 1.02466 9.47199C1.02466 8.66132 1.31799 8.01065 1.90466 7.51999C2.49132 7.01865 3.26466 6.76799 4.22466 6.76799C5.24866 6.76799 6.09133 7.13065 6.75266 7.85599L6.81666 7.79199C6.69933 7.66399 6.56599 7.53065 6.41666 7.39199V6.71999C6.41666 6.17599 6.24599 5.75465 5.90466 5.45599C5.56332 5.15732 5.07799 5.00799 4.44866 5.00799C3.32866 5.00799 2.52866 5.45065 2.04866 6.33599C1.87799 6.25065 1.73399 6.13865 1.61666 5.99999C1.50999 5.85065 1.45666 5.70132 1.45666 5.55199C1.45666 5.26399 1.60066 4.99199 1.88866 4.73599C2.17666 4.46932 2.55532 4.25599 3.02466 4.09599C3.50466 3.93599 4.00599 3.85599 4.52866 3.85599C5.54199 3.85599 6.33666 4.10665 6.91266 4.60799C7.49933 5.10932 7.79266 5.80265 7.79266 6.68799V11.072C7.79266 11.4453 7.68599 11.7173 7.47266 11.888C7.25933 12.0587 6.92333 12.144 6.46466 12.144V11.392C6.68866 11.1573 6.81133 11.0187 6.83266 10.976L6.76866 10.912C6.07533 11.7333 5.17933 12.144 4.08066 12.144ZM4.32066 11.04C4.98199 11.04 5.49933 10.9013 5.87266 10.624C6.25666 10.3467 6.44866 9.96265 6.44866 9.47199C6.44866 8.98132 6.26199 8.59199 5.88866 8.30399C5.51533 8.01599 5.00332 7.87199 4.35266 7.87199C3.74466 7.87199 3.26466 8.01599 2.91266 8.30399C2.57132 8.58132 2.40066 8.97065 2.40066 9.47199C2.40066 9.97332 2.56599 10.3627 2.89666 10.64C3.23799 10.9067 3.71266 11.04 4.32066 11.04Z" fill="#838C95"/>
</svg>
