<svg width="800" height="800" viewBox="0 0 800 800" fill="none" xmlns="http://www.w3.org/2000/svg">
<path d="M258.334 339.386L345.659 406.747C349.02 433.903 371.912 455.022 400 455.022C430.395 455.022 455.021 430.381 455.021 400C455.021 398.822 454.75 397.731 454.675 396.566L582.65 245.166C591.59 235.145 591.74 220.711 583.034 212.972C574.317 205.209 560.018 207.07 551.103 217.089L425.345 351.439C417.731 347.445 409.187 344.978 399.998 344.978C390.151 344.978 381.051 347.769 373.064 352.295L290.836 295.041C280.232 287.228 264.334 290.848 255.343 303.102C246.379 315.327 247.693 331.584 258.334 339.386Z" fill="#EBEBEB"/>
<path d="M400 0C382.466 0 368.255 14.2125 368.255 31.7469C368.255 49.2813 382.467 63.4922 400 63.4922C493.031 63.5047 576.947 101.105 637.947 162.053C698.897 223.041 736.497 306.969 736.508 400C736.497 493.031 698.897 576.947 637.947 637.947C576.947 698.897 493.031 736.495 400 736.508C306.97 736.495 223.041 698.895 162.055 637.947C101.105 576.947 63.5047 493.031 63.4922 400C63.5047 332.403 83.4453 269.631 117.709 216.953L147.173 238.975C150.361 241.356 154.577 241.952 158.309 240.538C162.03 239.125 164.808 235.938 165.627 232.019L185.455 138.233C188.989 132.167 190.502 125.198 189.645 118.353L198.611 75.9672C199.566 71.5047 197.817 66.9141 194.183 64.1734C190.523 61.4578 185.627 61.0859 181.608 63.2688L41.3172 139.112C37.7953 141.034 35.5016 144.581 35.2172 148.561C34.9188 152.53 36.6797 156.398 39.8797 158.792L66.7141 178.844C24.6031 242.212 -0.0109339 318.291 3.6436e-06 400C0.0250036 620.931 179.069 799.975 400 800C620.933 799.975 799.977 620.931 800 400C799.977 179.069 620.933 0.025 400 0Z" fill="#EBEBEB"/>
</svg>
