<svg width="125" height="184" viewBox="0 0 125 184" fill="none" xmlns="http://www.w3.org/2000/svg">
<path d="M62.1103 158.408C50.4908 158.408 39.9744 156.054 30.5612 151.348C21.1479 146.641 13.7202 140.169 8.2782 131.933C2.98324 123.549 0.335754 114.209 0.335754 103.914V17.2086C0.335754 11.6195 2.10074 7.35412 5.63072 4.41248C9.16069 1.47083 14.3086 0 21.0744 0V103.914C21.0744 114.651 24.825 123.329 32.3262 129.947C39.9744 136.566 49.9025 139.875 62.1103 139.875C74.3182 139.875 84.1727 136.566 91.6739 129.947C99.1751 123.329 102.926 114.651 102.926 103.914V17.2086C102.926 11.6195 104.691 7.35412 108.221 4.41248C111.751 1.47083 116.898 0 123.664 0V103.914C123.664 114.209 121.017 123.549 115.722 131.933C110.427 140.169 103.073 146.641 93.6595 151.348C84.2462 156.054 73.7298 158.408 62.1103 158.408Z" fill="#838C95"/>
<path d="M0 170.211H124.101V184H0V170.211Z" fill="#838C95"/>
</svg>
