<svg width="9" height="14" viewBox="0 0 9 14" fill="none" xmlns="http://www.w3.org/2000/svg">
<path d="M4.50435 12.144C3.66169 12.144 2.89902 11.9733 2.21635 11.632C1.53369 11.2907 0.99502 10.8213 0.600353 10.224C0.216353 9.61601 0.024353 8.93867 0.024353 8.19201V1.90401C0.024353 1.49867 0.152353 1.18934 0.408353 0.976007C0.664353 0.762673 1.03769 0.656006 1.52835 0.656006V8.19201C1.52835 8.97067 1.80035 9.60001 2.34435 10.08C2.89902 10.56 3.61902 10.8 4.50435 10.8C5.38969 10.8 6.10435 10.56 6.64835 10.08C7.19235 9.60001 7.46435 8.97067 7.46435 8.19201V1.90401C7.46435 1.49867 7.59235 1.18934 7.84835 0.976007C8.10435 0.762673 8.47769 0.656006 8.96835 0.656006V8.19201C8.96835 8.93867 8.77635 9.61601 8.39235 10.224C8.00835 10.8213 7.47502 11.2907 6.79235 11.632C6.10969 11.9733 5.34702 12.144 4.50435 12.144Z" fill="#838C95"/>
<path d="M0 13H9V14H0V13Z" fill="#838C95"/>
</svg>
