<svg width="255" height="184" viewBox="0 0 255 184" fill="none" xmlns="http://www.w3.org/2000/svg">
<path fill-rule="evenodd" clip-rule="evenodd" d="M65.4448 2.28212e-06H130.253C139.894 -8.54559e-05 147.669 -0.000156902 153.966 0.514771C160.45 1.04495 166.144 2.16509 171.413 4.85197C179.782 9.11989 186.586 15.93 190.85 24.3062C193.534 29.5795 194.654 35.2793 195.183 41.7684C195.698 48.0707 195.698 55.8534 195.698 65.5025V70.5057L223.876 42.3027C226.192 39.9835 228.336 37.8378 230.185 36.2882C231.878 34.8697 234.926 32.5035 239.011 32.1817C243.742 31.8091 248.366 33.7258 251.448 37.3377C254.109 40.4567 254.593 44.2868 254.788 46.4878C255.001 48.8925 255 51.9267 255 55.2064V128.794C255 132.073 255.001 135.107 254.788 137.512C254.593 139.713 254.109 143.543 251.448 146.662C248.366 150.274 243.742 152.191 239.011 151.818C234.926 151.496 231.878 149.13 230.185 147.712C228.336 146.162 226.193 144.017 223.876 141.698L195.698 113.494V118.497C195.698 128.147 195.698 135.929 195.183 142.232C194.654 148.721 193.534 154.42 190.85 159.694C186.586 168.07 179.782 174.88 171.413 179.148C166.144 181.835 160.45 182.955 153.966 183.485C147.669 184 139.894 184 130.253 184H65.4446C55.804 184 48.0282 184 41.7314 183.485C35.2481 182.955 29.5534 181.835 24.2847 179.148C15.9159 174.88 9.11182 168.07 4.84768 159.694C2.16317 154.42 1.04403 148.721 0.514315 142.232C-0.000156764 135.929 -8.53803e-05 128.146 2.28011e-06 118.497V65.5028C-8.53803e-05 55.8536 -0.000156764 48.0708 0.514315 41.7684C1.04403 35.2793 2.16317 29.5795 4.84768 24.3062C9.11181 15.93 15.9159 9.11988 24.2847 4.85197C29.5534 2.16509 35.2481 1.04495 41.7314 0.514771C48.0283 -0.000156902 55.8042 -8.54559e-05 65.4448 2.28212e-06ZM177.907 65.8839C177.907 55.7644 177.9 48.7103 177.452 43.2184C177.012 37.8305 176.192 34.7349 174.998 32.3902C172.44 27.3644 168.357 23.2784 163.336 20.7176C160.993 19.5229 157.901 18.7023 152.518 18.2621C147.03 17.8134 139.983 17.8065 129.872 17.8065H65.8256C55.7151 17.8065 48.6672 17.8134 43.1802 18.2621C37.797 18.7023 34.7042 19.5229 32.3615 20.7176C27.3402 23.2784 23.2578 27.3644 20.6993 32.3902C19.5057 34.7349 18.6857 37.8305 18.2459 43.2184C17.7976 48.7103 17.7907 55.7644 17.7907 65.8839V118.116C17.7907 128.236 17.7976 135.29 18.2459 140.782C18.6857 146.17 19.5057 149.265 20.6993 151.61C23.2578 156.636 27.3402 160.722 32.3615 163.282C34.7042 164.477 37.797 165.298 43.1802 165.738C48.6672 166.187 55.7151 166.194 65.8256 166.194H129.872C139.983 166.194 147.03 166.187 152.518 165.738C157.901 165.298 160.993 164.477 163.336 163.282C168.357 160.722 172.44 156.636 174.998 151.61C176.192 149.265 177.012 146.17 177.452 140.782C177.9 135.29 177.907 128.236 177.907 118.116V65.8839ZM199.382 92L236.197 128.847C236.553 129.204 236.89 129.54 237.209 129.859C237.209 129.408 237.209 128.932 237.209 128.428V55.5724C237.209 55.0684 237.209 54.592 237.209 54.1413C236.89 54.4596 236.553 54.7963 236.197 55.1527L199.382 92Z" fill="#838C95"/>
</svg>
