<svg width="157" height="157" viewBox="0 0 157 157" fill="none" xmlns="http://www.w3.org/2000/svg">
<path fill-rule="evenodd" clip-rule="evenodd" d="M124.135 20.4237C116.463 13.1257 104.023 13.1257 96.3506 20.4237L25.4998 87.8164C12.4565 100.223 12.4565 120.338 25.4998 132.745C38.5431 145.151 59.6904 145.151 72.7336 132.745L143.584 65.3522C146.653 62.433 151.629 62.433 154.698 65.3522C157.767 68.2714 157.767 73.0043 154.698 75.9236L83.8475 143.316C64.6662 161.561 33.5672 161.561 14.386 143.316C-4.79532 125.071 -4.79531 95.49 14.386 77.245L85.2367 9.85234C99.0472 -3.28411 121.438 -3.28411 135.249 9.85233C149.06 22.9888 149.06 44.2872 135.249 57.4236L67.1767 122.173C58.737 130.201 45.0534 130.201 36.6136 122.173C28.1739 114.146 28.1739 101.13 36.6136 93.1021L96.3506 36.2808C99.4196 33.3616 104.395 33.3616 107.464 36.2808C110.533 39.2 110.533 43.933 107.464 46.8522L47.7275 103.673C45.4257 105.863 45.4257 109.413 47.7275 111.602C50.0292 113.791 53.7611 113.791 56.0629 111.602L124.135 46.8522C131.808 39.5542 131.808 27.7218 124.135 20.4237Z" fill="#E2E2E2"/>
</svg>
