<svg width="20" height="22" viewBox="0 0 20 22" fill="none" xmlns="http://www.w3.org/2000/svg">
<path fill-rule="evenodd" clip-rule="evenodd" d="M9.16146 8.6011e-07H10.8385C11.3657 -1.70213e-05 11.8205 -3.25181e-05 12.195 0.0305712C12.5904 0.0628723 12.9836 0.134188 13.362 0.326982C13.9265 0.614602 14.3854 1.07354 14.673 1.63803C14.8658 2.01641 14.9371 2.40963 14.9694 2.80497C14.9969 3.14075 14.9997 3.54097 15 4H19C19.5523 4 20 4.44772 20 5C20 5.55229 19.5523 6 19 6H18V16.2413C18 17.0463 18 17.7106 17.9558 18.2518C17.9099 18.8139 17.8113 19.3306 17.564 19.816C17.1805 20.5686 16.5686 21.1805 15.816 21.564C15.3306 21.8113 14.8139 21.9099 14.2518 21.9558C13.7106 22 13.0463 22 12.2413 22H7.75868C6.95372 22 6.28936 22 5.74817 21.9558C5.18608 21.9099 4.66937 21.8113 4.18404 21.564C3.43139 21.1805 2.81947 20.5686 2.43597 19.816C2.18868 19.3306 2.09012 18.8139 2.04419 18.2518C1.99998 17.7106 1.99999 17.0463 2 16.2413L2 6H1C0.447715 6 0 5.55229 0 5C0 4.44772 0.447715 4 1 4H5.00003C5.00031 3.54097 5.00314 3.14075 5.03057 2.80497C5.06287 2.40963 5.13419 2.01641 5.32698 1.63803C5.6146 1.07354 6.07354 0.614602 6.63803 0.326982C7.01641 0.134188 7.40963 0.0628723 7.80497 0.0305713C8.17954 -3.25181e-05 8.63431 -1.70213e-05 9.16146 8.6011e-07ZM4 6V16.2C4 17.0566 4.00078 17.6389 4.03755 18.089C4.07337 18.5274 4.1383 18.7516 4.21799 18.908C4.40973 19.2843 4.71569 19.5903 5.09202 19.782C5.24842 19.8617 5.47262 19.9266 5.91104 19.9625C6.36113 19.9992 6.94342 20 7.8 20H12.2C13.0566 20 13.6389 19.9992 14.089 19.9625C14.5274 19.9266 14.7516 19.8617 14.908 19.782C15.2843 19.5903 15.5903 19.2843 15.782 18.908C15.8617 18.7516 15.9266 18.5274 15.9624 18.089C15.9992 17.6389 16 17.0566 16 16.2V6H4ZM12.9999 4H7.00007C7.00051 3.5349 7.00357 3.21698 7.02393 2.96784C7.04612 2.69617 7.0838 2.59546 7.10899 2.54601C7.20487 2.35785 7.35785 2.20487 7.54601 2.109C7.59545 2.0838 7.69617 2.04612 7.96784 2.02393C8.25117 2.00078 8.62345 2 9.2 2H10.8C11.3766 2 11.7488 2.00078 12.0322 2.02393C12.3038 2.04612 12.4045 2.0838 12.454 2.109C12.6422 2.20487 12.7951 2.35785 12.891 2.54601C12.9162 2.59546 12.9539 2.69617 12.9761 2.96784C12.9964 3.21698 12.9995 3.5349 12.9999 4ZM8 9.5C8.55228 9.5 9 9.94772 9 10.5V15.5C9 16.0523 8.55228 16.5 8 16.5C7.44772 16.5 7 16.0523 7 15.5V10.5C7 9.94772 7.44772 9.5 8 9.5ZM12 9.5C12.5523 9.5 13 9.94772 13 10.5V15.5C13 16.0523 12.5523 16.5 12 16.5C11.4477 16.5 11 16.0523 11 15.5V10.5C11 9.94772 11.4477 9.5 12 9.5Z" fill="#4493F8"/>
</svg>
