<svg width="19" height="20" viewBox="0 0 19 20" fill="none" xmlns="http://www.w3.org/2000/svg">
<path fill-rule="evenodd" clip-rule="evenodd" d="M13.9754 0.800674C14.3176 0.466426 14.8682 0.466426 15.2104 0.800674L18.6389 4.14951C18.9871 4.48954 18.9871 5.04532 18.6389 5.38535C18.2967 5.7196 17.7462 5.7196 17.404 5.38535L13.9754 2.03651C13.6273 1.69648 13.6273 1.1407 13.9754 0.800674ZM11.6205 3.29707C11.8812 3.21432 12.1617 3.21432 12.4225 3.29707C12.6244 3.36115 12.771 3.4677 12.8678 3.54792C12.9503 3.61637 13.036 3.70005 13.1073 3.76973L13.1142 3.77646L15.5923 6.19693L15.5992 6.20375C15.6705 6.27335 15.7563 6.35704 15.8264 6.43779C15.9084 6.53205 16.0192 6.67705 16.0861 6.8783C16.1727 7.13866 16.1727 7.41945 16.0861 7.67981C16.0192 7.88106 15.9084 8.02607 15.8264 8.12032C15.7563 8.20108 15.6705 8.28478 15.5992 8.35439L15.5923 8.36113L6.70341 17.0433L6.68817 17.0582C6.53043 17.2124 6.38984 17.3498 6.2254 17.4668C6.08021 17.5702 5.92457 17.6584 5.76103 17.7301C5.57603 17.8112 5.38488 17.8621 5.16949 17.9194L5.1489 17.9248L1.10722 19.0015C0.807447 19.0813 0.484785 18.9991 0.261139 18.7807C0.0363309 18.5611 -0.0535072 18.2369 0.0317256 17.9316L1.1398 13.9631C1.19831 13.7533 1.25085 13.5649 1.33468 13.3825L1.74356 13.5704L1.74876 13.5728M1.74356 13.5704L1.33468 13.3825C1.40872 13.2214 1.4996 13.0685 1.6058 12.9261C1.72592 12.7651 1.86677 12.6276 2.02435 12.4738L2.03983 12.4587L10.9288 3.77649L10.9357 3.76971C11.007 3.70004 11.0926 3.61637 11.1752 3.54792C11.2719 3.4677 11.4186 3.36115 11.6205 3.29707M1.0463 17.6446L0.913045 18.1218L1.37008 18.0001C1.29528 17.9795 1.22577 17.9396 1.16933 17.8825C1.10401 17.8164 1.06196 17.733 1.0463 17.6446ZM0.875548 18.1318C0.875535 18.1318 0.875562 18.1318 0.875548 18.1318ZM12.0215 5.15126L3.29687 13.673C3.08522 13.8797 3.04845 13.9191 3.01998 13.9572C2.98629 14.0024 2.95763 14.0507 2.93438 14.1013C2.91491 14.1436 2.89839 14.1934 2.81957 14.4757L2.13466 16.9286L4.66157 16.2555C4.94986 16.1787 5.00309 16.162 5.04852 16.1421C5.10167 16.1188 5.15204 16.0902 5.19883 16.0569C5.23845 16.0287 5.27903 15.9925 5.49049 15.786L14.1999 7.27906L12.0215 5.15126ZM15.1341 7.01343C15.1363 7.01589 15.1385 7.01834 15.1406 7.02076C15.1428 7.02326 15.145 7.02574 15.1472 7.02819C15.1925 7.08032 15.2184 7.12109 15.2322 7.16239C15.2574 7.23833 15.2574 7.31979 15.2322 7.39573C15.2184 7.43703 15.1925 7.4778 15.1472 7.52992C15.145 7.53238 15.1428 7.53486 15.1406 7.53736C15.1385 7.53978 15.1363 7.54222 15.1341 7.54468M15.173 7.5785L15.1798 7.57064C15.1818 7.56827 15.1838 7.56587 15.1857 7.56346C15.2242 7.51632 15.2517 7.46329 15.2683 7.40774C15.2933 7.32387 15.2933 7.23424 15.2683 7.15037C15.2517 7.09482 15.2242 7.0418 15.1857 6.99465C15.1838 6.99224 15.1818 6.98985 15.1798 6.98747L15.173 6.97962L15.1341 7.01343C15.092 6.96669 15.0361 6.91174 14.9635 6.84085M6.42861 17.7128H15.0429V19.45H6.42861V17.7128Z" fill="#1F89EB"/>
</svg>
